<?xml version="1.0" encoding="UTF-8" standalone="no"?>
<!-- Created with Inkscape (http://www.inkscape.org/) -->

<svg
   version="1.1"
   id="svg1"
   width="24"
   height="24"
   viewBox="0 0 24 24"
   sodipodi:docname="MachineCare.svg"
   inkscape:version="1.4.2 (f4327f4, 2025-05-13)"
   xml:space="preserve"
   xmlns:inkscape="http://www.inkscape.org/namespaces/inkscape"
   xmlns:sodipodi="http://sodipodi.sourceforge.net/DTD/sodipodi-0.dtd"
   xmlns="http://www.w3.org/2000/svg"
   xmlns:svg="http://www.w3.org/2000/svg"><defs
     id="defs1" /><sodipodi:namedview
     id="namedview1"
     pagecolor="#ffffff"
     bordercolor="#000000"
     borderopacity="0.25"
     inkscape:showpageshadow="2"
     inkscape:pageopacity="0.0"
     inkscape:pagecheckerboard="0"
     inkscape:deskcolor="#d1d1d1"
     showguides="true"
     inkscape:zoom="32"
     inkscape:cx="17.515625"
     inkscape:cy="9.4531249"
     inkscape:window-width="2560"
     inkscape:window-height="1369"
     inkscape:window-x="-8"
     inkscape:window-y="-8"
     inkscape:window-maximized="1"
     inkscape:current-layer="g1" /><g
     inkscape:groupmode="layer"
     inkscape:label="Image"
     id="g1"
     transform="matrix(0.30883771,0,0,0.30883771,-19.860886,-1.565366)"><g
       id="g2"
       transform="matrix(1.9353211,0,0,1.9353211,-70.910033,-15.669148)"
       style="stroke-width:2.67872;stroke-dasharray:none"><path
         id="rect8"
         style="display:inline;fill:none;stroke:#000000;stroke-width:2.67872;stroke-linejoin:round;stroke-dasharray:none"
         d="m 102.75589,35.177169 v 9.552777 c 0,2.6592 -2.1408,4.8 -4.799997,4.8 H 78.685094 c -2.6592,0 -4.8,-2.1408 -4.8,-4.8 V 21.329697 c 0,-2.6592 2.1408,-4.8 4.8,-4.8 h 11.000687"
         sodipodi:nodetypes="cssssssc" /><path
         style="fill:none;stroke:#000000;stroke-width:2.67872;stroke-linejoin:round;stroke-dasharray:none"
         d="m 78.106087,24.835986 v 5.2818 h 13.613112"
         id="path10"
         sodipodi:nodetypes="ccc" /><path
         style="fill:none;stroke:#000000;stroke-width:2.67872;stroke-linejoin:round;stroke-dasharray:none"
         d="m 78.106087,38.953386 v 5.2644 h 20.1 v -5.2644"
         id="path11"
         sodipodi:nodetypes="cccc" /><path
         style="fill:none;stroke:#000000;stroke-width:2.67872;stroke-linejoin:round;stroke-dasharray:none;stroke-opacity:1"
         d="m 99.155701,12.05429 1.975319,6.913624 7.5527,-3.427763 -5.28689,5.925964 4.29923,2.788689 -5.22879,0.639074 1.62674,7.320308 -4.415427,-5.984061 -3.660156,3.660154 0.755268,-5.170694 -5.80977,-0.232391 4.938306,-2.904883 -3.311568,-4.53162 5.344986,1.859125 z"
         id="path12"
         sodipodi:nodetypes="ccccccccccccccc" /></g></g></svg>
