<?xml version="1.0" encoding="UTF-8" standalone="no"?>
<!-- Created with Inkscape (http://www.inkscape.org/) -->

<svg
   version="1.1"
   id="svg1"
   width="24"
   height="24"
   viewBox="0 0 24 24"
   sodipodi:docname="Auto_45-65.svg"
   inkscape:version="1.4.2 (f4327f4, 2025-05-13)"
   xmlns:inkscape="http://www.inkscape.org/namespaces/inkscape"
   xmlns:sodipodi="http://sodipodi.sourceforge.net/DTD/sodipodi-0.dtd"
   xmlns="http://www.w3.org/2000/svg"
   xmlns:svg="http://www.w3.org/2000/svg">
  <defs
     id="defs1" />
  <sodipodi:namedview
     id="namedview1"
     pagecolor="#ffffff"
     bordercolor="#000000"
     borderopacity="0.25"
     inkscape:showpageshadow="2"
     inkscape:pageopacity="0.0"
     inkscape:pagecheckerboard="0"
     inkscape:deskcolor="#d1d1d1"
     inkscape:zoom="41.309736"
     inkscape:cx="20.176842"
     inkscape:cy="13.931341"
     inkscape:window-width="2560"
     inkscape:window-height="1369"
     inkscape:window-x="-8"
     inkscape:window-y="-8"
     inkscape:window-maximized="1"
     inkscape:current-layer="g1"
     showguides="false" />
  <g
     inkscape:groupmode="layer"
     inkscape:label="Auto_45-65"
     id="g1"
     transform="matrix(0.16020901,0,0,0.16020901,-5.3256905,3.0136453)">
    <path
       style="font-size:44.2287px;line-height:0;font-family:Bosch;-inkscape-font-specification:Bosch;letter-spacing:-0.819534px;stroke:#000000;stroke-width:1.66192;stroke-linejoin:round"
       d="M 42.637467,107.94592 H 55.549586 V 88.388894 Z m 12.912119,2.22859 H 40.219143 v -2.6834 L 55.376848,84.79586 h 2.634245 v 23.15006 h 4.275251 v 2.22859 h -4.275251 v 7.1406 h -2.461507 z m 18.675931,7.50444 q -2.159218,0 -3.843407,-0.63673 -1.684189,-0.63675 -2.936535,-1.68282 -1.209162,-1.09156 -1.98648,-2.50148 -0.777318,-1.40993 -1.165977,-2.91082 l 2.245585,-0.63674 q 0.302291,1.13704 0.863688,2.22859 0.604581,1.09156 1.511451,1.95571 0.906872,0.86414 2.202402,1.40992 1.295531,0.54578 3.109273,0.54578 3.411564,0 5.311675,-2.27407 1.90011,-2.27408 1.90011,-6.32193 0,-1.86473 -0.518211,-3.4111 -0.475028,-1.59186 -1.381899,-2.68341 -0.906871,-1.137036 -2.245587,-1.773777 -1.29553,-0.63674 -2.893351,-0.63674 -2.504691,0 -4.016144,1.091555 -1.468268,1.091552 -2.418323,2.546962 H 65.80457 l 1.381899,-17.19199 h 15.373627 v 2.365037 H 69.259318 l -0.99324,11.91614 q 0.863686,-1.091555 2.461507,-2.001184 1.641005,-0.955111 3.929775,-0.955111 1.986481,0 3.67067,0.773185 1.727374,0.727702 2.97972,2.137628 1.29553,1.364445 1.986479,3.365625 0.734135,1.95571 0.734135,4.4117 0,2.54697 -0.734135,4.54815 -0.734133,2.00118 -2.072848,3.41111 -1.29553,1.40993 -3.109273,2.18311 -1.770557,0.7277 -3.886591,0.7277 z M 94.153849,96.166224 q 1.900111,0 3.022904,-1.318962 1.122797,-1.364443 1.122797,-3.593035 0,-2.137628 -1.16598,-3.547554 -1.122795,-1.409925 -2.979721,-1.409925 -1.856926,0 -2.979719,1.364443 -1.122794,1.318964 -1.122794,3.456591 0,2.228593 1.122794,3.638516 1.122793,1.409926 2.979719,1.409926 z m 0,1.91022 q -1.295531,0 -2.418323,-0.500295 -1.122793,-0.545778 -1.98648,-1.455407 -0.820503,-0.909629 -1.338715,-2.183109 -0.475027,-1.273481 -0.475027,-2.728887 0,-1.455409 0.475027,-2.683406 0.518212,-1.273481 1.338715,-2.18311 0.863687,-0.909629 1.98648,-1.409926 1.122792,-0.545777 2.418323,-0.545777 1.295531,0 2.418323,0.545777 1.165975,0.500297 1.986482,1.455408 0.863683,0.909629 1.338714,2.183108 0.475032,1.228 0.475032,2.683407 0,1.500889 -0.475032,2.774368 -0.475031,1.228 -1.338714,2.137629 -0.820507,0.909629 -1.986482,1.409925 -1.122792,0.500295 -2.418323,0.500295 z m 10.254971,5.821626 h 8.50732 v 2.50148 h -8.50732 z m 22.69207,11.59777 q 1.64099,0 2.97971,-0.59126 1.3819,-0.63674 2.37514,-1.72829 0.99324,-1.13704 1.51146,-2.63793 0.5614,-1.54637 0.5614,-3.41111 0,-1.81925 -0.51822,-3.32014 -0.47502,-1.50089 -1.42508,-2.54696 -0.95005,-1.09156 -2.28877,-1.682818 -1.33872,-0.591259 -3.02291,-0.591259 -1.641,0 -3.06609,0.636741 -1.42509,0.591256 -2.46151,1.682816 -1.03642,1.04607 -1.641,2.54696 -0.56139,1.45541 -0.56139,3.22918 0,1.77378 0.56139,3.32015 0.56141,1.54637 1.55464,2.6834 1.03642,1.13704 2.41832,1.77378 1.3819,0.63674 3.02291,0.63674 z m 0,2.18311 q -2.72062,0 -4.79347,-1.22799 -2.07284,-1.27349 -3.41156,-3.32015 -1.1228,-1.7283 -1.64101,-4.1843 -0.51821,-2.50148 -0.51821,-6.32192 0,-4.184294 0.77732,-7.549921 0.77732,-3.411108 2.2024,-5.776146 1.46827,-2.365035 3.49793,-3.638515 2.02967,-1.273481 4.57754,-1.273481 3.23883,0 5.2685,1.773776 2.02966,1.773776 3.02289,4.866517 l -2.28876,0.682222 q -0.47503,-1.137037 -0.99325,-2.046667 -0.5182,-0.955111 -1.25234,-1.591849 -0.69095,-0.682223 -1.68419,-1.046075 -0.95005,-0.363851 -2.24558,-0.363851 -1.9433,0 -3.45475,1.091555 -1.51145,1.091553 -2.59106,3.138221 -1.07961,2.001184 -1.68419,4.866515 -0.60458,2.865332 -0.64776,6.367399 1.0796,-2.274068 3.15245,-3.774957 2.11604,-1.546368 5.09575,-1.546368 2.15922,0 3.92978,0.773184 1.77056,0.773184 3.0229,2.137628 1.29553,1.364443 1.98649,3.229183 0.73413,1.86474 0.73413,4.04785 0,2.31955 -0.73413,4.32074 -0.69096,1.9557 -1.98649,3.36562 -1.29553,1.40994 -3.15245,2.2286 -1.85694,0.77318 -4.18888,0.77318 z m 22.82169,0 q -2.15922,0 -3.84341,-0.63673 -1.68419,-0.63675 -2.93653,-1.68282 -1.20916,-1.09156 -1.98648,-2.50148 -0.77733,-1.40993 -1.16598,-2.91082 l 2.24558,-0.63674 q 0.30229,1.13704 0.86369,2.22859 0.60457,1.09156 1.51146,1.95571 0.90687,0.86414 2.20239,1.40992 1.29554,0.54578 3.10928,0.54578 3.41156,0 5.31168,-2.27407 1.90011,-2.27408 1.90011,-6.32193 0,-1.86473 -0.51822,-3.4111 -0.47502,-1.59186 -1.38189,-2.68341 -0.90688,-1.137036 -2.2456,-1.773777 -1.29553,-0.63674 -2.89335,-0.63674 -2.50468,0 -4.01614,1.091555 -1.46826,1.091552 -2.41833,2.546962 h -2.15921 l 1.3819,-17.19199 h 15.37362 v 2.365037 h -13.30076 l -0.99325,11.91614 q 0.86368,-1.091555 2.46151,-2.001184 1.641,-0.955111 3.92977,-0.955111 1.98648,0 3.67067,0.773185 1.72738,0.727702 2.97972,2.137628 1.29553,1.364445 1.98647,3.365625 0.73415,1.95571 0.73415,4.4117 0,2.54697 -0.73415,4.54815 -0.73413,2.00118 -2.07284,3.41111 -1.29554,1.40993 -3.10927,2.18311 -1.77056,0.7277 -3.88659,0.7277 z M 169.8509,96.166224 q 1.90012,0 3.02291,-1.318962 1.1228,-1.364443 1.1228,-3.593035 0,-2.137628 -1.16598,-3.547554 -1.12279,-1.409925 -2.97973,-1.409925 -1.85692,0 -2.97971,1.364443 -1.12279,1.318964 -1.12279,3.456591 0,2.228593 1.12279,3.638516 1.12279,1.409926 2.97971,1.409926 z m 0,1.91022 q -1.29552,0 -2.41831,-0.500295 -1.1228,-0.545778 -1.98648,-1.455407 -0.82051,-0.909629 -1.33872,-2.183109 -0.47503,-1.273481 -0.47503,-2.728887 0,-1.455409 0.47503,-2.683406 0.51821,-1.273481 1.33872,-2.18311 0.86368,-0.909629 1.98648,-1.409926 1.12279,-0.545777 2.41831,-0.545777 1.29555,0 2.41833,0.545777 1.16598,0.500297 1.98648,1.455408 0.86369,0.909629 1.33871,2.183108 0.47503,1.228 0.47503,2.683407 0,1.500889 -0.47503,2.774368 -0.47502,1.228 -1.33871,2.137629 -0.8205,0.909629 -1.98648,1.409925 -1.12278,0.500295 -2.41833,0.500295 z"
       id="text4"
       aria-label="45°-65°" />
    <path
       style="font-size:49.4077px;line-height:0;font-family:'Bosch Sans';-inkscape-font-specification:'Bosch Sans';letter-spacing:-0.778171px;stroke:#000000;stroke-width:2.02665;stroke-linejoin:round"
       d="m 55.07931,31.634339 h 17.973868 l 3.611974,12.271182 h 5.01663 L 66.631891,-5.3136931 H 61.930586 L 46.73737,43.905521 h 4.758628 z M 56.483963,26.89396 64.051912,1.3093836 71.619855,26.89396 Z m 50.044307,17.011561 h 4.87324 V 7.8988422 h -4.87324 V 29.919731 c 0,2.723195 -0.63063,4.975717 -1.92064,6.690316 -1.49074,1.983565 -3.55463,2.958536 -6.191955,2.958536 -2.03532,0 -3.55465,-0.638776 -4.55799,-1.882704 -1.14663,-1.412027 -1.71996,-3.765407 -1.71996,-7.060136 V 7.8988422 h -4.87333 V 30.18869 c 0,4.33694 0.74535,7.732528 2.20732,10.153146 1.69131,2.790434 4.27131,4.168841 7.71127,4.168841 4.328655,0 7.453235,-2.050803 9.345285,-6.118784 z M 118.7902,12.639218 h 4.70124 v 23.063101 c 0,2.521478 0.63065,4.572278 1.92064,6.118784 1.462,1.781843 3.49731,2.689574 6.1634,2.689574 2.35054,0 4.47189,-0.840493 6.36392,-2.521478 l -1.89203,-3.933501 c -1.28999,1.143065 -2.69467,1.7146 -4.15667,1.7146 -2.3506,0 -3.52588,-1.7146 -3.52588,-5.143811 V 12.639218 h 7.73988 V 7.8988422 h -7.73988 V -2.8258375 l -4.87338,1.3784075 v 9.3462722 h -4.70124 z m 36.37032,-5.345531 c -3.98454,0 -7.30985,1.5465064 -10.00453,4.605895 -3.06739,3.530068 -4.61532,8.203202 -4.61532,14.019411 0,5.009331 1.20396,9.211793 3.58339,12.641 2.78058,3.967122 6.39254,5.950684 10.86447,5.950684 3.95604,0 7.28136,-1.546506 9.94732,-4.605899 3.06726,-3.530068 4.61533,-8.236821 4.61533,-14.053027 0,-4.975712 -1.20408,-9.178174 -3.58336,-12.607377 -2.72328,-3.967125 -6.33524,-5.950687 -10.8073,-5.950687 z m 0,4.740376 c 2.60875,0 4.7587,1.109452 6.45002,3.32835 1.92065,2.555096 2.89527,6.085162 2.89527,10.55658 0,3.933503 -0.7453,7.16099 -2.26462,9.615228 -1.71996,2.824051 -4.12794,4.236077 -7.25266,4.236077 -2.66594,0 -4.84464,-1.075828 -6.53596,-3.261108 -1.92064,-2.487857 -2.86659,-5.984305 -2.86659,-10.489336 0,-4.067988 0.74535,-7.329097 2.23596,-9.783334 1.72005,-2.790431 4.15666,-4.202457 7.33858,-4.202457 z"
       id="text3"
       aria-label="Auto" />
  </g>
</svg>
