<?xml version="1.0" encoding="UTF-8" standalone="no"?>
<!-- Created with Inkscape (http://www.inkscape.org/) -->

<svg
   version="1.1"
   id="svg1"
   width="24"
   height="24"
   viewBox="0 0 24 24"
   sodipodi:docname="Auto_45-65.svg"
   inkscape:version="1.4.2 (f4327f4, 2025-05-13)"
   xmlns:inkscape="http://www.inkscape.org/namespaces/inkscape"
   xmlns:sodipodi="http://sodipodi.sourceforge.net/DTD/sodipodi-0.dtd"
   xmlns="http://www.w3.org/2000/svg"
   xmlns:svg="http://www.w3.org/2000/svg">
  <defs
     id="defs1" />
  <sodipodi:namedview
     id="namedview1"
     pagecolor="#ffffff"
     bordercolor="#000000"
     borderopacity="0.25"
     inkscape:showpageshadow="2"
     inkscape:pageopacity="0.0"
     inkscape:pagecheckerboard="0"
     inkscape:deskcolor="#d1d1d1"
     inkscape:zoom="41.309736"
     inkscape:cx="20.225256"
     inkscape:cy="13.931341"
     inkscape:window-width="2560"
     inkscape:window-height="1369"
     inkscape:window-x="-8"
     inkscape:window-y="-8"
     inkscape:window-maximized="1"
     inkscape:current-layer="g1"
     showguides="false" />
  <g
     inkscape:groupmode="layer"
     inkscape:label="Auto_45-65"
     id="g1"
     transform="matrix(0.16020901,0,0,0.16020901,-5.3256905,3.0136453)">
    <path
       style="font-size:49.4077px;line-height:0;font-family:'Bosch Sans';-inkscape-font-specification:'Bosch Sans';letter-spacing:-0.778171px;stroke:#000000;stroke-width:9.98695;stroke-linejoin:round;stroke-dasharray:none"
       d="m 47.769491,69.78524 h 20.449785 l 4.109527,13.961549 h 5.707676 L 60.913451,27.74758 H 55.564536 L 38.278441,83.746789 h 5.414132 z m 1.598144,-5.39337 8.610441,-29.108877 8.610435,29.108877 z M 106.3056,83.746789 h 5.54453 V 42.780156 h -5.54453 v 25.054288 c 0,3.098316 -0.71751,5.661126 -2.18522,7.611912 -1.69609,2.256804 -4.04428,3.366078 -7.044897,3.366078 -2.31569,0 -4.04431,-0.726768 -5.18586,-2.142048 -1.304579,-1.606535 -1.956885,-4.284096 -1.956885,-8.032677 V 42.780156 h -5.544637 v 25.360295 c 0,4.934359 0.848022,8.797692 2.511382,11.551753 1.924289,3.174818 4.85968,4.743103 8.7735,4.743103 4.924937,0 8.479927,-2.333305 10.632617,-6.961653 z m 13.95101,-35.573266 h 5.34884 v 26.240066 c 0,2.868813 0.71752,5.202112 2.18522,6.961652 1.66338,2.027293 3.97906,3.060066 7.0124,3.060066 2.67434,0 5.08791,-0.956273 7.24056,-2.868816 l -2.15265,-4.475343 c -1.4677,1.300524 -3.06587,1.950787 -4.72927,1.950787 -2.67439,0 -4.01157,-1.950787 -4.01157,-5.852376 V 48.173523 h 8.80607 v -5.393367 h -8.80607 V 30.578141 l -5.54469,1.568284 v 10.633731 h -5.34884 z m 41.38036,-6.081883 c -4.53341,0 -8.31677,1.759539 -11.38266,5.240361 -3.48992,4.016338 -5.25108,9.333202 -5.25108,15.950599 0,5.699372 1.36981,10.480727 4.07701,14.382311 3.1636,4.513596 7.27311,6.770396 12.36106,6.770396 4.50099,0 8.28437,-1.75954 11.31757,-5.240366 3.48977,-4.016339 5.2511,-9.371451 5.2511,-15.988846 0,-5.661121 -1.36995,-10.442476 -4.07698,-14.344056 -3.0984,-4.5136 -7.20792,-6.770399 -12.29602,-6.770399 z m 0,5.393367 c 2.96811,0 5.41423,1.26228 7.33853,3.786833 2.18522,2.907063 3.29409,6.9234 3.29409,12.01076 0,4.475347 -0.84797,8.147423 -2.57658,10.939734 -1.95688,3.213067 -4.69655,4.819601 -8.25171,4.819601 -3.03318,0 -5.512,-1.224024 -7.4363,-3.710328 -2.18521,-2.830562 -3.26146,-6.808649 -3.26146,-11.934253 0,-4.628357 0.84802,-8.338687 2.54397,-11.130998 1.95699,-3.174814 4.72923,-4.781349 8.34946,-4.781349 z"
       id="text3"
       aria-label="Auto" />
  </g>
</svg>
