<?xml version="1.0" encoding="UTF-8" standalone="no"?>
<!-- Created with Inkscape (http://www.inkscape.org/) -->

<svg
   version="1.1"
   id="svg1"
   width="200"
   height="113"
   viewBox="0 0 200 113"
   sodipodi:docname="Auto_45-65.svg"
   inkscape:version="1.4.2 (f4327f4, 2025-05-13)"
   xmlns:inkscape="http://www.inkscape.org/namespaces/inkscape"
   xmlns:sodipodi="http://sodipodi.sourceforge.net/DTD/sodipodi-0.dtd"
   xmlns="http://www.w3.org/2000/svg"
   xmlns:svg="http://www.w3.org/2000/svg">
  <defs
     id="defs1" />
  <sodipodi:namedview
     id="namedview1"
     pagecolor="#ffffff"
     bordercolor="#000000"
     borderopacity="0.25"
     inkscape:showpageshadow="2"
     inkscape:pageopacity="0.0"
     inkscape:pagecheckerboard="0"
     inkscape:deskcolor="#d1d1d1"
     inkscape:zoom="10.327434"
     inkscape:cx="111.6928"
     inkscape:cy="55.144385"
     inkscape:window-width="2560"
     inkscape:window-height="1369"
     inkscape:window-x="-8"
     inkscape:window-y="-8"
     inkscape:window-maximized="1"
     inkscape:current-layer="g1"
     showguides="false" />
  <g
     inkscape:groupmode="layer"
     inkscape:label="Image"
     id="g1">
    <path
       style="font-size:44.2287px;line-height:0;font-family:Bosch;-inkscape-font-specification:Bosch;letter-spacing:-0.819534px;stroke:#000000;stroke-width:1.65857;stroke-linejoin:round"
       d="M 43.892267,89.978709 H 57.116648 V 70.960368 Z m 13.224381,2.167206 H 41.41546 V 89.536422 L 56.939733,67.466301 h 2.69795 v 22.512408 h 4.378642 v 2.167206 h -4.378642 v 6.943906 H 57.116648 Z M 76.24423,99.44365 q -2.211435,0 -3.936354,-0.619201 -1.724919,-0.619202 -3.007551,-1.636462 -1.238404,-1.061489 -2.03452,-2.432579 -0.796117,-1.371089 -1.194175,-2.830636 l 2.299892,-0.619202 q 0.309601,1.105717 0.884574,2.167206 0.619202,1.061489 1.548004,1.901834 0.928803,0.840345 2.255664,1.37109 1.326861,0.530744 3.184466,0.530744 3.494068,0 5.44013,-2.211435 1.946063,-2.211435 1.946063,-6.147789 0,-1.813376 -0.530744,-3.317152 -0.486516,-1.548005 -1.415319,-2.609493 -0.928802,-1.105718 -2.299892,-1.72492 -1.326861,-0.619202 -2.963323,-0.619202 -2.565264,0 -4.113269,1.061489 -1.503776,1.061489 -2.476807,2.476807 h -2.211435 l 1.415318,-16.718448 h 15.745417 v 2.299893 H 71.15793 l -1.01726,11.587919 q 0.884574,-1.061489 2.521036,-1.946063 1.68069,-0.928803 4.024811,-0.928803 2.034521,0 3.75944,0.751888 1.769148,0.707659 3.05178,2.078749 1.326861,1.326861 2.03452,3.272924 0.751888,1.901834 0.751888,4.290183 0,2.476808 -0.751888,4.42287 -0.751888,1.946063 -2.122977,3.317153 -1.326861,1.371089 -3.184467,2.122977 -1.813376,0.707659 -3.980583,0.707659 z M 96.654501,78.523476 q 1.946063,0 3.096009,-1.282632 1.14995,-1.326861 1.14995,-3.494068 0,-2.078748 -1.194178,-3.449838 -1.149947,-1.37109 -3.051781,-1.37109 -1.901834,0 -3.05178,1.326861 -1.149946,1.282633 -1.149946,3.361381 0,2.167207 1.149946,3.538296 1.149946,1.37109 3.05178,1.37109 z m 0,1.857605 q -1.326861,0 -2.476807,-0.486515 -1.149946,-0.530745 -2.03452,-1.415319 -0.840345,-0.884574 -1.37109,-2.122977 -0.486515,-1.238404 -0.486515,-2.653722 0,-1.415319 0.486515,-2.609493 0.530745,-1.238404 1.37109,-2.122978 0.884574,-0.884574 2.03452,-1.37109 1.149946,-0.530744 2.476807,-0.530744 1.326861,0 2.476807,0.530744 1.194172,0.486516 2.034522,1.415319 0.88457,0.884574 1.37109,2.122977 0.48651,1.194175 0.48651,2.609493 0,1.459548 -0.48651,2.697951 -0.48652,1.194175 -1.37109,2.078749 -0.84035,0.884574 -2.034522,1.37109 -1.149946,0.486515 -2.476807,0.486515 z m 10.502969,5.661274 h 8.71306 v 2.432578 h -8.71306 z m 23.24084,11.278318 q 1.68069,0 3.05178,-0.574973 1.41532,-0.619202 2.43258,-1.680691 1.01726,-1.105717 1.54801,-2.565264 0.57497,-1.503776 0.57497,-3.317153 0,-1.769148 -0.53075,-3.228695 -0.48651,-1.459547 -1.45954,-2.476807 -0.97303,-1.061489 -2.34412,-1.636462 -1.37109,-0.574973 -3.09601,-0.574973 -1.68069,0 -3.14024,0.619202 -1.45955,0.574973 -2.52104,1.636462 -1.06149,1.01726 -1.68069,2.476807 -0.57497,1.415318 -0.57497,3.140238 0,1.724919 0.57497,3.228695 0.57498,1.503775 1.59224,2.609493 1.06148,1.105717 2.4768,1.724919 1.41532,0.619202 3.09601,0.619202 z m 0,2.122977 q -2.78641,0 -4.90938,-1.194174 -2.12298,-1.238404 -3.49407,-3.228695 -1.14995,-1.680691 -1.68069,-4.069041 -0.53075,-2.432578 -0.53075,-6.147789 0,-4.06904 0.79612,-7.341964 0.79612,-3.317152 2.25566,-5.617045 1.50378,-2.299892 3.58253,-3.538295 2.07875,-1.238404 4.68824,-1.238404 3.31715,0 5.3959,1.724919 2.07875,1.724919 3.09601,4.732471 l -2.34412,0.66343 q -0.48652,-1.105717 -1.01726,-1.990291 -0.53074,-0.928803 -1.28263,-1.548004 -0.70766,-0.663431 -1.72492,-1.01726 -0.97303,-0.35383 -2.29989,-0.35383 -1.9903,0 -3.5383,1.061489 -1.548,1.061488 -2.65372,3.05178 -1.10572,1.946063 -1.72492,4.732471 -0.6192,2.786408 -0.66343,6.192017 1.10572,-2.211434 3.22869,-3.670982 2.16721,-1.503775 5.21899,-1.503775 2.21144,0 4.02481,0.751888 1.81338,0.751887 3.09601,2.078748 1.32686,1.326861 2.03452,3.140238 0.75189,1.813377 0.75189,3.936354 0,2.255664 -0.75189,4.201727 -0.70766,1.901834 -2.03452,3.272923 -1.32686,1.37109 -3.22869,2.167207 -1.90184,0.751887 -4.29019,0.751887 z m 23.37361,0 q -2.21144,0 -3.93636,-0.619201 -1.72492,-0.619202 -3.00755,-1.636462 -1.2384,-1.061489 -2.03452,-2.432579 -0.79612,-1.371089 -1.19418,-2.830636 l 2.2999,-0.619202 q 0.3096,1.105717 0.88457,2.167206 0.6192,1.061489 1.54801,1.901834 0.9288,0.840345 2.25566,1.37109 1.32686,0.530744 3.18447,0.530744 3.49406,0 5.44013,-2.211435 1.94606,-2.211435 1.94606,-6.147789 0,-1.813376 -0.53075,-3.317152 -0.48651,-1.548005 -1.41531,-2.609493 -0.92881,-1.105718 -2.2999,-1.72492 -1.32686,-0.619202 -2.96332,-0.619202 -2.56526,0 -4.11327,1.061489 -1.50377,1.061489 -2.47681,2.476807 h -2.21143 l 1.41532,-16.718448 h 15.74541 v 2.299893 h -13.62243 l -1.01726,11.587919 q 0.88457,-1.061489 2.52103,-1.946063 1.68069,-0.928803 4.02481,-0.928803 2.03452,0 3.75944,0.751888 1.76915,0.707659 3.05178,2.078749 1.32686,1.326861 2.03452,3.272924 0.75189,1.901834 0.75189,4.290183 0,2.476808 -0.75189,4.42287 -0.75189,1.946063 -2.12298,3.317153 -1.32686,1.371089 -3.18446,2.122977 -1.81338,0.707659 -3.98058,0.707659 z m 20.41026,-20.920174 q 1.94607,0 3.09601,-1.282632 1.14995,-1.326861 1.14995,-3.494068 0,-2.078748 -1.19418,-3.449838 -1.14994,-1.37109 -3.05178,-1.37109 -1.90183,0 -3.05178,1.326861 -1.14994,1.282633 -1.14994,3.361381 0,2.167207 1.14994,3.538296 1.14995,1.37109 3.05178,1.37109 z m 0,1.857605 q -1.32686,0 -2.4768,-0.486515 -1.14995,-0.530745 -2.03452,-1.415319 -0.84035,-0.884574 -1.37109,-2.122977 -0.48652,-1.238404 -0.48652,-2.653722 0,-1.415319 0.48652,-2.609493 0.53074,-1.238404 1.37109,-2.122978 0.88457,-0.884574 2.03452,-1.37109 1.14994,-0.530744 2.4768,-0.530744 1.32687,0 2.47681,0.530744 1.19418,0.486516 2.03452,1.415319 0.88458,0.884574 1.37109,2.122977 0.48652,1.194175 0.48652,2.609493 0,1.459548 -0.48652,2.697951 -0.48651,1.194175 -1.37109,2.078749 -0.84034,0.884574 -2.03452,1.37109 -1.14994,0.486515 -2.47681,0.486515 z"
       id="text4"
       transform="scale(0.97441962,1.0262519)"
       aria-label="45°-65°" />
    <path
       style="font-size:49.4077px;line-height:0;font-family:'Bosch Sans';-inkscape-font-specification:'Bosch Sans';letter-spacing:-0.778171px;stroke:#000000;stroke-width:1.57487;stroke-linejoin:round"
       d="m 72.457355,35.867589 h 15.126283 l 3.039732,8.805572 h 4.221849 L 82.179671,9.3543753 H 78.223195 L 65.437023,44.673161 h 4.004725 z m 1.182118,-3.401604 6.368961,-18.359014 6.368961,18.359014 z m 42.115817,12.207176 h 4.10123 V 18.835443 h -4.10123 v 15.801779 c 0,1.954113 -0.53075,3.570478 -1.61636,4.800845 -1.2545,1.423367 -2.99149,2.122987 -5.21097,2.122987 -1.71287,0 -2.99148,-0.458372 -3.83585,-1.350991 -0.965,-1.013244 -1.4475,-2.701984 -1.4475,-5.06622 v -16.3084 H 99.54339 V 34.83022 c 0,3.112106 0.62725,5.548717 1.85761,7.285706 1.42337,2.002363 3.59461,2.991482 6.48959,2.991482 3.64285,0 6.27246,-1.471616 7.8647,-4.390723 z m 10.31926,-22.436114 h 3.95648 v 16.549649 c 0,1.809364 0.53075,3.28098 1.61636,4.390724 1.23037,1.278617 2.94324,1.929988 5.18685,1.929988 1.97824,0 3.76347,-0.603121 5.35572,-1.809364 l -1.59225,-2.822608 c -1.08561,0.820245 -2.26773,1.230368 -3.4981,1.230368 -1.97824,0 -2.96736,-1.230368 -2.96736,-3.691103 V 22.237047 h 6.51371 v -3.401604 h -6.51371 v -7.695829 l -4.10122,0.989119 v 6.70671 h -3.95648 z m 30.60827,-3.835852 c -3.35336,0 -6.15184,1.109744 -8.41957,3.305105 -2.58136,2.53311 -3.88411,5.886464 -3.88411,10.060064 0,3.594603 1.01325,6.61021 3.01561,9.070945 2.34011,2.846733 5.37984,4.270099 9.14332,4.270099 3.32923,0 6.12771,-1.109743 8.37132,-3.305105 2.58136,-2.53311 3.88411,-5.910589 3.88411,-10.084189 0,-3.570478 -1.01325,-6.586085 -3.01561,-9.04682 -2.29186,-2.846732 -5.33159,-4.270099 -9.09507,-4.270099 z m 0,3.401605 c 2.19536,0 4.00472,0.79612 5.42809,2.38836 1.61637,1.833489 2.43661,4.366599 2.43661,7.575204 0,2.822608 -0.62725,5.138594 -1.90586,6.899708 -1.44749,2.026488 -3.47398,3.039732 -6.10359,3.039732 -2.24361,0 -4.0771,-0.771996 -5.50047,-2.340111 -1.61636,-1.785239 -2.41248,-4.294224 -2.41248,-7.526954 0,-2.919108 0.62724,-5.259218 1.88174,-7.020333 1.44749,-2.002363 3.4981,-3.015606 6.17596,-3.015606 z"
       id="text3"
       transform="scale(0.9234008,1.0829534)"
       aria-label="Auto" />
  </g>
</svg>
