<?xml version="1.0" encoding="UTF-8" standalone="no"?>
<!-- Created with Inkscape (http://www.inkscape.org/) -->

<svg
   version="1.1"
   id="svg1"
   width="24"
   height="24"
   viewBox="0 0 24 24"
   sodipodi:docname="Auto_45-65.svg"
   inkscape:version="1.4.2 (f4327f4, 2025-05-13)"
   xmlns:inkscape="http://www.inkscape.org/namespaces/inkscape"
   xmlns:sodipodi="http://sodipodi.sourceforge.net/DTD/sodipodi-0.dtd"
   xmlns="http://www.w3.org/2000/svg"
   xmlns:svg="http://www.w3.org/2000/svg">
  <defs
     id="defs1" />
  <sodipodi:namedview
     id="namedview1"
     pagecolor="#ffffff"
     bordercolor="#000000"
     borderopacity="0.25"
     inkscape:showpageshadow="2"
     inkscape:pageopacity="0.0"
     inkscape:pagecheckerboard="0"
     inkscape:deskcolor="#d1d1d1"
     inkscape:zoom="41.309736"
     inkscape:cx="20.201049"
     inkscape:cy="13.931341"
     inkscape:window-width="2560"
     inkscape:window-height="1369"
     inkscape:window-x="-8"
     inkscape:window-y="-8"
     inkscape:window-maximized="1"
     inkscape:current-layer="g1"
     showguides="false" />
  <g
     inkscape:groupmode="layer"
     inkscape:label="Auto_45-65"
     id="g1"
     transform="matrix(0.16020901,0,0,0.16020901,-5.3256905,3.0136453)">
    <path
       style="font-size:49.4077px;line-height:0;font-family:'Bosch Sans';-inkscape-font-specification:'Bosch Sans';letter-spacing:-0.778171px;stroke:#000000;stroke-width:2.02659;stroke-linejoin:round"
       d="m 55.080799,68.126954 h 17.973364 l 3.611873,12.270838 h 5.016489 L 66.633056,31.179957 h -4.701173 l -15.19279,49.217835 h 4.758494 z m 1.404613,-4.740246 7.567737,-25.58386 7.567731,25.58386 z m 50.042908,17.011084 h 4.8731 v -36.00567 h -4.8731 v 22.020272 c 0,2.723118 -0.63062,4.975577 -1.92059,6.690128 -1.4907,1.98351 -3.55453,2.958453 -6.191781,2.958453 -2.035263,0 -3.554551,-0.638758 -4.557862,-1.882651 -1.146598,-1.411987 -1.719912,-3.765301 -1.719912,-7.059938 V 44.392122 h -4.873194 v 22.289223 c 0,4.336819 0.745329,7.732311 2.207259,10.152862 1.691262,2.790355 4.27119,4.168724 7.711053,4.168724 4.328537,0 7.453027,-2.050746 9.345027,-6.118613 z M 118.7899,49.132365 h 4.70111 V 72.19482 c 0,2.521407 0.63063,4.572149 1.92059,6.118612 1.46195,1.781793 3.49721,2.689499 6.16322,2.689499 2.35048,0 4.47177,-0.84047 6.36374,-2.521408 l -1.89197,-3.93339 c -1.28996,1.143033 -2.6946,1.714552 -4.15656,1.714552 -2.35053,0 -3.52578,-1.714552 -3.52578,-5.143667 V 49.132365 h 7.73967 v -4.740243 h -7.73967 V 33.667743 l -4.87324,1.378369 v 9.34601 h -4.70111 z m 36.3693,-5.345381 c -3.98443,0 -7.30964,1.546463 -10.00425,4.605766 -3.0673,3.529969 -4.61519,8.202972 -4.61519,14.019018 0,5.009191 1.20393,9.211535 3.58329,12.640646 2.7805,3.96701 6.39236,5.950517 10.86417,5.950517 3.95593,0 7.28115,-1.546463 9.94704,-4.60577 3.06717,-3.529969 4.6152,-8.23659 4.6152,-14.052633 0,-4.975573 -1.20405,-9.177917 -3.58326,-12.607024 -2.7232,-3.967014 -6.33506,-5.95052 -10.807,-5.95052 z m 0,4.740243 c 2.60868,0 4.75857,1.109421 6.44984,3.328257 1.9206,2.555024 2.89519,6.084991 2.89519,10.556284 0,3.933393 -0.74528,7.160789 -2.26456,9.614958 -1.71991,2.823972 -4.12782,4.235959 -7.25245,4.235959 -2.66587,0 -4.84451,-1.075798 -6.53578,-3.261017 -1.92059,-2.487787 -2.86651,-5.984137 -2.86651,-10.489042 0,-4.067874 0.74533,-7.328891 2.2359,-9.78306 1.72,-2.790352 4.15654,-4.202339 7.33837,-4.202339 z"
       id="text3"
       aria-label="Auto" />
  </g>
</svg>
