<?xml version="1.0" encoding="UTF-8" standalone="no"?>
<!-- Created with Inkscape (http://www.inkscape.org/) -->

<svg
   version="1.1"
   id="svg1"
   width="24"
   height="24"
   viewBox="0 0 24 24"
   sodipodi:docname="Eco_50.svg"
   inkscape:version="1.4.2 (f4327f4, 2025-05-13)"
   xmlns:inkscape="http://www.inkscape.org/namespaces/inkscape"
   xmlns:sodipodi="http://sodipodi.sourceforge.net/DTD/sodipodi-0.dtd"
   xmlns="http://www.w3.org/2000/svg"
   xmlns:svg="http://www.w3.org/2000/svg">
  <defs
     id="defs1" />
  <sodipodi:namedview
     id="namedview1"
     pagecolor="#ffffff"
     bordercolor="#000000"
     borderopacity="0.25"
     inkscape:showpageshadow="2"
     inkscape:pageopacity="0.0"
     inkscape:pagecheckerboard="0"
     inkscape:deskcolor="#d1d1d1"
     inkscape:zoom="29.210394"
     inkscape:cx="21.995595"
     inkscape:cy="15.217186"
     inkscape:window-width="2560"
     inkscape:window-height="1369"
     inkscape:window-x="-8"
     inkscape:window-y="-8"
     inkscape:window-maximized="1"
     inkscape:current-layer="g1" />
  <g
     inkscape:groupmode="layer"
     inkscape:label="Eco_50"
     id="g1"
     transform="matrix(0.2134146,0,0,0.2134146,-9.4050849,0.0200718)">
    <path
       d="M 47.820322,28.011899 H 78.71546 V 33.37229 H 53.363868 v 19.577078 h 21.024919 v 5.20502 H 53.363868 v 20.0432 h 26.568468 v 5.36039 H 47.820322 Z M 100.29807,84.25716 q -3.447795,0 -6.422385,-1.476051 -2.974582,-1.476048 -5.205533,-4.195088 -2.230936,-2.796725 -3.515416,-6.603379 -1.216877,-3.884343 -1.216877,-8.623238 0,-4.661209 1.149272,-8.54555 1.149271,-3.884343 3.245004,-6.681067 2.163337,-2.796728 5.13792,-4.350464 2.9746,-1.553736 6.692805,-1.553736 5.07034,0 8.45054,2.48598 3.3802,2.408292 5.34074,6.370319 l -4.4619,3.41822 q -1.8253,-3.495906 -3.85343,-5.205017 -2.02812,-1.70911 -5.47595,-1.70911 -5.070295,0 -7.774474,4.272776 -2.636561,4.272775 -2.636561,11.497649 0,7.535621 2.771772,11.575336 2.771768,3.962028 7.842083,3.962028 2.02812,0 3.58301,-0.543806 1.55492,-0.621495 2.70419,-1.553737 1.21687,-1.009929 2.09572,-2.252919 0.94646,-1.320677 1.69011,-2.796725 l 4.32669,3.107472 q -0.87887,1.786797 -2.16336,3.495909 -1.28448,1.631422 -3.04219,2.952099 -1.7577,1.320675 -4.05624,2.17523 -2.29855,0.776869 -5.20554,0.776869 z m 35.7796,-5.360392 q 2.50136,0 4.52949,-1.087615 2.02813,-1.165303 3.44782,-3.185159 1.4197,-2.019859 2.16333,-4.894271 0.74365,-2.952099 0.74365,-6.448006 0,-7.224876 -2.90698,-11.419962 -2.90699,-4.272776 -7.97731,-4.272776 -2.56894,0 -4.59709,1.165303 -1.96052,1.087615 -3.38021,3.107473 -1.41969,2.019857 -2.16333,4.971956 -0.74364,2.874412 -0.74364,6.448006 0,7.147189 2.83938,11.419964 2.90697,4.195087 8.04489,4.195087 z m -0.0676,5.360392 q -3.58302,0 -6.62521,-1.553736 -3.04219,-1.553737 -5.27313,-4.350462 -2.23095,-2.796727 -3.51542,-6.603381 -1.21687,-3.884341 -1.21687,-8.467864 0,-4.661209 1.28447,-8.545549 1.28447,-3.884342 3.51543,-6.603381 2.23094,-2.796728 5.27311,-4.350464 3.04221,-1.553736 6.62523,-1.553736 3.58302,0 6.62521,1.553736 3.0422,1.47605 5.27312,4.272776 2.23094,2.796727 3.51544,6.681069 1.28448,3.806653 1.28448,8.467863 0,4.661209 -1.28448,8.54555 -1.2845,3.884341 -3.51544,6.681068 -2.23092,2.796724 -5.34072,4.35046 -3.0422,1.476051 -6.62522,1.476051 z"
       id="text1"
       style="font-weight:550;font-size:49.8934px;line-height:0;font-family:Bosch;-inkscape-font-specification:'Bosch weight=550';letter-spacing:-0.785822px;display:inline;fill:#000000;fill-opacity:1;stroke:#000000;stroke-width:7.49714;stroke-linejoin:round;stroke-dasharray:none"
       aria-label="Eco" />
  </g>
</svg>
