<?xml version="1.0" encoding="UTF-8" standalone="no"?>
<!-- Created with Inkscape (http://www.inkscape.org/) -->

<svg
   version="1.1"
   id="svg1"
   width="24"
   height="24"
   viewBox="0 0 24 24"
   sodipodi:docname="Eco_50.svg"
   inkscape:version="1.4.2 (f4327f4, 2025-05-13)"
   xmlns:inkscape="http://www.inkscape.org/namespaces/inkscape"
   xmlns:sodipodi="http://sodipodi.sourceforge.net/DTD/sodipodi-0.dtd"
   xmlns="http://www.w3.org/2000/svg"
   xmlns:svg="http://www.w3.org/2000/svg">
  <defs
     id="defs1" />
  <sodipodi:namedview
     id="namedview1"
     pagecolor="#ffffff"
     bordercolor="#000000"
     borderopacity="0.25"
     inkscape:showpageshadow="2"
     inkscape:pageopacity="0.0"
     inkscape:pagecheckerboard="0"
     inkscape:deskcolor="#d1d1d1"
     inkscape:zoom="3.6512993"
     inkscape:cx="206.91265"
     inkscape:cy="123.65461"
     inkscape:window-width="2560"
     inkscape:window-height="1369"
     inkscape:window-x="-8"
     inkscape:window-y="-8"
     inkscape:window-maximized="1"
     inkscape:current-layer="g1" />
  <g
     inkscape:groupmode="layer"
     inkscape:label="Eco_50"
     id="g1"
     transform="matrix(0.2134146,0,0,0.2134146,-9.4050849,0.0200718)">
    <path
       d="M 68.78784,9.4496066 H 91.589123 V 12.892251 H 72.879098 v 12.573136 h 15.516847 v 3.342858 H 72.879098 v 12.872497 h 19.608106 v 3.442644 H 68.78784 Z m 38.72973,36.1228204 q -2.54456,0 -4.73987,-0.947975 -2.19531,-0.947974 -3.841795,-2.694243 -1.646482,-1.796162 -2.594457,-4.240939 -0.898081,-2.49467 -0.898081,-5.538167 0,-2.993604 0.848188,-5.488274 0.848187,-2.49467 2.394883,-4.290832 1.596592,-1.796163 3.791902,-2.794031 2.19531,-0.997868 4.93944,-0.997868 3.74201,0 6.23668,1.596589 2.49467,1.546696 3.94158,4.091259 l -3.29297,2.195309 q -1.34712,-2.245202 -2.84392,-3.342857 -1.4968,-1.097655 -4.04137,-1.097655 -3.742,0 -5.73774,2.744137 -1.945841,2.744137 -1.945841,7.384223 0,4.839659 2.045631,7.434116 2.04563,2.544563 5.78763,2.544563 1.4968,0 2.64435,-0.349253 1.14755,-0.399147 1.99574,-0.997868 0.89808,-0.648614 1.54669,-1.446909 0.69851,-0.848188 1.24734,-1.796162 l 3.19318,1.995736 q -0.64862,1.147548 -1.59659,2.245203 -0.94798,1.047761 -2.24521,1.895949 -1.29722,0.848188 -2.9936,1.397015 -1.69637,0.498934 -3.84179,0.498934 z m 26.40612,-3.442645 q 1.84606,0 3.34286,-0.698507 1.4968,-0.748401 2.54457,-2.045629 1.04776,-1.297229 1.59658,-3.143285 0.54883,-1.895949 0.54883,-4.141152 0,-4.640086 -2.14541,-7.334329 -2.14542,-2.744137 -5.88743,-2.744137 -1.89594,0 -3.39275,0.748401 -1.44691,0.698508 -2.49467,1.995736 -1.04776,1.297228 -1.59659,3.193177 -0.54882,1.846056 -0.54882,4.141152 0,4.590193 2.09552,7.33433 2.14542,2.694243 5.93731,2.694243 z m -0.0499,3.442645 q -2.64435,0 -4.88955,-0.997868 -2.2452,-0.997868 -3.89169,-2.79403 -1.64648,-1.796163 -2.59445,-4.240939 -0.89808,-2.49467 -0.89808,-5.438381 0,-2.993603 0.94797,-5.488273 0.94797,-2.49467 2.59446,-4.240939 1.64648,-1.796163 3.89168,-2.794031 2.2452,-0.997868 4.88955,-0.997868 2.64435,0 4.88956,0.997868 2.2452,0.947975 3.89168,2.744137 1.64648,1.796163 2.59446,4.290833 0.94797,2.444776 0.94797,5.43838 0,2.993604 -0.94797,5.488274 -0.94798,2.49467 -2.59446,4.290832 -1.64648,1.796162 -3.94158,2.79403 -2.2452,0.947975 -4.88955,0.947975 z"
       id="text1"
       style="font-weight:550;font-size:49.8934px;line-height:0;font-family:Bosch;-inkscape-font-specification:'Bosch weight=550';letter-spacing:-0.785822px;display:inline;fill:#000000;fill-opacity:1;stroke:#000000;stroke-width:1.59035;stroke-linejoin:round"
       transform="scale(0.93285316,1.0719801)"
       aria-label="Eco" />
    <path
       style="font-size:45.3333px;line-height:0;font-family:Bosch;-inkscape-font-specification:Bosch;letter-spacing:-0.84px;stroke:#000000;stroke-width:1.65478;stroke-linejoin:round"
       d="m 80.03673,102.08848 q -2.144763,-0.006 -3.817677,-0.64712 -1.672915,-0.64062 -2.916878,-1.688479 -1.201066,-1.093131 -1.973181,-2.502723 -0.772114,-1.409592 -1.158171,-2.908802 l 2.230553,-0.628757 q 0.300266,1.135789 0.857904,2.226965 0.600534,1.091305 1.501334,1.956548 0.900801,0.865242 2.187658,1.413892 1.286858,0.548649 3.088458,0.554121 3.388725,0.0103 5.276116,-2.253729 1.887391,-2.26402 1.887391,-6.304182 0,-1.861198 -0.514744,-3.406193 -0.471847,-1.590261 -1.372647,-2.68248 -0.900801,-1.137613 -2.230553,-1.777182 -1.286858,-0.63944 -2.873982,-0.644261 -2.487924,-0.0075 -3.989258,1.077365 -1.458439,1.085053 -2.402134,2.534829 l -2.144763,-0.0065 1.372648,-17.15517 15.270709,0.04638 v 2.360544 l -13.211737,-0.04014 -0.98659,11.890513 q 0.857904,-1.086877 2.445029,-1.989958 1.63002,-0.948345 3.903468,-0.94144 1.97318,0.006 3.646095,0.78279 1.71581,0.731534 2.959773,2.142559 1.286857,1.365761 1.973182,3.36523 0.729218,1.954203 0.729218,4.405536 0,2.542125 -0.729218,4.537293 -0.72922,1.995167 -2.058973,3.398378 -1.286857,1.403333 -3.088457,2.169573 -1.758706,0.72098 -3.860573,0.7146 z m 24.89945,-2.194123 q 4.16084,0.01264 6.3914,-3.793774 2.27345,-3.80628 2.27345,-10.615542 0,-3.268445 -0.60054,-5.903183 -0.60053,-2.634739 -1.71581,-4.499324 -1.11528,-1.864586 -2.74529,-2.868228 -1.58713,-1.048908 -3.6461,-1.055161 -2.05897,-0.0062 -3.68899,0.987487 -1.630019,0.99374 -2.78819,2.851422 -1.115277,1.857809 -1.71581,4.534295 -0.600535,2.676486 -0.600535,5.990326 0,3.40463 0.600535,6.084764 0.643428,2.680264 1.801599,4.54498 1.158174,1.81932 2.788191,2.777567 1.63002,0.958249 3.64609,0.964371 z m 0.0429,2.269883 q -2.57371,-0.008 -4.67558,-1.19446 -2.101866,-1.232062 -3.646095,-3.415717 -1.501333,-2.183524 -2.359238,-5.227599 -0.81501,-3.043945 -0.81501,-6.766341 0,-3.767791 0.81501,-6.852182 0.815009,-3.084389 2.316343,-5.258793 1.501335,-2.174403 3.6032,-3.348292 2.10186,-1.173887 4.67558,-1.166071 2.57372,0.0078 4.67559,1.239869 2.10186,1.186655 3.56029,3.37005 1.50135,2.183523 2.27346,5.227339 0.815,3.043946 0.815,6.766341 0,3.722396 -0.815,6.806786 -0.77211,3.039125 -2.23055,5.259053 -1.45844,2.174535 -3.56031,3.393817 -2.05898,1.17402 -4.63269,1.1662 z m 21.25337,-21.407317 q 1.8874,0.0057 3.00266,-1.307335 1.11528,-1.358466 1.11528,-3.582824 0,-2.133568 -1.15817,-3.544334 -1.11527,-1.410635 -2.95977,-1.416237 -1.8445,-0.0056 -2.95978,1.352862 -1.11526,1.31307 -1.11526,3.446639 0,2.224358 1.11526,3.634993 1.11528,1.410635 2.95978,1.416236 z m 0,1.906594 q -1.28686,-0.0039 -2.40213,-0.506642 -1.11529,-0.548129 -1.97319,-1.458636 -0.815,-0.910376 -1.32975,-2.183002 -0.47184,-1.272495 -0.47184,-2.725137 0,-1.452642 0.47184,-2.676876 0.51475,-1.2695 1.32975,-2.174926 0.8579,-0.905296 1.97319,-1.401254 1.11527,-0.541353 2.40213,-0.537445 1.28686,0.0039 2.40213,0.552037 1.15817,0.502863 1.97319,1.458635 0.8579,0.910508 1.32975,2.183004 0.47185,1.2271 0.47185,2.679742 0,1.498038 -0.47185,2.767667 -0.47185,1.224233 -1.32975,2.129529 -0.81502,0.905425 -1.97319,1.401255 -1.11527,0.495958 -2.40213,0.492049 z"
       id="text2"
       aria-label="50°" />
  </g>
</svg>
