<?xml version="1.0" encoding="UTF-8" standalone="no"?>
<!-- Created with Inkscape (http://www.inkscape.org/) -->

<svg
   version="1.1"
   id="svg1"
   width="24"
   height="24"
   viewBox="0 0 24 24"
   sodipodi:docname="Eco_50.svg"
   inkscape:version="1.4.2 (f4327f4, 2025-05-13)"
   xmlns:inkscape="http://www.inkscape.org/namespaces/inkscape"
   xmlns:sodipodi="http://sodipodi.sourceforge.net/DTD/sodipodi-0.dtd"
   xmlns="http://www.w3.org/2000/svg"
   xmlns:svg="http://www.w3.org/2000/svg">
  <defs
     id="defs1" />
  <sodipodi:namedview
     id="namedview1"
     pagecolor="#ffffff"
     bordercolor="#000000"
     borderopacity="0.25"
     inkscape:showpageshadow="2"
     inkscape:pageopacity="0.0"
     inkscape:pagecheckerboard="0"
     inkscape:deskcolor="#d1d1d1"
     inkscape:zoom="3.6512993"
     inkscape:cx="207.18652"
     inkscape:cy="123.65461"
     inkscape:window-width="2560"
     inkscape:window-height="1369"
     inkscape:window-x="-8"
     inkscape:window-y="-8"
     inkscape:window-maximized="1"
     inkscape:current-layer="g1" />
  <g
     inkscape:groupmode="layer"
     inkscape:label="Eco_50"
     id="g1"
     transform="matrix(0.2134146,0,0,0.2134146,-9.4050849,0.0200718)">
    <path
       d="m 54.383683,31.529162 h 27.031121 v 4.689973 H 59.233905 v 17.128598 h 18.395358 v 4.554033 H 59.233905 v 17.536422 h 23.245582 v 4.689973 H 54.383683 Z m 45.914427,49.210735 q -3.016596,0 -5.619146,-1.291443 -2.60256,-1.291441 -4.55449,-3.670413 -1.951915,-2.446942 -3.075747,-5.777503 -1.064683,-3.398532 -1.064683,-7.54474 0,-4.078238 1.005534,-7.476769 1.005533,-3.398532 2.839155,-5.845474 1.892771,-2.446944 4.495331,-3.806356 2.60256,-1.359413 5.855746,-1.359413 4.43619,0 7.39364,2.175061 2.95745,2.10709 4.67278,5.573592 l -3.90385,2.990707 q -1.59702,-3.058677 -3.37149,-4.554032 -1.77447,-1.495354 -4.79108,-1.495354 -4.436166,0 -6.802136,3.738385 -2.30681,3.738385 -2.30681,10.059653 0,6.59315 2.42511,10.127623 2.42511,3.466502 6.861286,3.466502 1.77447,0 3.1349,-0.475793 1.36043,-0.543765 2.36597,-1.359413 1.06468,-0.883618 1.83361,-1.971149 0.82809,-1.155501 1.47873,-2.446942 l 3.78555,2.718825 q -0.76895,1.563324 -1.89278,3.058679 -1.12383,1.427382 -2.66171,2.582883 -1.53787,1.155501 -3.54894,1.903178 -2.01106,0.679706 -4.55448,0.679706 z m 31.30469,-4.689974 q 2.18852,0 3.96299,-0.951588 1.77447,-1.01956 3.01661,-2.786795 1.24213,-1.767238 1.89276,-4.282151 0.65064,-2.582884 0.65064,-5.641562 0,-6.321269 -2.5434,-9.991682 -2.54342,-3.738385 -6.9796,-3.738385 -2.24765,0 -4.02214,1.01956 -1.71532,0.951589 -2.95745,2.718825 -1.24213,1.767236 -1.89277,4.35012 -0.65063,2.514913 -0.65063,5.641562 0,6.253298 2.48426,9.991683 2.54341,3.670413 7.03873,3.670413 z m -0.0592,4.689974 q -3.1349,0 -5.7966,-1.359413 -2.66171,-1.359412 -4.61363,-3.806354 -1.95192,-2.446944 -3.07575,-5.777504 -1.06468,-3.398532 -1.06468,-7.408799 0,-4.078237 1.12383,-7.476768 1.12382,-3.398532 3.07575,-5.777504 1.95192,-2.446944 4.61362,-3.806356 2.66171,-1.359413 5.79661,-1.359413 3.1349,0 5.79661,1.359413 2.66171,1.291442 4.61362,3.738385 1.95192,2.446943 3.07576,5.845475 1.12383,3.33056 1.12383,7.408798 0,4.078237 -1.12383,7.476769 -1.12384,3.398531 -3.07576,5.845474 -1.95191,2.446942 -4.67277,3.806354 -2.66171,1.291443 -5.79661,1.291443 z"
       id="text1"
       style="font-weight:550;font-size:49.8934px;line-height:0;font-family:Bosch;-inkscape-font-specification:'Bosch weight=550';letter-spacing:-0.785822px;display:inline;fill:#000000;fill-opacity:1;stroke:#000000;stroke-width:2.02108;stroke-linejoin:round"
       aria-label="Eco" />
  </g>
</svg>
