<?xml version="1.0" encoding="UTF-8" standalone="no"?>
<!-- Created with Inkscape (http://www.inkscape.org/) -->

<svg
   version="1.1"
   id="svg1"
   width="200"
   height="200"
   viewBox="0 0 200 200"
   sodipodi:docname="Express60.svg"
   inkscape:version="1.4.2 (f4327f4, 2025-05-13)"
   xml:space="preserve"
   xmlns:inkscape="http://www.inkscape.org/namespaces/inkscape"
   xmlns:sodipodi="http://sodipodi.sourceforge.net/DTD/sodipodi-0.dtd"
   xmlns="http://www.w3.org/2000/svg"
   xmlns:svg="http://www.w3.org/2000/svg"><defs
     id="defs1" /><sodipodi:namedview
     id="namedview1"
     pagecolor="#ffffff"
     bordercolor="#000000"
     borderopacity="0.25"
     inkscape:showpageshadow="2"
     inkscape:pageopacity="0.0"
     inkscape:pagecheckerboard="0"
     inkscape:deskcolor="#d1d1d1"
     inkscape:zoom="3.6512993"
     inkscape:cx="34.919077"
     inkscape:cy="85.585972"
     inkscape:window-width="2560"
     inkscape:window-height="1369"
     inkscape:window-x="-8"
     inkscape:window-y="-8"
     inkscape:window-maximized="1"
     inkscape:current-layer="g1"
     showguides="true" /><g
     inkscape:groupmode="layer"
     inkscape:label="Image"
     id="g1"><path
       style="font-size:44.2287px;line-height:0;font-family:Bosch;-inkscape-font-specification:Bosch;letter-spacing:-0.819534px;stroke:#000000;stroke-width:1.65857;stroke-linejoin:round"
       d="m 85.422635,180.94291 q 1.6377,0 2.97371,-0.59007 1.37912,-0.63545 2.37036,-1.72481 0.99123,-1.13475 1.5084,-2.63261 0.56027,-1.54325 0.56027,-3.40423 0,-1.8156 -0.51717,-3.31345 -0.47407,-1.49787 -1.42221,-2.54183 -0.94814,-1.08936 -2.28416,-1.67942 -1.33602,-0.59008 -3.01681,-0.59008 -1.6377,0 -3.05991,0.63547 -1.42221,0.59006 -2.45655,1.67942 -1.03433,1.04396 -1.6377,2.54183 -0.56026,1.45246 -0.56026,3.22267 0,1.7702 0.56026,3.31346 0.56027,1.54324 1.55151,2.67799 1.03433,1.13475 2.41345,1.7702 1.37911,0.63546 3.01681,0.63546 z m 0,2.17871 q -2.71513,0 -4.7838,-1.22553 -2.06867,-1.27091 -3.40469,-3.31345 -1.12053,-1.72481 -1.6377,-4.17586 -0.51716,-2.49644 -0.51716,-6.30918 0,-4.17586 0.77575,-7.5347 0.77575,-3.40424 2.19796,-5.76451 1.46531,-2.36027 3.49088,-3.63118 2.02557,-1.27092 4.56832,-1.27092 3.2323,0 5.25787,1.77021 2.02557,1.7702 3.01681,4.8567 l -2.28416,0.68085 q -0.47407,-1.13474 -0.99123,-2.04254 -0.51717,-0.95318 -1.24983,-1.58864 -0.68955,-0.68084 -1.68079,-1.04396 -0.94814,-0.36312 -2.24106,-0.36312 -1.93938,0 -3.44779,1.08935 -1.5084,1.08935 -2.58584,3.1319 -1.07743,1.99715 -1.68079,4.85671 -0.60336,2.85954 -0.64646,6.35456 1.07743,-2.26949 3.1461,-3.76735 2.11177,-1.54325 5.08549,-1.54325 2.15486,0 3.92185,0.77162 1.76699,0.77163 3.01681,2.13332 1.29292,1.36169 1.98248,3.22268 0.73265,1.86098 0.73265,4.03969 0,2.31488 -0.73265,4.31203 -0.68956,1.95176 -1.98248,3.35885 -1.29292,1.40708 -3.1461,2.22409 -1.85319,0.77163 -4.18044,0.77163 z m 25.146045,-2.2695 q 4.18044,0 6.4215,-3.81274 2.28416,-3.81274 2.28416,-10.6212 0,-3.26807 -0.60336,-5.90067 -0.60336,-2.63262 -1.72389,-4.49359 -1.12053,-1.86098 -2.75823,-2.85956 -1.5946,-1.04396 -3.66327,-1.04396 -2.06867,0 -3.70637,0.99857 -1.6377,0.99857 -2.80133,2.85956 -1.12053,1.86097 -1.72389,4.53898 -0.60336,2.67799 -0.60336,5.99145 0,3.40423 0.60336,6.08223 0.64646,2.67799 1.81009,4.53898 1.16363,1.81559 2.80132,2.76877 1.6377,0.95318 3.66327,0.95318 z m 0.0431,2.2695 q -2.58583,0 -4.6976,-1.18014 -2.11177,-1.22552 -3.66327,-3.40423 -1.50841,-2.17871 -2.370365,-5.21983 -0.81885,-3.04111 -0.81885,-6.76308 0,-3.76735 0.81885,-6.85385 0.818855,-3.08651 2.327265,-5.26522 1.50841,-2.17871 3.62017,-3.35884 2.11177,-1.18014 4.69761,-1.18014 2.58584,0 4.69761,1.22553 2.11177,1.18013 3.57707,3.35884 1.50841,2.17872 2.28416,5.21983 0.81885,3.04111 0.81885,6.76308 0,3.72196 -0.81885,6.80846 -0.77575,3.04112 -2.24106,5.26522 -1.46531,2.17871 -3.57708,3.40423 -2.06867,1.18014 -4.65451,1.18014 z m 21.35348,-21.46938 q 1.89628,0 3.01681,-1.3163 1.12053,-1.36169 1.12053,-3.58578 0,-2.13332 -1.16362,-3.54041 -1.12053,-1.40708 -2.97372,-1.40708 -1.85318,0 -2.97371,1.36169 -1.12053,1.3163 -1.12053,3.44962 0,2.22411 1.12053,3.63119 1.12053,1.40707 2.97371,1.40707 z m 0,1.90638 q -1.29292,0 -2.41345,-0.49929 -1.12053,-0.54467 -1.98247,-1.45247 -0.81885,-0.9078 -1.33602,-2.17871 -0.47407,-1.27091 -0.47407,-2.72338 0,-1.45248 0.47407,-2.67801 0.51717,-1.27091 1.33602,-2.1787 0.86194,-0.9078 1.98247,-1.40708 1.12053,-0.54469 2.41345,-0.54469 1.29292,0 2.41345,0.54469 1.16363,0.49928 1.98247,1.45246 0.86196,0.9078 1.33602,2.17871 0.47407,1.22553 0.47407,2.67801 0,1.49785 -0.47407,2.76877 -0.47406,1.22552 -1.33602,2.13331 -0.81884,0.90781 -1.98247,1.40709 -1.12053,0.49929 -2.41345,0.49929 z"
       id="text4"
       aria-label="60°" /><g
       id="g6"
       style="display:inline;stroke:#010000;stroke-opacity:1"
       transform="matrix(1.0023758,0,0,0.99969872,-6.9281601,69.808754)"
       inkscape:label="plates"><path
         style="display:inline;fill:none;stroke:#010000;stroke-width:3.50665;stroke-linejoin:round;stroke-dasharray:none;stroke-opacity:1"
         d="M 89.003911,36.211245 172.99552,36.02389"
         id="path4" /><path
         style="display:inline;fill:none;stroke:#010000;stroke-width:3.58835;stroke-linejoin:round;stroke-dasharray:none;stroke-opacity:1"
         d="M 161.3179,36.601541 151.55922,48.221 h -41.119 l -9.35025,-11.813118"
         id="path5" /><path
         style="display:inline;fill:none;stroke:#010000;stroke-width:3.50665;stroke-linejoin:round;stroke-dasharray:none;stroke-opacity:1"
         d="m 154.00391,45.700533 83.99161,-0.187355"
         id="path4-1"
         transform="matrix(0.9976247,0,0,1.0003021,-64.634175,-21.656168)" /><path
         style="display:inline;fill:none;stroke:#010000;stroke-width:3.58835;stroke-linejoin:round;stroke-dasharray:none;stroke-opacity:1"
         d="m 226.3179,46.090829 -9.75868,11.619459 m -41.119,0 -9.35025,-11.813118"
         id="path5-7"
         sodipodi:nodetypes="cccc"
         transform="matrix(0.9976247,0,0,1.0003021,-64.634175,-21.656168)" /></g><g
       id="g3"
       inkscape:label="clock"
       transform="translate(-0.27387511,-7.9423781)"
       style="stroke:#010000;stroke-opacity:1"><path
         id="path2"
         style="display:inline;fill:none;stroke:#010000;stroke-width:3.81381;stroke-linecap:round;stroke-linejoin:round;stroke-opacity:1"
         d="M 78.17866,125.57454 C 61.625039,122.55811 49.075413,108.06493 49.075413,90.640633 c -10e-7,-19.611862 15.898556,-35.510418 35.510418,-35.510418 19.611859,-10e-7 35.510419,15.898555 35.510419,35.510418"
         sodipodi:nodetypes="cssc" /><path
         style="display:inline;fill:none;stroke:#010000;stroke-width:3.5;stroke-linecap:round;stroke-linejoin:round;stroke-opacity:1"
         d="M 76.240709,48.307187 76.241,42.83 92.125466,42.829685 92.125,48.307"
         id="path3"
         sodipodi:nodetypes="cccc" /><path
         style="display:inline;fill:none;stroke:#010000;stroke-width:3.5;stroke-linecap:round;stroke-linejoin:round;stroke-opacity:1"
         d="m 109.29637,54.871103 3.821,-3.924215 11.38148,11.080538 -3.82122,3.924181"
         id="path3-2"
         sodipodi:nodetypes="cccc" /><path
         style="display:inline;fill:none;stroke:#010000;stroke-width:3.5;stroke-linecap:round;stroke-linejoin:round;stroke-opacity:1"
         d="m 84.353534,68.194902 v 23.00551 l 16.706386,-0.273875"
         id="path1" /></g></g></svg>
