<?xml version="1.0" encoding="UTF-8" standalone="no"?>
<!-- Created with Inkscape (http://www.inkscape.org/) -->

<svg
   version="1.1"
   id="svg1"
   width="24"
   height="24"
   viewBox="0 0 24 24"
   sodipodi:docname="Express_45.svg"
   inkscape:version="1.4.2 (f4327f4, 2025-05-13)"
   xml:space="preserve"
   xmlns:inkscape="http://www.inkscape.org/namespaces/inkscape"
   xmlns:sodipodi="http://sodipodi.sourceforge.net/DTD/sodipodi-0.dtd"
   xmlns="http://www.w3.org/2000/svg"
   xmlns:svg="http://www.w3.org/2000/svg"><defs
     id="defs1" /><sodipodi:namedview
     id="namedview1"
     pagecolor="#ffffff"
     bordercolor="#000000"
     borderopacity="0.25"
     inkscape:showpageshadow="2"
     inkscape:pageopacity="0.0"
     inkscape:pagecheckerboard="0"
     inkscape:deskcolor="#d1d1d1"
     inkscape:zoom="29.210394"
     inkscape:cx="13.984748"
     inkscape:cy="14.874842"
     inkscape:window-width="2560"
     inkscape:window-height="1369"
     inkscape:window-x="-8"
     inkscape:window-y="-8"
     inkscape:window-maximized="1"
     inkscape:current-layer="g1"
     showguides="true" /><g
     inkscape:groupmode="layer"
     inkscape:label="Express_45"
     id="g1"
     style="stroke:#000000;stroke-opacity:1"
     transform="translate(0,-0.83664163)"><g
       id="g11"
       inkscape:label="icon"
       style="fill:none;fill-opacity:1;stroke:#000000;stroke-width:6.77313;stroke-dasharray:none;stroke-opacity:1"
       transform="matrix(0.23619748,0,0,0.23619748,-10.726902,-5.6120322)"><g
         id="g3"
         inkscape:label="clock"
         transform="translate(-0.27387511,-7.9423781)"
         style="fill:none;fill-opacity:1;stroke:#000000;stroke-width:6.77313;stroke-dasharray:none;stroke-opacity:1"><path
           id="path2"
           style="display:inline;fill:none;fill-opacity:1;stroke:#000000;stroke-width:6.77313;stroke-linecap:round;stroke-linejoin:round;stroke-dasharray:none;stroke-opacity:1"
           d="M 73.00316,124.18429 C 60.719143,119.81981 49.075413,107.98808 49.075413,90.640633 c 0,-19.611862 15.898556,-35.510417 35.510418,-35.510418 14.83289,-10e-7 27.541689,9.094349 32.854619,22.011293"
           sodipodi:nodetypes="cssc" /><path
           style="display:inline;fill:none;fill-opacity:1;stroke:#000000;stroke-width:6.77313;stroke-linecap:round;stroke-linejoin:round;stroke-dasharray:none;stroke-opacity:1"
           d="M 76.240709,48.307187 76.241,42.83 92.125466,42.829685 92.125,48.307"
           id="path3"
           sodipodi:nodetypes="cccc" /><path
           style="display:inline;fill:none;fill-opacity:1;stroke:#000000;stroke-width:6.77313;stroke-linecap:round;stroke-linejoin:round;stroke-dasharray:none;stroke-opacity:1"
           d="m 109.29637,54.871103 3.821,-3.924215 11.38148,11.080538 -3.82122,3.924181"
           id="path3-2"
           sodipodi:nodetypes="cccc" /><path
           style="display:inline;fill:none;fill-opacity:1;stroke:#000000;stroke-width:6.77313;stroke-linecap:round;stroke-linejoin:round;stroke-dasharray:none;stroke-opacity:1"
           d="m 84.353534,68.194902 v 23.00551 l 16.706386,-0.273875"
           id="path1" /></g><g
         id="g10"
         inkscape:label="cup"
         style="fill:none;fill-opacity:1;stroke:#000000;stroke-width:6.77313;stroke-dasharray:none;stroke-opacity:1"><path
           id="rect5"
           style="display:inline;fill:none;fill-opacity:1;stroke:#000000;stroke-width:6.77313;stroke-linecap:round;stroke-linejoin:round;stroke-dasharray:none;stroke-opacity:1"
           d="m 91.156008,98.598251 h 7.694814 c 8.053028,0 7.120748,-1.34308 7.120748,7.120749 v 8.24257 c 0,3.9449 -3.17585,7.12075 -7.120748,7.12075 h -7.694814 c -3.944897,0 -7.120753,-3.17585 -7.120753,-7.12075 V 105.719 c 0,-7.916079 -1.069208,-7.120749 7.120753,-7.120749 z"
           sodipodi:nodetypes="sssssssss" /><path
           id="path5"
           style="display:inline;fill:none;fill-opacity:1;stroke:#000000;stroke-width:6.77313;stroke-linecap:round;stroke-linejoin:round;stroke-dasharray:none;stroke-opacity:1"
           d="m 106.36618,102.97359 c 1.17794,-0.81252 2.60605,-1.28831 4.14529,-1.28831 4.03682,0 7.30931,3.27249 7.30931,7.30931 0,4.03682 -3.27249,7.30931 -7.30931,7.30931 -1.63195,0 -3.13898,-0.53482 -4.35538,-1.43876"
           sodipodi:nodetypes="csssc" /></g><g
         id="g9"
         style="display:inline;fill:none;fill-opacity:1;stroke:#000000;stroke-width:6.77313;stroke-dasharray:none;stroke-opacity:1"
         inkscape:label="glass"><path
           id="path7"
           style="fill:none;fill-opacity:1;stroke:#000000;stroke-width:6.77313;stroke-linecap:round;stroke-linejoin:round;stroke-dasharray:none;stroke-opacity:1"
           d="m 141.27424,75.656231 c 2.12951,2.507458 2.3637,6.754569 2.3637,10.594547 0,7.644187 -5.22536,13.841032 -11.67117,13.841032 -6.44581,0 -11.67118,-6.19684 -11.67118,-13.841032 0,-3.9029 0.27776,-7.891919 2.46903,-10.40808 z"
           sodipodi:nodetypes="csssc" /><path
           style="display:inline;fill:none;fill-opacity:1;stroke:#000000;stroke-width:6.77313;stroke-linecap:round;stroke-linejoin:round;stroke-dasharray:none;stroke-opacity:1"
           d="m 132.03739,100.23613 -0.14126,19.9972"
           id="path8" /><path
           style="display:inline;fill:none;fill-opacity:1;stroke:#000000;stroke-width:6.77313;stroke-linecap:round;stroke-linejoin:round;stroke-dasharray:none;stroke-opacity:1"
           d="m 121.55951,121.32667 20.81451,-0.13693"
           id="path9" /></g></g></g></svg>
