<?xml version="1.0" encoding="UTF-8" standalone="no"?>
<!-- Created with Inkscape (http://www.inkscape.org/) -->

<svg
   version="1.1"
   id="svg1"
   width="200"
   height="200"
   viewBox="0 0 200 200"
   sodipodi:docname="Express45.svg"
   inkscape:version="1.4.2 (f4327f4, 2025-05-13)"
   xml:space="preserve"
   xmlns:inkscape="http://www.inkscape.org/namespaces/inkscape"
   xmlns:sodipodi="http://sodipodi.sourceforge.net/DTD/sodipodi-0.dtd"
   xmlns="http://www.w3.org/2000/svg"
   xmlns:svg="http://www.w3.org/2000/svg"><defs
     id="defs1" /><sodipodi:namedview
     id="namedview1"
     pagecolor="#ffffff"
     bordercolor="#000000"
     borderopacity="0.25"
     inkscape:showpageshadow="2"
     inkscape:pageopacity="0.0"
     inkscape:pagecheckerboard="0"
     inkscape:deskcolor="#d1d1d1"
     inkscape:zoom="7.3025986"
     inkscape:cx="97.43107"
     inkscape:cy="89.762567"
     inkscape:window-width="2560"
     inkscape:window-height="1369"
     inkscape:window-x="-8"
     inkscape:window-y="-8"
     inkscape:window-maximized="1"
     inkscape:current-layer="g1"
     showguides="true" /><g
     inkscape:groupmode="layer"
     inkscape:label="Image"
     id="g1"
     style="stroke:#000000;stroke-opacity:1"><path
       style="font-size:44.2287px;line-height:0;font-family:Bosch;-inkscape-font-specification:Bosch;letter-spacing:-0.819534px;stroke:#000000;stroke-width:1.65857;stroke-linejoin:round;stroke-opacity:1"
       d="m 68.776341,173.40786 h 12.886097 v -19.51761 z m 12.886097,2.22409 H 66.362892 v -2.67799 l 15.127156,-22.64951 h 2.628937 v 23.10341 h 4.266633 v 2.22409 h -4.266633 v 7.1262 h -2.456547 z m 18.638292,7.48932 q -2.154866,0 -3.835662,-0.63546 -1.680795,-0.63545 -2.930616,-1.67942 -1.206726,-1.08935 -1.982477,-2.49644 -0.775752,-1.40708 -1.163627,-2.90495 l 2.24106,-0.63545 q 0.301681,1.13475 0.861946,2.2241 0.603363,1.08935 1.508406,1.95176 0.905043,0.8624 2.197963,1.40708 1.292919,0.54468 3.103007,0.54468 3.40469,0 5.30097,-2.26949 1.89628,-2.26949 1.89628,-6.30918 0,-1.86098 -0.51717,-3.40423 -0.47407,-1.58865 -1.37911,-2.67801 -0.90504,-1.13473 -2.24106,-1.7702 -1.29292,-0.63545 -2.88752,-0.63545 -2.499645,0 -4.008052,1.08935 -1.465308,1.08936 -2.413449,2.54183 h -2.154866 l 1.379115,-17.15734 h 15.342642 v 2.36027 H 95.344538 L 94.3533,164.55684 q 0.861947,-1.08935 2.456547,-1.99714 1.637699,-0.95319 3.921853,-0.95319 1.98248,0 3.66327,0.77162 1.7239,0.72624 2.97372,2.13332 1.29292,1.3617 1.98247,3.35885 0.73266,1.95176 0.73266,4.40281 0,2.54183 -0.73266,4.53898 -0.73265,1.99715 -2.06867,3.40423 -1.29292,1.40708 -3.103,2.17871 -1.76699,0.72624 -3.87876,0.72624 z m 19.88817,-21.46938 q 1.89628,0 3.01681,-1.3163 1.12053,-1.36169 1.12053,-3.58578 0,-2.13332 -1.16363,-3.54041 -1.12053,-1.40708 -2.97371,-1.40708 -1.85319,0 -2.97372,1.36169 -1.12053,1.3163 -1.12053,3.44962 0,2.22411 1.12053,3.63119 1.12053,1.40707 2.97372,1.40707 z m 0,1.90638 q -1.29292,0 -2.41345,-0.49929 -1.12053,-0.54467 -1.98248,-1.45247 -0.81885,-0.9078 -1.33601,-2.17871 -0.47407,-1.27091 -0.47407,-2.72338 0,-1.45248 0.47407,-2.67801 0.51716,-1.27091 1.33601,-2.1787 0.86195,-0.9078 1.98248,-1.40708 1.12053,-0.54469 2.41345,-0.54469 1.29292,0 2.41345,0.54469 1.16363,0.49928 1.98247,1.45246 0.86195,0.9078 1.33602,2.17871 0.47407,1.22553 0.47407,2.67801 0,1.49785 -0.47407,2.76877 -0.47407,1.22552 -1.33602,2.13331 -0.81884,0.90781 -1.98247,1.40709 -1.12053,0.49929 -2.41345,0.49929 z"
       id="text4"
       aria-label="45°" /><g
       id="g11"
       inkscape:label="icon"
       style="fill:none;fill-opacity:1;stroke:#000000;stroke-opacity:1"><g
         id="g3"
         inkscape:label="clock"
         transform="translate(-0.27387511,-7.9423781)"
         style="stroke:#000000;stroke-opacity:1;fill:none;fill-opacity:1"><path
           id="path2"
           style="display:inline;fill:none;stroke:#000000;stroke-width:3.81381;stroke-linecap:round;stroke-linejoin:round;stroke-opacity:1;fill-opacity:1"
           d="M 73.00316,124.18429 C 60.719143,119.81981 49.075413,107.98808 49.075413,90.640633 c 0,-19.611862 15.898556,-35.510417 35.510418,-35.510418 14.83289,-10e-7 27.541689,9.094349 32.854619,22.011293"
           sodipodi:nodetypes="cssc" /><path
           style="display:inline;fill:none;stroke:#000000;stroke-width:3.5;stroke-linecap:round;stroke-linejoin:round;stroke-opacity:1;fill-opacity:1"
           d="M 76.240709,48.307187 76.241,42.83 92.125466,42.829685 92.125,48.307"
           id="path3"
           sodipodi:nodetypes="cccc" /><path
           style="display:inline;fill:none;stroke:#000000;stroke-width:3.5;stroke-linecap:round;stroke-linejoin:round;stroke-opacity:1;fill-opacity:1"
           d="m 109.29637,54.871103 3.821,-3.924215 11.38148,11.080538 -3.82122,3.924181"
           id="path3-2"
           sodipodi:nodetypes="cccc" /><path
           style="display:inline;fill:none;stroke:#000000;stroke-width:3.5;stroke-linecap:round;stroke-linejoin:round;stroke-opacity:1;fill-opacity:1"
           d="m 84.353534,68.194902 v 23.00551 l 16.706386,-0.273875"
           id="path1" /></g><g
         id="g10"
         inkscape:label="cup"
         style="stroke:#000000;stroke-opacity:1;fill:none;fill-opacity:1"><path
           id="rect5"
           style="display:inline;fill:none;stroke:#000000;stroke-width:3.8845;stroke-linecap:round;stroke-linejoin:round;stroke-opacity:1;fill-opacity:1"
           d="m 91.156008,98.598251 h 7.694814 c 8.053028,0 7.120748,-1.34308 7.120748,7.120749 v 8.24257 c 0,3.9449 -3.17585,7.12075 -7.120748,7.12075 h -7.694814 c -3.944897,0 -7.120753,-3.17585 -7.120753,-7.12075 V 105.719 c 0,-7.916079 -1.069208,-7.120749 7.120753,-7.120749 z"
           sodipodi:nodetypes="sssssssss" /><path
           id="path5"
           style="display:inline;fill:none;stroke:#000000;stroke-width:3.38138;stroke-linecap:round;stroke-linejoin:round;stroke-opacity:1;fill-opacity:1"
           d="m 105.94481,102.97359 c 1.17794,-0.81252 2.60605,-1.28831 4.14529,-1.28831 4.03682,0 7.30931,3.27249 7.30931,7.30931 0,4.03682 -3.27249,7.30931 -7.30931,7.30931 -1.63195,0 -3.13898,-0.53482 -4.35538,-1.43876"
           sodipodi:nodetypes="csssc" /></g><g
         id="g9"
         style="display:inline;stroke:#000000;stroke-opacity:1;fill:none;fill-opacity:1"
         inkscape:label="glass"><path
           id="path7"
           style="fill:none;stroke:#000000;stroke-width:4.45046;stroke-linecap:round;stroke-linejoin:round;stroke-opacity:1;fill-opacity:1"
           d="m 141.27424,75.656231 c 2.12951,2.507458 2.3637,6.754569 2.3637,10.594547 0,7.644187 -5.22536,13.841032 -11.67117,13.841032 -6.44581,0 -11.67118,-6.19684 -11.67118,-13.841032 0,-3.9029 0.27776,-7.891919 2.46903,-10.40808 z"
           sodipodi:nodetypes="csssc" /><path
           style="fill:none;stroke:#000000;stroke-width:3.49569;stroke-linecap:round;stroke-linejoin:round;stroke-opacity:1;fill-opacity:1"
           d="m 132.03739,100.23613 -0.14126,19.9972"
           id="path8" /><path
           style="fill:none;stroke:#000000;stroke-width:3.5;stroke-linecap:round;stroke-linejoin:round;stroke-opacity:1;fill-opacity:1"
           d="m 121.55951,121.32667 20.81451,-0.13693"
           id="path9" /></g></g></g></svg>
