<?xml version="1.0" encoding="UTF-8" standalone="no"?>
<!-- Created with Inkscape (http://www.inkscape.org/) -->

<svg
   version="1.1"
   id="svg1"
   width="24"
   height="24"
   viewBox="0 0 24 24"
   sodipodi:docname="Express_45.svg"
   inkscape:version="1.4.2 (f4327f4, 2025-05-13)"
   xml:space="preserve"
   xmlns:inkscape="http://www.inkscape.org/namespaces/inkscape"
   xmlns:sodipodi="http://sodipodi.sourceforge.net/DTD/sodipodi-0.dtd"
   xmlns="http://www.w3.org/2000/svg"
   xmlns:svg="http://www.w3.org/2000/svg"><defs
     id="defs1" /><sodipodi:namedview
     id="namedview1"
     pagecolor="#ffffff"
     bordercolor="#000000"
     borderopacity="0.25"
     inkscape:showpageshadow="2"
     inkscape:pageopacity="0.0"
     inkscape:pagecheckerboard="0"
     inkscape:deskcolor="#d1d1d1"
     inkscape:zoom="29.210394"
     inkscape:cx="13.984748"
     inkscape:cy="14.874842"
     inkscape:window-width="2560"
     inkscape:window-height="1369"
     inkscape:window-x="-8"
     inkscape:window-y="-8"
     inkscape:window-maximized="1"
     inkscape:current-layer="g1"
     showguides="true" /><g
     inkscape:groupmode="layer"
     inkscape:label="Express_45"
     id="g1"
     style="stroke:#000000;stroke-opacity:1"
     transform="translate(0,-0.83664163)"><path
       style="font-size:44.2287px;line-height:0;font-family:Bosch;-inkscape-font-specification:Bosch;letter-spacing:-0.819534px;stroke:#000000;stroke-width:0.227013;stroke-linejoin:round;stroke-opacity:1"
       d="m 8.2219597,21.714748 h 1.7637552 v -2.67143 z m 1.7637552,0.304417 H 7.8916248 V 21.652623 L 9.9621196,18.552519 H 10.32195 v 3.162229 h 0.583986 v 0.304417 H 10.32195 v 0.975383 H 9.9857149 Z m 2.5510761,1.025086 q -0.294943,0 -0.524998,-0.08698 -0.230057,-0.08698 -0.401123,-0.229866 -0.165174,-0.149109 -0.271346,-0.341698 -0.106186,-0.192591 -0.159262,-0.397609 l 0.306739,-0.08698 q 0.04129,0.15532 0.117977,0.304419 0.08259,0.149104 0.206461,0.267144 0.123867,0.118043 0.300841,0.192591 0.176965,0.07455 0.424718,0.07455 0.466008,0 0.725559,-0.31063 0.259548,-0.310633 0.259548,-0.863556 0,-0.254717 -0.07078,-0.465947 -0.06488,-0.217443 -0.188763,-0.366546 -0.123867,-0.15532 -0.306741,-0.242292 -0.176965,-0.08698 -0.395222,-0.08698 -0.342135,0 -0.548594,0.149104 -0.200561,0.149105 -0.330336,0.347907 h -0.294942 l 0.188763,-2.348373 h 2.099991 v 0.323057 h -1.816845 l -0.135681,1.627708 q 0.117979,-0.149106 0.336236,-0.273355 0.224156,-0.130459 0.536794,-0.130459 0.271348,0 0.501403,0.105611 0.235955,0.0994 0.407021,0.291994 0.176966,0.18638 0.271346,0.459736 0.100275,0.267142 0.100275,0.602625 0,0.347908 -0.100275,0.621262 -0.100274,0.273355 -0.283144,0.465948 -0.176966,0.192589 -0.424718,0.298205 -0.241852,0.0994 -0.530895,0.0994 z m 2.72215,-2.938576 q 0.259548,0 0.412918,-0.180166 0.153367,-0.186377 0.153367,-0.490795 0,-0.291993 -0.159263,-0.484586 -0.153366,-0.19259 -0.40702,-0.19259 -0.25365,0 -0.407021,0.186378 -0.153366,0.180166 -0.153366,0.47216 0,0.304419 0.153366,0.49701 0.153367,0.192589 0.407021,0.192589 z m 0,0.260932 q -0.176967,0 -0.330337,-0.06834 -0.153367,-0.07455 -0.271348,-0.198805 -0.112078,-0.124253 -0.182862,-0.298206 -0.06489,-0.173954 -0.06489,-0.372756 0,-0.198806 0.06489,-0.366548 0.07078,-0.173953 0.182862,-0.298204 0.117979,-0.124266 0.271348,-0.192591 0.153366,-0.07455 0.330337,-0.07455 0.176964,0 0.330334,0.07455 0.159262,0.06834 0.271347,0.198801 0.117979,0.124266 0.182863,0.298207 0.06489,0.167751 0.06489,0.366546 0,0.205017 -0.06489,0.378971 -0.06488,0.167735 -0.182863,0.291991 -0.112078,0.124253 -0.271347,0.192594 -0.153366,0.06834 -0.330334,0.06834 z"
       id="text4"
       aria-label="45°" /><g
       id="g11"
       inkscape:label="icon"
       style="fill:none;fill-opacity:1;stroke:#000000;stroke-opacity:1"
       transform="matrix(0.13687279,0,0,0.13687279,-1.1916491,-2.0200699)"><g
         id="g3"
         inkscape:label="clock"
         transform="translate(-0.27387511,-7.9423781)"
         style="fill:none;fill-opacity:1;stroke:#000000;stroke-opacity:1"><path
           id="path2"
           style="display:inline;fill:none;fill-opacity:1;stroke:#000000;stroke-width:3.81381;stroke-linecap:round;stroke-linejoin:round;stroke-opacity:1"
           d="M 73.00316,124.18429 C 60.719143,119.81981 49.075413,107.98808 49.075413,90.640633 c 0,-19.611862 15.898556,-35.510417 35.510418,-35.510418 14.83289,-10e-7 27.541689,9.094349 32.854619,22.011293"
           sodipodi:nodetypes="cssc" /><path
           style="display:inline;fill:none;fill-opacity:1;stroke:#000000;stroke-width:3.5;stroke-linecap:round;stroke-linejoin:round;stroke-opacity:1"
           d="M 76.240709,48.307187 76.241,42.83 92.125466,42.829685 92.125,48.307"
           id="path3"
           sodipodi:nodetypes="cccc" /><path
           style="display:inline;fill:none;fill-opacity:1;stroke:#000000;stroke-width:3.5;stroke-linecap:round;stroke-linejoin:round;stroke-opacity:1"
           d="m 109.29637,54.871103 3.821,-3.924215 11.38148,11.080538 -3.82122,3.924181"
           id="path3-2"
           sodipodi:nodetypes="cccc" /><path
           style="display:inline;fill:none;fill-opacity:1;stroke:#000000;stroke-width:3.5;stroke-linecap:round;stroke-linejoin:round;stroke-opacity:1"
           d="m 84.353534,68.194902 v 23.00551 l 16.706386,-0.273875"
           id="path1" /></g><g
         id="g10"
         inkscape:label="cup"
         style="fill:none;fill-opacity:1;stroke:#000000;stroke-opacity:1"><path
           id="rect5"
           style="display:inline;fill:none;fill-opacity:1;stroke:#000000;stroke-width:3.8845;stroke-linecap:round;stroke-linejoin:round;stroke-opacity:1"
           d="m 91.156008,98.598251 h 7.694814 c 8.053028,0 7.120748,-1.34308 7.120748,7.120749 v 8.24257 c 0,3.9449 -3.17585,7.12075 -7.120748,7.12075 h -7.694814 c -3.944897,0 -7.120753,-3.17585 -7.120753,-7.12075 V 105.719 c 0,-7.916079 -1.069208,-7.120749 7.120753,-7.120749 z"
           sodipodi:nodetypes="sssssssss" /><path
           id="path5"
           style="display:inline;fill:none;fill-opacity:1;stroke:#000000;stroke-width:3.38138;stroke-linecap:round;stroke-linejoin:round;stroke-opacity:1"
           d="m 105.94481,102.97359 c 1.17794,-0.81252 2.60605,-1.28831 4.14529,-1.28831 4.03682,0 7.30931,3.27249 7.30931,7.30931 0,4.03682 -3.27249,7.30931 -7.30931,7.30931 -1.63195,0 -3.13898,-0.53482 -4.35538,-1.43876"
           sodipodi:nodetypes="csssc" /></g><g
         id="g9"
         style="display:inline;fill:none;fill-opacity:1;stroke:#000000;stroke-opacity:1"
         inkscape:label="glass"><path
           id="path7"
           style="fill:none;fill-opacity:1;stroke:#000000;stroke-width:4.45046;stroke-linecap:round;stroke-linejoin:round;stroke-opacity:1"
           d="m 141.27424,75.656231 c 2.12951,2.507458 2.3637,6.754569 2.3637,10.594547 0,7.644187 -5.22536,13.841032 -11.67117,13.841032 -6.44581,0 -11.67118,-6.19684 -11.67118,-13.841032 0,-3.9029 0.27776,-7.891919 2.46903,-10.40808 z"
           sodipodi:nodetypes="csssc" /><path
           style="fill:none;fill-opacity:1;stroke:#000000;stroke-width:3.49569;stroke-linecap:round;stroke-linejoin:round;stroke-opacity:1"
           d="m 132.03739,100.23613 -0.14126,19.9972"
           id="path8" /><path
           style="fill:none;fill-opacity:1;stroke:#000000;stroke-width:3.5;stroke-linecap:round;stroke-linejoin:round;stroke-opacity:1"
           d="m 121.55951,121.32667 20.81451,-0.13693"
           id="path9" /></g></g></g></svg>
