<?xml version="1.0" encoding="UTF-8" standalone="no"?>
<!-- Created with Inkscape (http://www.inkscape.org/) -->

<svg
   version="1.1"
   id="svg1"
   width="24"
   height="24"
   viewBox="0 0 24 24"
   sodipodi:docname="Express_45.svg"
   inkscape:version="1.4.2 (f4327f4, 2025-05-13)"
   xml:space="preserve"
   xmlns:inkscape="http://www.inkscape.org/namespaces/inkscape"
   xmlns:sodipodi="http://sodipodi.sourceforge.net/DTD/sodipodi-0.dtd"
   xmlns="http://www.w3.org/2000/svg"
   xmlns:svg="http://www.w3.org/2000/svg"><defs
     id="defs1" /><sodipodi:namedview
     id="namedview1"
     pagecolor="#ffffff"
     bordercolor="#000000"
     borderopacity="0.25"
     inkscape:showpageshadow="2"
     inkscape:pageopacity="0.0"
     inkscape:pagecheckerboard="0"
     inkscape:deskcolor="#d1d1d1"
     inkscape:zoom="29.210394"
     inkscape:cx="13.984748"
     inkscape:cy="14.874842"
     inkscape:window-width="2560"
     inkscape:window-height="1369"
     inkscape:window-x="-8"
     inkscape:window-y="-8"
     inkscape:window-maximized="1"
     inkscape:current-layer="g1"
     showguides="true" /><g
     inkscape:groupmode="layer"
     inkscape:label="Express_45"
     id="g1"
     style="stroke:#000000;stroke-opacity:1"
     transform="translate(0,-0.83664163)"><path
       style="font-size:44.2287px;line-height:0;font-family:Bosch;-inkscape-font-specification:Bosch;letter-spacing:-0.819534px;stroke:#000000;stroke-width:0.266254;stroke-linejoin:round;stroke-opacity:1"
       d="m 7.5688895,21.144196 h 2.0686363 v -3.133211 z m 2.0686363,0.357038 H 7.1814532 v -0.429902 l 2.4283986,-3.635985 h 0.4220312 v 3.708849 h 0.684933 v 0.357038 h -0.684933 v 1.143987 H 9.6375258 Z m 2.9920532,1.202281 q -0.345927,0 -0.615749,-0.102015 -0.269824,-0.102015 -0.47046,-0.2696 -0.193726,-0.174884 -0.318251,-0.400764 -0.124541,-0.225882 -0.186792,-0.466339 l 0.359762,-0.102016 q 0.04843,0.182169 0.13837,0.357041 0.09687,0.174878 0.24215,0.313322 0.145278,0.138448 0.352844,0.225882 0.207555,0.08744 0.498134,0.08744 0.546562,0 0.850979,-0.364325 0.304413,-0.364329 0.304413,-1.01283 0,-0.298747 -0.08301,-0.54649 -0.0761,-0.25503 -0.221392,-0.429907 -0.145279,-0.182168 -0.359764,-0.284174 -0.207555,-0.102015 -0.46354,-0.102015 -0.401276,0 -0.643424,0.174878 -0.235229,0.174879 -0.387437,0.408045 h -0.345926 l 0.221393,-2.75431 h 2.462993 v 0.3789 h -2.130903 l -0.159135,1.909072 q 0.138373,-0.17488 0.394358,-0.320607 0.262903,-0.15301 0.629584,-0.15301 0.318253,0 0.588075,0.123867 0.276742,0.116582 0.477378,0.342468 0.207556,0.218598 0.318251,0.539206 0.117608,0.31332 0.117608,0.706794 0,0.408047 -0.117608,0.728653 -0.117608,0.320607 -0.332088,0.546491 -0.207557,0.22588 -0.498135,0.349752 -0.283658,0.116583 -0.622665,0.116583 z m 3.192698,-3.446535 q 0.304414,0 0.484295,-0.21131 0.179878,-0.218594 0.179878,-0.575633 0,-0.342467 -0.186793,-0.568351 -0.179877,-0.225881 -0.477377,-0.225881 -0.297496,0 -0.477379,0.218595 -0.179876,0.211309 -0.179876,0.553777 0,0.357041 0.179876,0.582923 0.179878,0.22588 0.477379,0.22588 z m 0,0.306036 q -0.207557,0 -0.387438,-0.08015 -0.179878,-0.08744 -0.318253,-0.23317 -0.131452,-0.145732 -0.214472,-0.349754 -0.07611,-0.204023 -0.07611,-0.43719 0,-0.233172 0.07611,-0.429909 0.08301,-0.204023 0.214472,-0.349752 0.138372,-0.145746 0.318253,-0.225882 0.179876,-0.08744 0.387438,-0.08744 0.207554,0 0.387436,0.08744 0.186792,0.08015 0.318251,0.233166 0.138373,0.145746 0.214473,0.349755 0.07611,0.196748 0.07611,0.429906 0,0.240457 -0.07611,0.44448 -0.07609,0.19673 -0.214473,0.342464 -0.131451,0.145732 -0.318251,0.225886 -0.179877,0.08015 -0.387436,0.08015 z"
       id="text4"
       aria-label="45°" /><g
       id="g11"
       inkscape:label="icon"
       style="fill:none;fill-opacity:1;stroke:#000000;stroke-opacity:1"
       transform="matrix(0.13342323,0,0,0.13342323,-0.82723565,-1.5846449)"><g
         id="g3"
         inkscape:label="clock"
         transform="translate(-0.27387511,-7.9423781)"
         style="fill:none;fill-opacity:1;stroke:#000000;stroke-opacity:1"><path
           id="path2"
           style="display:inline;fill:none;fill-opacity:1;stroke:#000000;stroke-width:3.81381;stroke-linecap:round;stroke-linejoin:round;stroke-opacity:1"
           d="M 73.00316,124.18429 C 60.719143,119.81981 49.075413,107.98808 49.075413,90.640633 c 0,-19.611862 15.898556,-35.510417 35.510418,-35.510418 14.83289,-10e-7 27.541689,9.094349 32.854619,22.011293"
           sodipodi:nodetypes="cssc" /><path
           style="display:inline;fill:none;fill-opacity:1;stroke:#000000;stroke-width:3.5;stroke-linecap:round;stroke-linejoin:round;stroke-opacity:1"
           d="M 76.240709,48.307187 76.241,42.83 92.125466,42.829685 92.125,48.307"
           id="path3"
           sodipodi:nodetypes="cccc" /><path
           style="display:inline;fill:none;fill-opacity:1;stroke:#000000;stroke-width:3.5;stroke-linecap:round;stroke-linejoin:round;stroke-opacity:1"
           d="m 109.29637,54.871103 3.821,-3.924215 11.38148,11.080538 -3.82122,3.924181"
           id="path3-2"
           sodipodi:nodetypes="cccc" /><path
           style="display:inline;fill:none;fill-opacity:1;stroke:#000000;stroke-width:3.5;stroke-linecap:round;stroke-linejoin:round;stroke-opacity:1"
           d="m 84.353534,68.194902 v 23.00551 l 16.706386,-0.273875"
           id="path1" /></g><g
         id="g10"
         inkscape:label="cup"
         style="fill:none;fill-opacity:1;stroke:#000000;stroke-opacity:1"><path
           id="rect5"
           style="display:inline;fill:none;fill-opacity:1;stroke:#000000;stroke-width:3.49265;stroke-linecap:round;stroke-linejoin:round;stroke-dasharray:none;stroke-opacity:1"
           d="m 91.156008,98.598251 h 7.694814 c 8.053028,0 7.120748,-1.34308 7.120748,7.120749 v 8.24257 c 0,3.9449 -3.17585,7.12075 -7.120748,7.12075 h -7.694814 c -3.944897,0 -7.120753,-3.17585 -7.120753,-7.12075 V 105.719 c 0,-7.916079 -1.069208,-7.120749 7.120753,-7.120749 z"
           sodipodi:nodetypes="sssssssss" /><path
           id="path5"
           style="display:inline;fill:none;fill-opacity:1;stroke:#000000;stroke-width:3.38022;stroke-linecap:round;stroke-linejoin:round;stroke-dasharray:none;stroke-opacity:1"
           d="m 105.94481,102.97359 c 1.17794,-0.81252 2.60605,-1.28831 4.14529,-1.28831 4.03682,0 7.30931,3.27249 7.30931,7.30931 0,4.03682 -3.27249,7.30931 -7.30931,7.30931 -1.63195,0 -3.13898,-0.53482 -4.35538,-1.43876"
           sodipodi:nodetypes="csssc" /></g><g
         id="g9"
         style="display:inline;fill:none;fill-opacity:1;stroke:#000000;stroke-opacity:1"
         inkscape:label="glass"><path
           id="path7"
           style="fill:none;fill-opacity:1;stroke:#000000;stroke-width:3.49265;stroke-linecap:round;stroke-linejoin:round;stroke-dasharray:none;stroke-opacity:1"
           d="m 141.27424,75.656231 c 2.12951,2.507458 2.3637,6.754569 2.3637,10.594547 0,7.644187 -5.22536,13.841032 -11.67117,13.841032 -6.44581,0 -11.67118,-6.19684 -11.67118,-13.841032 0,-3.9029 0.27776,-7.891919 2.46903,-10.40808 z"
           sodipodi:nodetypes="csssc" /><path
           style="display:inline;fill:none;fill-opacity:1;stroke:#000000;stroke-width:3.49569;stroke-linecap:round;stroke-linejoin:round;stroke-opacity:1"
           d="m 132.03739,100.23613 -0.14126,19.9972"
           id="path8" /><path
           style="display:inline;fill:none;fill-opacity:1;stroke:#000000;stroke-width:3.5;stroke-linecap:round;stroke-linejoin:round;stroke-opacity:1"
           d="m 121.55951,121.32667 20.81451,-0.13693"
           id="path9" /></g></g></g></svg>
