<?xml version="1.0" encoding="UTF-8" standalone="no"?>
<!-- Created with Inkscape (http://www.inkscape.org/) -->

<svg
   version="1.1"
   id="svg1"
   width="24"
   height="24"
   viewBox="0 0 24 24"
   sodipodi:docname="Favourite.svg"
   inkscape:version="1.4.2 (f4327f4, 2025-05-13)"
   xml:space="preserve"
   xmlns:inkscape="http://www.inkscape.org/namespaces/inkscape"
   xmlns:sodipodi="http://sodipodi.sourceforge.net/DTD/sodipodi-0.dtd"
   xmlns="http://www.w3.org/2000/svg"
   xmlns:svg="http://www.w3.org/2000/svg"><defs
     id="defs1" /><sodipodi:namedview
     id="namedview1"
     pagecolor="#ffffff"
     bordercolor="#000000"
     borderopacity="0.25"
     inkscape:showpageshadow="2"
     inkscape:pageopacity="0.0"
     inkscape:pagecheckerboard="0"
     inkscape:deskcolor="#d1d1d1"
     inkscape:zoom="29.210394"
     inkscape:cx="19.359547"
     inkscape:cy="16.620796"
     inkscape:window-width="2560"
     inkscape:window-height="1369"
     inkscape:window-x="-8"
     inkscape:window-y="-8"
     inkscape:window-maximized="1"
     inkscape:current-layer="g1"
     showguides="true"><sodipodi:guide
       position="62.939158,190.07626"
       orientation="0,-1"
       id="guide1"
       inkscape:locked="false" /></sodipodi:namedview><g
     inkscape:groupmode="layer"
     inkscape:label="Favourite"
     id="g1"
     transform="matrix(0.13475714,0,0,0.13475714,-1.9199912,-2.6684167)"><path
       style="font-size:44.2287px;line-height:0;font-family:Bosch;-inkscape-font-specification:Bosch;letter-spacing:-0.819534px;stroke:#000000;stroke-width:1.65479;stroke-linejoin:round"
       d="m 22.613998,149.48882 h 18.317658 v 2.26433 H 25.064953 v 13.3595 H 38.05071 v 2.21904 H 25.064953 v 14.53696 h -2.450955 z m 27.023739,30.61365 q 1.332975,0 2.536952,-0.45286 1.203978,-0.45286 2.106962,-1.22274 0.945981,-0.76986 1.504971,-1.81145 0.558989,-1.04159 0.644987,-2.26433 v -4.3475 l -1.246976,0.0453 q -2.321957,0.13586 -4.256921,0.45286 -1.891965,0.317 -3.267939,0.9963 -1.332975,0.63402 -2.063961,1.6756 -0.730987,1.04159 -0.730987,2.62662 0,1.81146 1.160979,3.07948 1.203977,1.22274 3.611933,1.22274 z m -0.300995,2.12846 q -1.504971,0 -2.751949,-0.45285 -1.246977,-0.45287 -2.192958,-1.26803 -0.945984,-0.86044 -1.461973,-2.03789 -0.51599,-1.17744 -0.51599,-2.62662 0,-2.21903 0.988982,-3.62291 1.03198,-1.44917 2.751947,-2.30961 1.719968,-0.90573 3.998926,-1.26803 2.278956,-0.40757 4.772911,-0.54344 l 1.504971,-0.0906 v -2.35489 q 0,-2.98891 -1.246976,-4.30221 -1.203978,-1.31331 -3.568933,-1.31331 -2.149961,0 -3.783929,0.90573 -1.633971,0.86044 -3.009944,2.26432 l -1.504973,-1.6756 q 1.504973,-1.63031 3.525935,-2.6719 2.020961,-1.04159 4.858909,-1.04159 1.461972,0 2.751948,0.45287 1.332976,0.40758 2.321957,1.35859 0.988981,0.90573 1.547971,2.40018 0.558989,1.49445 0.558989,3.6682 v 11.59334 q 0,1.3586 0.64499,2.08317 0.644987,0.6793 2.149959,0.54344 v 2.08318 q -2.278957,0.22643 -3.611933,-0.72458 -1.289976,-0.9963 -1.59097,-2.94362 -1.160979,1.85674 -3.052943,2.89834 -1.848966,0.99629 -4.084924,0.99629 z m 12.403957,-24.04711 h 2.665951 l 6.707874,20.78649 6.578878,-20.78649 h 2.579952 l -7.825856,23.68483 H 69.652551 Z M 91.73137,180.0119 q 1.676963,0 3.052943,-0.67929 1.418973,-0.72459 2.364954,-2.03789 0.988983,-1.31332 1.504966,-3.12477 0.558995,-1.85675 0.558995,-4.12107 0,-2.30961 -0.558995,-4.16635 -0.515983,-1.85675 -1.504966,-3.12477 -0.988983,-1.31331 -2.364954,-1.99261 -1.37598,-0.72458 -3.052943,-0.72458 -1.719976,0 -3.095936,0.72458 -1.375981,0.6793 -2.364964,1.99261 -0.988983,1.26802 -1.547978,3.12477 -0.515982,1.85674 -0.515982,4.16635 0,4.57393 2.020958,7.29112 2.020969,2.6719 5.503902,2.6719 z m -0.043,2.21903 q -2.149955,0 -3.998926,-0.86043 -1.805969,-0.86045 -3.138937,-2.44547 -1.332979,-1.63031 -2.106963,-3.84935 -0.773984,-2.26433 -0.773984,-5.07209 0,-2.80776 0.773984,-5.0268 0.773984,-2.26432 2.106963,-3.84934 1.37597,-1.58503 3.224931,-2.44547 1.848971,-0.86045 3.955934,-0.86045 2.106962,0 3.912921,0.86045 1.848971,0.86044 3.18195,2.49075 1.375967,1.58503 2.149957,3.84935 0.77398,2.21904 0.77398,4.98151 0,2.80776 -0.77398,5.07209 -0.77399,2.26432 -2.149957,3.84935 -1.332979,1.58502 -3.18195,2.44547 -1.848961,0.86043 -3.955923,0.86043 z m 21.60582,0 q -1.54797,0 -2.92395,-0.49814 -1.37597,-0.49815 -2.36495,-1.53975 -0.98899,-1.08687 -1.59097,-2.76246 -0.55899,-1.7209 -0.55899,-4.12108 v -15.12568 h 2.45095 v 15.26154 q 0,3.3512 1.41897,4.93623 1.46199,1.53973 4.08493,1.53973 1.28998,0 2.45095,-0.45285 1.20398,-0.45287 2.06397,-1.3586 0.90298,-0.90573 1.41897,-2.30961 0.55899,-1.40388 0.55899,-3.30592 v -14.31052 h 2.45095 v 23.68483 h -2.45095 v -4.0305 q -0.85998,1.90204 -2.62295,3.17005 -1.71997,1.22273 -4.38592,1.22273 z m 15.88691,-24.04711 h 2.45096 v 4.21164 q 0.81697,-1.85674 2.32195,-3.17004 1.50496,-1.3586 3.69792,-1.3586 1.97797,0 3.39694,0.90573 l -1.07498,2.21904 q -0.51599,-0.31701 -1.07497,-0.49816 -0.559,-0.22643 -1.54798,-0.22643 -0.94598,0 -1.97796,0.45287 -0.98898,0.40758 -1.84896,1.44916 -0.817,0.99631 -1.37598,2.62662 -0.51598,1.63031 -0.51598,3.9852 v 13.0878 h -2.45096 z m 16.3169,-6.24953 q -0.73098,0 -1.24698,-0.54344 -0.47299,-0.54343 -0.47299,-1.3133 0,-0.76987 0.47299,-1.26802 0.516,-0.54344 1.24698,-0.54344 0.73098,0 1.20398,0.54344 0.51598,0.49815 0.51598,1.26802 0,0.76987 -0.51598,1.3133 -0.473,0.54344 -1.20398,0.54344 z m -1.16097,6.24953 h 2.45095 v 23.68483 h -2.45095 z m 6.34113,0 h 3.35394 v -6.47596 l 2.45095,-0.54343 v 7.01939 h 5.89089 v 2.21904 h -5.89089 v 15.94084 q 0,1.72088 0.77399,2.71719 0.77398,0.95101 2.27896,0.95101 1.07497,0 1.76296,-0.317 0.68798,-0.31701 1.20399,-0.6793 l 0.98898,1.85674 q -0.64499,0.49816 -1.59098,0.95102 -0.90298,0.40757 -2.40796,0.40757 -2.49394,0 -3.99892,-1.49445 -1.46197,-1.53973 -1.46197,-4.12106 v -16.21256 h -3.35394 z m 24.18576,1.85675 q -2.92395,0 -4.81591,2.12846 -1.84897,2.12846 -2.27895,5.84196 h 13.71673 q -0.21499,-3.93993 -1.89196,-5.93253 -1.67696,-2.03789 -4.72991,-2.03789 z m 0.42999,22.19036 q -2.23595,0 -4.08492,-0.81515 -1.84896,-0.86044 -3.22494,-2.44547 -1.33298,-1.58502 -2.10695,-3.84934 -0.73099,-2.26434 -0.73099,-5.07209 0,-2.80776 0.73099,-5.07209 0.73097,-2.26432 2.02095,-3.84934 1.33297,-1.58503 3.09594,-2.44547 1.80597,-0.86045 3.86993,-0.86045 1.89197,0 3.52594,0.72459 1.67697,0.6793 2.92394,2.12846 1.24698,1.40388 1.93497,3.57763 0.73098,2.17375 0.73098,5.07208 v 0.86045 h -16.29669 q 0,4.66451 1.93496,7.24584 1.97796,2.58132 5.71889,2.58132 1.33298,0 2.32196,-0.317 1.03198,-0.36229 1.76297,-0.95102 0.77399,-0.58873 1.33297,-1.35859 0.55899,-0.81516 0.98899,-1.72089 l 2.02095,1.17745 q -0.51598,1.08687 -1.28997,2.08318 -0.73098,0.99629 -1.76296,1.72088 -1.03199,0.72459 -2.40796,1.17745 -1.33298,0.40757 -3.00995,0.40757 z"
       id="text4"
       aria-label="Favourite" /><path
       id="path1"
       style="fill:none;stroke:#000000;stroke-width:4.13661;stroke-linecap:round;stroke-linejoin:round"
       inkscape:transform-center-x="-1.5651012e-06"
       inkscape:transform-center-y="-4.4822658"
       d="m 103.29688,36.711025 10.4842,32.508643 34.15735,-0.07465 -27.67776,20.016789 10.62621,32.462503 -27.59,-20.13759 -27.590005,20.13758 10.626206,-32.462497 -27.677761,-20.01679 34.157353,0.07466 z" /></g></svg>
