<?xml version="1.0" encoding="UTF-8" standalone="no"?>
<!-- Created with Inkscape (http://www.inkscape.org/) -->

<svg
   version="1.1"
   id="svg1"
   width="200"
   height="200"
   viewBox="0 0 200 200"
   sodipodi:docname="Favourite.svg"
   inkscape:version="1.4.2 (f4327f4, 2025-05-13)"
   xml:space="preserve"
   xmlns:inkscape="http://www.inkscape.org/namespaces/inkscape"
   xmlns:sodipodi="http://sodipodi.sourceforge.net/DTD/sodipodi-0.dtd"
   xmlns="http://www.w3.org/2000/svg"
   xmlns:svg="http://www.w3.org/2000/svg"><defs
     id="defs1" /><sodipodi:namedview
     id="namedview1"
     pagecolor="#ffffff"
     bordercolor="#000000"
     borderopacity="0.25"
     inkscape:showpageshadow="2"
     inkscape:pageopacity="0.0"
     inkscape:pagecheckerboard="0"
     inkscape:deskcolor="#d1d1d1"
     inkscape:zoom="5.163717"
     inkscape:cx="42.508139"
     inkscape:cy="128.29905"
     inkscape:window-width="2560"
     inkscape:window-height="1369"
     inkscape:window-x="-8"
     inkscape:window-y="-8"
     inkscape:window-maximized="1"
     inkscape:current-layer="g1"
     showguides="true"><sodipodi:guide
       position="62.939158,190.07626"
       orientation="0,-1"
       id="guide1"
       inkscape:locked="false" /></sodipodi:namedview><g
     inkscape:groupmode="layer"
     inkscape:label="Favourite"
     id="g1"><path
       style="font-size:44.2287px;line-height:0;font-family:Bosch;-inkscape-font-specification:Bosch;letter-spacing:-0.819534px;stroke:#000000;stroke-width:1.65857;stroke-linejoin:round"
       d="m 22.429897,149.41222 h 18.359455 v 2.26949 H 24.886444 v 13.38999 h 13.015388 v 2.2241 H 24.886444 v 14.57013 h -2.456547 z m 27.085401,30.6835 q 1.336017,0 2.542741,-0.45389 1.206725,-0.4539 2.111769,-1.22553 0.94814,-0.77162 1.508405,-1.81559 0.560265,-1.04396 0.646459,-2.26949 v -4.35742 l -1.249821,0.0454 q -2.327255,0.13617 -4.266634,0.45389 -1.896282,0.31773 -3.275396,0.99858 -1.336017,0.63546 -2.068671,1.67942 -0.732655,1.04397 -0.732655,2.63261 0,1.8156 1.163628,3.08651 1.206725,1.22553 3.620175,1.22553 z m -0.301682,2.13332 q -1.508405,0 -2.758228,-0.45389 -1.249822,-0.4539 -2.197962,-1.27092 -0.948142,-0.8624 -1.465309,-2.04254 -0.517167,-1.18013 -0.517167,-2.63261 0,-2.2241 0.991238,-3.63118 1.034335,-1.45248 2.758227,-2.31488 1.723892,-0.9078 4.00805,-1.27092 2.284157,-0.4085 4.783802,-0.54468 l 1.508405,-0.0908 v -2.36026 q 0,-2.99573 -1.249821,-4.31203 -1.206725,-1.31631 -3.577077,-1.31631 -2.154866,0 -3.792563,0.9078 -1.637699,0.8624 -3.016812,2.26949 l -1.508407,-1.67943 q 1.508407,-1.63403 3.533981,-2.67799 2.025572,-1.04397 4.869996,-1.04397 1.465308,0 2.758227,0.4539 1.336017,0.40851 2.327255,1.36169 0.991238,0.9078 1.551503,2.40566 0.560265,1.49786 0.560265,3.67657 v 11.61979 q 0,1.3617 0.646461,2.08793 0.646459,0.68085 2.154865,0.54468 v 2.08793 q -2.284157,0.22695 -3.620174,-0.72623 -1.29292,-0.99858 -1.594601,-2.95034 -1.163628,1.86098 -3.059909,2.90495 -1.853185,0.99857 -4.094245,0.99857 z m 12.43226,-24.10198 h 2.672034 l 6.72318,20.83392 6.59389,-20.83392 h 2.585839 l -7.843713,23.73887 h -2.801325 z m 30.059103,21.87788 q 1.68079,0 3.05991,-0.68084 1.42221,-0.72624 2.37035,-2.04254 0.99124,-1.31631 1.5084,-3.1319 0.56027,-1.86098 0.56027,-4.13047 0,-2.31488 -0.56027,-4.17586 -0.51716,-1.86098 -1.5084,-3.1319 -0.99124,-1.3163 -2.37035,-1.99715 -1.37912,-0.72624 -3.05991,-0.72624 -1.7239,0 -3.103,0.72624 -1.37912,0.68085 -2.37036,1.99715 -0.99124,1.27092 -1.55151,3.1319 -0.51716,1.86098 -0.51716,4.17586 0,4.58437 2.02557,7.30776 2.02558,2.67799 5.51646,2.67799 z m -0.0431,2.2241 q -2.15486,0 -4.00805,-0.8624 -1.81009,-0.86241 -3.1461,-2.45105 -1.33602,-1.63403 -2.11177,-3.85813 -0.77575,-2.2695 -0.77575,-5.08366 0,-2.81417 0.77575,-5.03827 0.77575,-2.26949 2.11177,-3.85813 1.37911,-1.58864 3.23229,-2.45105 1.85319,-0.86241 3.96496,-0.86241 2.11177,0 3.92185,0.86241 1.85319,0.86241 3.18921,2.49644 1.379111,1.58864 2.154861,3.85813 0.77575,2.2241 0.77575,4.99288 0,2.81416 -0.77575,5.08366 -0.77575,2.26949 -2.154861,3.85813 -1.33602,1.58864 -3.18921,2.45105 -1.85318,0.8624 -3.96495,0.8624 z m 21.655121,0 q -1.5515,0 -2.93062,-0.49928 -1.37911,-0.49929 -2.37035,-1.54326 -0.99124,-1.08935 -1.5946,-2.76877 -0.56026,-1.72482 -0.56026,-4.13048 v -15.16019 h 2.45654 v 15.29636 q 0,3.35885 1.42221,4.94749 1.46532,1.54325 4.09425,1.54325 1.29292,0 2.45654,-0.45389 1.20673,-0.4539 2.06868,-1.3617 0.90504,-0.90779 1.42221,-2.31488 0.56026,-1.40708 0.56026,-3.31346 v -14.34317 h 2.45655 v 23.73887 h -2.45655 v -4.0397 q -0.86194,1.90638 -2.62893,3.17729 -1.7239,1.22552 -4.39593,1.22552 z m 15.92316,-24.10198 h 2.45655 v 4.22125 q 0.81884,-1.86098 2.32725,-3.17728 1.5084,-1.3617 3.70636,-1.3617 1.98248,0 3.40469,0.9078 l -1.07743,2.2241 q -0.51717,-0.31773 -1.07743,-0.49929 -0.56027,-0.22695 -1.55151,-0.22695 -0.94814,0 -1.98247,0.4539 -0.99124,0.40851 -1.85318,1.45247 -0.81886,0.99858 -1.37912,2.63261 -0.51716,1.63403 -0.51716,3.9943 v 13.11766 h -2.45655 z m 16.35413,-6.26379 q -0.73265,0 -1.24982,-0.54468 -0.47407,-0.54467 -0.47407,-1.3163 0,-0.77163 0.47407,-1.27091 0.51717,-0.54468 1.24982,-0.54468 0.73265,0 1.20673,0.54468 0.51716,0.49928 0.51716,1.27091 0,0.77163 -0.51716,1.3163 -0.47408,0.54468 -1.20673,0.54468 z m -1.16362,6.26379 h 2.45655 v 23.73887 h -2.45655 z m 6.3556,0 h 3.36159 v -6.49074 l 2.45655,-0.54467 v 7.03541 h 5.90433 v 2.2241 h -5.90433 v 15.97721 q 0,1.72481 0.77575,2.72339 0.77575,0.95318 2.28416,0.95318 1.07743,0 1.76699,-0.31772 0.68955,-0.31773 1.20673,-0.68085 l 0.99124,1.86098 q -0.64646,0.49929 -1.59461,0.95319 -0.90504,0.4085 -2.41345,0.4085 -2.49964,0 -4.00805,-1.49786 -1.46531,-1.54325 -1.46531,-4.13047 v -16.24955 h -3.36159 z m 24.24095,1.86098 q -2.93062,0 -4.8269,2.13332 -1.85319,2.13332 -2.28415,5.85529 h 13.74803 q -0.21548,-3.94892 -1.89628,-5.94607 -1.68079,-2.04254 -4.7407,-2.04254 z m 0.43097,22.241 q -2.24105,0 -4.09424,-0.81701 -1.85318,-0.86241 -3.2323,-2.45105 -1.33602,-1.58864 -2.11176,-3.85813 -0.73266,-2.2695 -0.73266,-5.08366 0,-2.81417 0.73266,-5.08366 0.73264,-2.26949 2.02556,-3.85813 1.33602,-1.58864 3.10301,-2.45105 1.81009,-0.86241 3.87876,-0.86241 1.89629,0 3.53398,0.72624 1.6808,0.68085 2.93062,2.13332 1.24982,1.40708 1.93938,3.58579 0.73265,2.17871 0.73265,5.08366 v 0.86241 h -16.33388 q 0,4.67515 1.93938,7.26237 1.98247,2.58721 5.73194,2.58721 1.33602,0 2.32726,-0.31772 1.03433,-0.36312 1.76699,-0.95319 0.77575,-0.59007 1.33601,-1.36169 0.56027,-0.81702 0.99125,-1.72482 l 2.02556,1.18014 q -0.51716,1.08935 -1.29292,2.08793 -0.73264,0.99857 -1.76698,1.72481 -1.03434,0.72624 -2.41345,1.18014 -1.33602,0.4085 -3.01682,0.4085 z"
       id="text4"
       aria-label="Favourite" /><path
       id="path1"
       style="fill:none;stroke:#000000;stroke-width:3.90482;stroke-linecap:round;stroke-linejoin:round"
       inkscape:transform-center-x="-1.7562388e-06"
       inkscape:transform-center-y="-4.2311113"
       d="m 103.29689,36.595158 9.89674,30.687088 32.24342,-0.07047 -26.1269,18.895189 L 129.34094,116.7505 103.29689,97.741276 77.252841,116.75049 87.28363,86.106962 61.156735,67.211771 l 32.243416,0.07048 z" /></g></svg>
