<?xml version="1.0" encoding="UTF-8" standalone="no"?>
<!-- Created with Inkscape (http://www.inkscape.org/) -->

<svg
   version="1.1"
   id="svg1"
   width="24"
   height="24"
   viewBox="0 0 24 24"
   sodipodi:docname="Glass_40.svg"
   inkscape:version="1.4.2 (f4327f4, 2025-05-13)"
   xml:space="preserve"
   xmlns:inkscape="http://www.inkscape.org/namespaces/inkscape"
   xmlns:sodipodi="http://sodipodi.sourceforge.net/DTD/sodipodi-0.dtd"
   xmlns="http://www.w3.org/2000/svg"
   xmlns:svg="http://www.w3.org/2000/svg"><defs
     id="defs1" /><sodipodi:namedview
     id="namedview1"
     pagecolor="#ffffff"
     bordercolor="#000000"
     borderopacity="0.25"
     inkscape:showpageshadow="2"
     inkscape:pageopacity="0.0"
     inkscape:pagecheckerboard="0"
     inkscape:deskcolor="#d1d1d1"
     inkscape:zoom="29.210394"
     inkscape:cx="26.17219"
     inkscape:cy="19.46225"
     inkscape:window-width="2560"
     inkscape:window-height="1369"
     inkscape:window-x="-8"
     inkscape:window-y="-8"
     inkscape:window-maximized="1"
     inkscape:current-layer="g1"
     showguides="true" /><g
     inkscape:groupmode="layer"
     inkscape:label="Glass_40"
     id="g1"
     transform="matrix(0.16135627,0,0,0.16135627,1.9541633,-6.6850881)"><path
       style="font-size:44.2287px;line-height:0;font-family:Bosch;-inkscape-font-specification:Bosch;letter-spacing:-0.819534px;stroke:#000000;stroke-width:1.6501;stroke-linejoin:round"
       d="M 32.86768,167.28598 H 45.687959 V 147.868 Z m 12.820279,2.21274 H 30.466558 V 166.8344 L 45.51645,144.30052 h 2.615508 v 22.98546 H 52.3768 v 2.21274 h -4.244842 v 7.08982 h -2.443999 z m 20.901339,5.19318 q 4.159087,0 6.3887,-3.79327 2.272491,-3.79329 2.272491,-10.56699 0,-3.25139 -0.60028,-5.87056 -0.60028,-2.61917 -1.715089,-4.47065 -1.114806,-1.85148 -2.744138,-2.84496 -1.586457,-1.03863 -3.644562,-1.03863 -2.058104,0 -3.687437,0.99347 -1.629332,0.99349 -2.787017,2.84497 -1.114807,1.85147 -1.715087,4.5158 -0.600281,2.66433 -0.600281,5.96088 0,3.38686 0.600281,6.05117 0.643157,2.66432 1.800841,4.51581 1.157685,1.80632 2.787017,2.75464 1.629333,0.94832 3.644561,0.94832 z m 0.04288,2.25791 q -2.572631,0 -4.673614,-1.17412 -2.100982,-1.21926 -3.64456,-3.38685 -1.500701,-2.16759 -2.358245,-5.19317 -0.814667,-3.0256 -0.814667,-6.72857 0,-3.74811 0.814667,-6.81887 0.814667,-3.07074 2.315367,-5.23834 1.500702,-2.16758 3.601684,-3.34169 2.100982,-1.1741 4.673613,-1.1741 2.572632,0 4.673614,1.21927 2.100982,1.1741 3.558807,3.34169 1.500701,2.16759 2.27249,5.19317 0.814667,3.0256 0.814667,6.72857 0,3.70296 -0.814667,6.77371 -0.771789,3.02558 -2.229613,5.23833 -1.457826,2.16759 -3.558807,3.38685 -2.058104,1.17412 -4.630736,1.17412 z m 21.244413,-21.35978 q 1.886596,0 3.001403,-1.30958 1.114807,-1.35475 1.114807,-3.56748 0,-2.12243 -1.157684,-3.52233 -1.114807,-1.39991 -2.958526,-1.39991 -1.843719,0 -2.958526,1.35474 -1.114807,1.30959 -1.114807,3.43202 0,2.21275 1.114807,3.61264 1.114807,1.3999 2.958526,1.3999 z m 0,1.89665 q -1.286316,0 -2.401123,-0.49674 -1.114806,-0.54189 -1.97235,-1.44506 -0.814666,-0.90317 -1.329192,-2.1676 -0.47165,-1.26442 -0.47165,-2.70947 0,-1.44507 0.47165,-2.66434 0.514526,-1.26442 1.329192,-2.16758 0.857544,-0.90316 1.97235,-1.39989 1.114807,-0.5419 2.401123,-0.5419 1.286316,0 2.401123,0.5419 1.157684,0.49673 1.97235,1.44504 0.857544,0.90318 1.329193,2.1676 0.471649,1.21927 0.471649,2.66433 0,1.49021 -0.471649,2.75464 -0.471649,1.21926 -1.329193,2.12242 -0.814666,0.90318 -1.97235,1.39991 -1.114807,0.49674 -2.401123,0.49674 z"
       id="text4"
       aria-label="40°" /><g
       id="g2"
       style="display:inline;stroke:#000000;stroke-opacity:1"
       inkscape:label="glass"
       transform="matrix(1.5125297,0,0,1.5125297,-137.34492,-57.96199)"><path
         id="path7"
         style="fill:none;stroke:#000000;stroke-width:3.49715;stroke-linecap:round;stroke-linejoin:round;stroke-dasharray:none;stroke-opacity:1"
         d="m 141.27424,75.656231 c 2.12951,2.507458 2.3637,6.754569 2.3637,10.594547 0,7.644187 -5.22536,13.841032 -11.67117,13.841032 -6.44581,0 -11.67118,-6.19684 -11.67118,-13.841032 0,-3.9029 0.27776,-7.891919 2.46903,-10.40808 z"
         sodipodi:nodetypes="csssc" /><path
         style="fill:none;stroke:#000000;stroke-width:3.49569;stroke-linecap:round;stroke-linejoin:round;stroke-opacity:1"
         d="m 132.03739,100.23613 -0.14126,19.9972"
         id="path8" /><path
         style="fill:none;stroke:#000000;stroke-width:3.5;stroke-linecap:round;stroke-linejoin:round;stroke-opacity:1"
         d="m 121.55951,121.32667 20.81451,-0.13693"
         id="path9" /></g></g></svg>
