<?xml version="1.0" encoding="UTF-8" standalone="no"?>
<!-- Created with Inkscape (http://www.inkscape.org/) -->

<svg
   version="1.1"
   id="svg1"
   width="200"
   height="200"
   viewBox="0 0 200 200"
   sodipodi:docname="Intensive70.svg"
   inkscape:version="1.4.2 (f4327f4, 2025-05-13)"
   xml:space="preserve"
   xmlns:inkscape="http://www.inkscape.org/namespaces/inkscape"
   xmlns:sodipodi="http://sodipodi.sourceforge.net/DTD/sodipodi-0.dtd"
   xmlns="http://www.w3.org/2000/svg"
   xmlns:svg="http://www.w3.org/2000/svg"><defs
     id="defs1"><inkscape:path-effect
       effect="fillet_chamfer"
       id="path-effect1"
       is_visible="true"
       lpeversion="1"
       nodesatellites_param="F,0,0,1,0,0,0,1 @ F,0,0,1,0,0,0,1 @ F,0,0,1,0,0,0,1 @ F,0,0,1,0,0,0,1 @ F,0,0,1,0,0,0,1 @ F,0,0,1,0,0,0,1 @ F,0,0,1,0,0,0,1 @ F,0,0,1,0,0,0,1"
       radius="0"
       unit="px"
       method="auto"
       mode="F"
       chamfer_steps="1"
       flexible="false"
       use_knot_distance="true"
       apply_no_radius="true"
       apply_with_radius="true"
       only_selected="false"
       hide_knots="false" /></defs><sodipodi:namedview
     id="namedview1"
     pagecolor="#ffffff"
     bordercolor="#000000"
     borderopacity="0.25"
     inkscape:showpageshadow="2"
     inkscape:pageopacity="0.0"
     inkscape:pagecheckerboard="0"
     inkscape:deskcolor="#d1d1d1"
     inkscape:zoom="2.5818585"
     inkscape:cx="-33.11568"
     inkscape:cy="71.072834"
     inkscape:window-width="2560"
     inkscape:window-height="1369"
     inkscape:window-x="-8"
     inkscape:window-y="-8"
     inkscape:window-maximized="1"
     inkscape:current-layer="g1"
     showguides="true" /><g
     inkscape:groupmode="layer"
     inkscape:label="Image"
     id="g1"><path
       style="font-size:44.2287px;line-height:0;font-family:Bosch;-inkscape-font-specification:Bosch;letter-spacing:-0.819534px;stroke:#000000;stroke-width:1.65857;stroke-linejoin:round"
       d="m 32.267735,161.18658 h 12.886096 v -19.51761 z m 12.886096,2.2241 H 29.854285 v -2.67801 l 15.127157,-22.64949 h 2.628935 v 23.1034 h 4.266635 v 2.2241 h -4.266635 v 7.12619 h -2.456546 z m 18.638292,7.48931 q -2.154865,0 -3.835661,-0.63546 -1.680795,-0.63545 -2.930617,-1.67942 -1.206725,-1.08935 -1.982476,-2.49644 -0.775752,-1.40708 -1.163628,-2.90495 l 2.24106,-0.63545 q 0.301682,1.13475 0.861946,2.2241 0.603363,1.08936 1.508407,1.95176 0.905043,0.86241 2.197962,1.40708 1.29292,0.54468 3.103007,0.54468 3.404688,0 5.300969,-2.26949 1.896282,-2.26948 1.896282,-6.30918 0,-1.86098 -0.517167,-3.40423 -0.474071,-1.58864 -1.379115,-2.678 -0.905043,-1.13474 -2.24106,-1.7702 -1.292919,-0.63546 -2.88752,-0.63546 -2.499644,0 -4.00805,1.08936 -1.465308,1.08935 -2.41345,2.54182 h -2.154865 l 1.379114,-17.15733 h 15.342643 v 2.36026 H 58.835932 l -0.991238,11.89213 q 0.861946,-1.08936 2.456547,-1.99715 1.637697,-0.95319 3.921855,-0.95319 1.982477,0 3.663272,0.77163 1.723892,0.72624 2.973714,2.13332 1.292919,1.36169 1.982476,3.35884 0.732655,1.95176 0.732655,4.40281 0,2.54183 -0.732655,4.53898 -0.732654,1.99715 -2.06867,3.40424 -1.29292,1.40708 -3.103007,2.1787 -1.76699,0.72624 -3.878758,0.72624 z m 19.888169,-21.46937 q 1.896279,0 3.016813,-1.3163 1.120524,-1.36169 1.120524,-3.58579 0,-2.13332 -1.163623,-3.54041 -1.120533,-1.40708 -2.973714,-1.40708 -1.85318,0 -2.973714,1.36169 -1.120534,1.31631 -1.120534,3.44963 0,2.2241 1.120534,3.63118 1.120534,1.40708 2.973714,1.40708 z m 0,1.90637 q -1.292918,0 -2.413452,-0.49928 -1.120524,-0.54468 -1.982476,-1.45248 -0.818844,-0.90779 -1.336017,-2.17871 -0.474065,-1.27091 -0.474065,-2.72338 0,-1.45248 0.474065,-2.678 0.517173,-1.27092 1.336017,-2.17871 0.861952,-0.9078 1.982476,-1.40708 1.120534,-0.54468 2.413452,-0.54468 1.292919,0 2.413452,0.54468 1.163623,0.49928 1.982477,1.45247 0.861942,0.90779 1.336017,2.17871 0.474065,1.22552 0.474065,2.678 0,1.49786 -0.474065,2.76877 -0.474075,1.22553 -1.336017,2.13332 -0.818854,0.9078 -1.982477,1.40709 -1.120533,0.49928 -2.413452,0.49928 z m 10.234302,5.8099 h 8.490166 v 2.49644 h -8.490166 z m 22.646326,11.5744 q 1.6377,0 2.97371,-0.59008 1.37912,-0.63545 2.37036,-1.72481 0.99124,-1.13475 1.5084,-2.6326 0.56027,-1.54326 0.56027,-3.40423 0,-1.8156 -0.51717,-3.31346 -0.47407,-1.49787 -1.42222,-2.54183 -0.94814,-1.08936 -2.28415,-1.67942 -1.33602,-0.59007 -3.01682,-0.59007 -1.63769,0 -3.0599,0.63546 -1.42221,0.59006 -2.45655,1.67942 -1.03434,1.04396 -1.6377,2.54183 -0.56026,1.45247 -0.56026,3.22267 0,1.77021 0.56026,3.31345 0.56027,1.54326 1.5515,2.678 1.03434,1.13475 2.41346,1.7702 1.37911,0.63547 3.01681,0.63547 z m 0,2.1787 q -2.71513,0 -4.78381,-1.22552 -2.06866,-1.27092 -3.40468,-3.31346 -1.12053,-1.72481 -1.63769,-4.17586 -0.51718,-2.49644 -0.51718,-6.30918 0,-4.17586 0.77576,-7.5347 0.77575,-3.40424 2.19796,-5.76451 1.46531,-2.36026 3.49088,-3.63118 2.02558,-1.27091 4.56832,-1.27091 3.23229,0 5.25787,1.7702 2.02557,1.7702 3.01681,4.85671 l -2.28416,0.68084 q -0.47407,-1.13474 -0.99123,-2.04254 -0.51718,-0.95318 -1.24982,-1.58864 -0.68956,-0.68085 -1.6808,-1.04396 -0.94814,-0.36312 -2.24107,-0.36312 -1.93938,0 -3.44778,1.08935 -1.50841,1.08936 -2.58583,3.1319 -1.07744,1.99715 -1.6808,4.8567 -0.60336,2.85956 -0.64646,6.35457 1.07743,-2.26949 3.1461,-3.76735 2.11177,-1.54325 5.08549,-1.54325 2.15486,0 3.92185,0.77163 1.76699,0.77162 3.01681,2.13332 1.29292,1.36169 1.98248,3.22267 0.73266,1.86098 0.73266,4.03969 0,2.31488 -0.73266,4.31204 -0.68956,1.95175 -1.98248,3.35884 -1.29292,1.40708 -3.14611,2.2241 -1.85318,0.77162 -4.18043,0.77162 z m 22.77569,0 q -2.15486,0 -3.83565,-0.63546 -1.6808,-0.63545 -2.93062,-1.67942 -1.20673,-1.08935 -1.98248,-2.49644 -0.77575,-1.40708 -1.16363,-2.90495 l 2.24107,-0.63545 q 0.30168,1.13475 0.86194,2.2241 0.60336,1.08936 1.5084,1.95176 0.90505,0.86241 2.19797,1.40708 1.29292,0.54468 3.103,0.54468 3.40469,0 5.30097,-2.26949 1.89629,-2.26948 1.89629,-6.30918 0,-1.86098 -0.51717,-3.40423 -0.47407,-1.58864 -1.37912,-2.678 -0.90504,-1.13474 -2.24105,-1.7702 -1.29292,-0.63546 -2.88752,-0.63546 -2.49965,0 -4.00805,1.08936 -1.46532,1.08935 -2.41346,2.54182 h -2.15486 l 1.37912,-17.15733 h 15.34264 v 2.36026 h -13.27398 l -0.99124,11.89213 q 0.86196,-1.08936 2.45656,-1.99715 1.63769,-0.95319 3.92185,-0.95319 1.98248,0 3.66327,0.77163 1.7239,0.72624 2.97372,2.13332 1.29291,1.36169 1.98247,3.35884 0.73266,1.95176 0.73266,4.40281 0,2.54183 -0.73266,4.53898 -0.73265,1.99715 -2.06867,3.40424 -1.29292,1.40708 -3.103,2.1787 -1.76699,0.72624 -3.87877,0.72624 z m 19.88817,-21.46937 q 1.89629,0 3.01681,-1.3163 1.12054,-1.36169 1.12054,-3.58579 0,-2.13332 -1.16363,-3.54041 -1.12053,-1.40708 -2.97372,-1.40708 -1.85318,0 -2.97371,1.36169 -1.12053,1.31631 -1.12053,3.44963 0,2.2241 1.12053,3.63118 1.12053,1.40708 2.97371,1.40708 z m 0,1.90637 q -1.29292,0 -2.41344,-0.49928 -1.12054,-0.54468 -1.98248,-1.45248 -0.81885,-0.90779 -1.33601,-2.17871 -0.47408,-1.27091 -0.47408,-2.72338 0,-1.45248 0.47408,-2.678 0.51716,-1.27092 1.33601,-2.17871 0.86194,-0.9078 1.98248,-1.40708 1.12052,-0.54468 2.41344,-0.54468 1.29292,0 2.41345,0.54468 1.16363,0.49928 1.98248,1.45247 0.86194,0.90779 1.33602,2.17871 0.47407,1.22552 0.47407,2.678 0,1.49786 -0.47407,2.76877 -0.47408,1.22553 -1.33602,2.13332 -0.81885,0.9078 -1.98248,1.40709 -1.12053,0.49928 -2.41345,0.49928 z"
       id="text4"
       aria-label="45°-65°" /><g
       id="g8"
       inkscape:label="icon"><g
         id="g7"
         inkscape:label="caserrole"
         transform="translate(-13.168808,56.548413)"><path
           id="rect1"
           d="m 78.819192,35.851023 h -2.756326 c -4.709,0 -8.5,-3.791 -8.5,-8.5 v -40.177624 c 0,-9.937792 -2.212427,-8.5 8.5,-8.5 h 62.254744 c 10.12492,0 8.5,-1.657705 8.5,8.5 v 25.80175"
           style="display:inline;fill:none;stroke:#000000;stroke-width:3.46794;stroke-linejoin:round;stroke-dasharray:none;stroke-opacity:1"
           sodipodi:nodetypes="cssssssc" /><path
           style="display:inline;fill:none;stroke:#000000;stroke-width:3.61765;stroke-linejoin:round;stroke-dasharray:none;stroke-opacity:1"
           d="m 146.98714,-4.7498599 h 18"
           id="path1" /><path
           id="path6"
           style="display:inline;fill:none;stroke:#000000;stroke-width:3.56998;stroke-linejoin:round;stroke-opacity:1"
           d="m 96.670804,-20.81641 c 0,-5.917739 4.797276,-10.715013 10.715016,-10.715012 5.91774,2e-6 10.71501,4.797276 10.71501,10.715012"
           sodipodi:nodetypes="csc" /><path
           style="display:inline;fill:none;stroke:#010000;stroke-width:3.5;stroke-linejoin:round;stroke-dasharray:none;stroke-opacity:1"
           d="M 66.429306,-4.75 H 49"
           id="path2" /></g><g
         id="g6"
         style="display:inline"
         transform="matrix(1.0023758,0,0,0.99969872,-13.380284,56.188169)"
         inkscape:label="plates"><path
           style="display:inline;fill:none;stroke:#000000;stroke-width:3.50665;stroke-linejoin:round;stroke-dasharray:none;stroke-opacity:1"
           d="M 89.003911,36.211245 172.99552,36.02389"
           id="path4" /><path
           style="display:inline;fill:none;stroke:#000000;stroke-width:3.58835;stroke-linejoin:round;stroke-dasharray:none;stroke-opacity:1"
           d="M 161.3179,36.601541 151.55922,48.221 h -41.119 l -9.35025,-11.813118"
           id="path5" /><path
           style="display:inline;fill:none;stroke:#000000;stroke-width:3.50665;stroke-linejoin:round;stroke-dasharray:none;stroke-opacity:1"
           d="m 154.00391,45.700533 83.99161,-0.187355"
           id="path4-1"
           transform="matrix(0.9976247,0,0,1.0003021,-64.634175,-21.656168)" /><path
           style="display:inline;fill:none;stroke:#000000;stroke-width:3.58835;stroke-linejoin:round;stroke-dasharray:none;stroke-opacity:1"
           d="m 226.3179,46.090829 -9.75868,11.619459 m -41.119,0 -9.35025,-11.813118"
           id="path5-7"
           sodipodi:nodetypes="cccc"
           transform="matrix(0.9976247,0,0,1.0003021,-64.634175,-21.656168)" /></g></g></g></svg>
