<?xml version="1.0" encoding="UTF-8" standalone="no"?>
<!-- Created with Inkscape (http://www.inkscape.org/) -->

<svg
   version="1.1"
   id="svg1"
   width="24"
   height="24"
   viewBox="0 0 24 24"
   sodipodi:docname="Intensive_70.svg"
   inkscape:version="1.4.2 (f4327f4, 2025-05-13)"
   xml:space="preserve"
   xmlns:inkscape="http://www.inkscape.org/namespaces/inkscape"
   xmlns:sodipodi="http://sodipodi.sourceforge.net/DTD/sodipodi-0.dtd"
   xmlns="http://www.w3.org/2000/svg"
   xmlns:svg="http://www.w3.org/2000/svg"><defs
     id="defs1"><rect
       x="19.365895"
       y="125.87832"
       width="159.57497"
       height="54.999141"
       id="rect2" /><inkscape:path-effect
       effect="fillet_chamfer"
       id="path-effect1"
       is_visible="true"
       lpeversion="1"
       nodesatellites_param="F,0,0,1,0,0,0,1 @ F,0,0,1,0,0,0,1 @ F,0,0,1,0,0,0,1 @ F,0,0,1,0,0,0,1 @ F,0,0,1,0,0,0,1 @ F,0,0,1,0,0,0,1 @ F,0,0,1,0,0,0,1 @ F,0,0,1,0,0,0,1"
       radius="0"
       unit="px"
       method="auto"
       mode="F"
       chamfer_steps="1"
       flexible="false"
       use_knot_distance="true"
       apply_no_radius="true"
       apply_with_radius="true"
       only_selected="false"
       hide_knots="false" /></defs><sodipodi:namedview
     id="namedview1"
     pagecolor="#ffffff"
     bordercolor="#000000"
     borderopacity="0.25"
     inkscape:showpageshadow="2"
     inkscape:pageopacity="0.0"
     inkscape:pagecheckerboard="0"
     inkscape:deskcolor="#d1d1d1"
     inkscape:zoom="2.5818585"
     inkscape:cx="-33.11568"
     inkscape:cy="71.460152"
     inkscape:window-width="2560"
     inkscape:window-height="1369"
     inkscape:window-x="-8"
     inkscape:window-y="-8"
     inkscape:window-maximized="1"
     inkscape:current-layer="svg1"
     showguides="true" /><g
     inkscape:groupmode="layer"
     inkscape:label="Intensive_70"
     id="g1"
     transform="matrix(0.1348839,0,0,0.1348839,10.381393,-1.1336228)"><path
       style="font-size:44.2287px;line-height:0;font-family:Bosch;-inkscape-font-specification:Bosch;letter-spacing:-0.819534px;stroke:#000000;stroke-width:1.65857;stroke-linejoin:round"
       d="m -14.11573,170.31526 q 0.430973,-4.94748 1.465309,-9.3049 1.077432,-4.35742 2.6720328,-8.12478 1.5946006,-3.76735 3.6201744,-6.94463 2.0255739,-3.17729 4.3959256,-5.8099 H -18.339266 v -2.26949 H 0.45116112 v 2.63261 q -2.80132482,2.99573 -4.91309392,6.58152 -2.111768,3.58579 -3.6201735,7.44393 -1.4653088,3.85813 -2.3272547,7.89782 -0.861947,3.9943 -1.12053,7.89782 z m 28.852403,-1.90637 q 4.18044,0 6.4215,-3.81274 2.284158,-3.81274 2.284158,-10.62121 0,-3.26807 -0.603363,-5.90067 -0.603362,-2.63261 -1.723892,-4.49359 -1.12053,-1.86098 -2.758228,-2.85956 -1.594601,-1.04396 -3.663272,-1.04396 -2.068671,0 -3.706368,0.99857 -1.6376986,0.99858 -2.8013261,2.85956 -1.1205299,1.86098 -1.7238925,4.53898 -0.6033626,2.67799 -0.6033626,5.99145 0,3.40423 0.6033626,6.08223 0.6464602,2.678 1.8100877,4.53898 1.1636266,1.81559 2.8013249,2.76878 1.637698,0.95318 3.663271,0.95318 z m 0.0431,2.26949 q -2.585839,0 -4.697607,-1.18013 -2.1117682,-1.22553 -3.6632713,-3.40424 -1.5084064,-2.17871 -2.3703527,-5.21982 -0.8188486,-3.04112 -0.8188486,-6.76308 0,-3.76735 0.8188486,-6.85386 0.8188487,-3.08651 2.3272551,-5.26521 1.5084055,-2.17871 3.6201745,-3.35885 2.1117684,-1.18013 4.6976064,-1.18013 2.585839,0 4.697607,1.22552 2.111768,1.18014 3.577077,3.35885 1.508406,2.1787 2.284158,5.21982 0.818848,3.04112 0.818848,6.76308 0,3.72196 -0.818848,6.80847 -0.775752,3.04111 -2.24106,5.26521 -1.465309,2.17871 -3.577077,3.40424 -2.068672,1.18013 -4.65451,1.18013 z m 21.353482,-21.46937 q 1.896282,0 3.016815,-1.3163 1.120524,-1.3617 1.120524,-3.5858 0,-2.13332 -1.163623,-3.5404 -1.120532,-1.40708 -2.973716,-1.40708 -1.853184,0 -2.973714,1.36169 -1.120531,1.31631 -1.120531,3.44962 0,2.22411 1.120531,3.63119 1.12053,1.40708 2.973714,1.40708 z m 0,1.90637 q -1.292919,0 -2.413449,-0.49928 -1.12053,-0.54468 -1.982477,-1.45248 -0.818849,-0.90779 -1.336017,-2.17871 -0.47407,-1.27091 -0.47407,-2.72339 0,-1.45247 0.47407,-2.67799 0.517168,-1.27092 1.336017,-2.17871 0.861947,-0.9078 1.982477,-1.40709 1.12053,-0.54467 2.413449,-0.54467 1.292919,0 2.413449,0.54467 1.163628,0.49929 1.982481,1.45248 0.861943,0.90779 1.336008,2.17871 0.474074,1.22552 0.474074,2.67799 0,1.49787 -0.474074,2.76878 -0.474065,1.22553 -1.336008,2.13332 -0.818853,0.9078 -1.982481,1.40709 -1.12053,0.49928 -2.413449,0.49928 z"
       id="text4-8"
       aria-label="70°" /><g
       id="g8"
       inkscape:label="icon"
       transform="translate(-85.930676)"><g
         id="g7"
         inkscape:label="caserrole"
         transform="translate(-13.168808,56.548413)"><path
           id="rect1"
           d="m 78.819192,35.851023 h -2.756326 c -4.709,0 -8.5,-3.791 -8.5,-8.5 v -40.177624 c 0,-9.937792 -2.212427,-8.5 8.5,-8.5 h 62.254744 c 10.12492,0 8.5,-1.657705 8.5,8.5 v 25.80175"
           style="display:inline;fill:none;stroke:#000000;stroke-width:3.46794;stroke-linejoin:round;stroke-dasharray:none;stroke-opacity:1"
           sodipodi:nodetypes="cssssssc" /><path
           style="display:inline;fill:none;stroke:#000000;stroke-width:3.61765;stroke-linejoin:round;stroke-dasharray:none;stroke-opacity:1"
           d="m 146.98714,-4.7498599 h 18"
           id="path1" /><path
           id="path6"
           style="display:inline;fill:none;stroke:#000000;stroke-width:3.56998;stroke-linejoin:round;stroke-opacity:1"
           d="m 96.670804,-20.81641 c 0,-5.917739 4.797276,-10.715013 10.715016,-10.715012 5.91774,2e-6 10.71501,4.797276 10.71501,10.715012"
           sodipodi:nodetypes="csc" /><path
           style="display:inline;fill:none;stroke:#010000;stroke-width:3.5;stroke-linejoin:round;stroke-dasharray:none;stroke-opacity:1"
           d="M 66.429306,-4.75 H 49"
           id="path2" /></g><g
         id="g6"
         style="display:inline"
         transform="matrix(1.0023758,0,0,0.99969872,-13.380284,56.188169)"
         inkscape:label="plates"><path
           style="display:inline;fill:none;stroke:#000000;stroke-width:3.50665;stroke-linejoin:round;stroke-dasharray:none;stroke-opacity:1"
           d="M 89.003911,36.211245 172.99552,36.02389"
           id="path4" /><path
           style="display:inline;fill:none;stroke:#000000;stroke-width:3.58835;stroke-linejoin:round;stroke-dasharray:none;stroke-opacity:1"
           d="M 161.3179,36.601541 151.55922,48.221 h -41.119 l -9.35025,-11.813118"
           id="path5" /><path
           style="display:inline;fill:none;stroke:#000000;stroke-width:3.50665;stroke-linejoin:round;stroke-dasharray:none;stroke-opacity:1"
           d="m 154.00391,45.700533 83.99161,-0.187355"
           id="path4-1"
           transform="matrix(0.9976247,0,0,1.0003021,-64.634175,-21.656168)" /><path
           style="display:inline;fill:none;stroke:#000000;stroke-width:3.58835;stroke-linejoin:round;stroke-dasharray:none;stroke-opacity:1"
           d="m 226.3179,46.090829 -9.75868,11.619459 m -41.119,0 -9.35025,-11.813118"
           id="path5-7"
           sodipodi:nodetypes="cccc"
           transform="matrix(0.9976247,0,0,1.0003021,-64.634175,-21.656168)" /></g></g></g></svg>
