<?xml version="1.0" encoding="UTF-8" standalone="no"?>
<!-- Created with Inkscape (http://www.inkscape.org/) -->

<svg
   version="1.1"
   id="svg1"
   width="24"
   height="24"
   viewBox="0 0 24 24"
   sodipodi:docname="Intensive_70.svg"
   inkscape:version="1.4.2 (f4327f4, 2025-05-13)"
   xml:space="preserve"
   xmlns:inkscape="http://www.inkscape.org/namespaces/inkscape"
   xmlns:sodipodi="http://sodipodi.sourceforge.net/DTD/sodipodi-0.dtd"
   xmlns="http://www.w3.org/2000/svg"
   xmlns:svg="http://www.w3.org/2000/svg"><defs
     id="defs1"><rect
       x="19.365895"
       y="125.87832"
       width="159.57497"
       height="54.999141"
       id="rect2" /><inkscape:path-effect
       effect="fillet_chamfer"
       id="path-effect1"
       is_visible="true"
       lpeversion="1"
       nodesatellites_param="F,0,0,1,0,0,0,1 @ F,0,0,1,0,0,0,1 @ F,0,0,1,0,0,0,1 @ F,0,0,1,0,0,0,1 @ F,0,0,1,0,0,0,1 @ F,0,0,1,0,0,0,1 @ F,0,0,1,0,0,0,1 @ F,0,0,1,0,0,0,1"
       radius="0"
       unit="px"
       method="auto"
       mode="F"
       chamfer_steps="1"
       flexible="false"
       use_knot_distance="true"
       apply_no_radius="true"
       apply_with_radius="true"
       only_selected="false"
       hide_knots="false" /></defs><sodipodi:namedview
     id="namedview1"
     pagecolor="#ffffff"
     bordercolor="#000000"
     borderopacity="0.25"
     inkscape:showpageshadow="2"
     inkscape:pageopacity="0.0"
     inkscape:pagecheckerboard="0"
     inkscape:deskcolor="#d1d1d1"
     inkscape:zoom="29.210394"
     inkscape:cx="15.319889"
     inkscape:cy="9.2261678"
     inkscape:window-width="2560"
     inkscape:window-height="1369"
     inkscape:window-x="-8"
     inkscape:window-y="-8"
     inkscape:window-maximized="1"
     inkscape:current-layer="svg1"
     showguides="true" /><path
     style="font-size:44.2287px;line-height:0;font-family:Bosch;-inkscape-font-specification:Bosch;letter-spacing:-0.819534px;stroke:#000000;stroke-width:0.266254;stroke-linejoin:round"
     d="m 7.8075867,21.808582 q 0.069185,-0.794232 0.2352298,-1.493739 0.172963,-0.699508 0.4289483,-1.304292 0.2559853,-0.604782 0.5811558,-1.114839 0.3251708,-0.510059 0.7056888,-0.932678 H 7.1295717 v -0.364327 h 3.0164753 v 0.422619 Q 9.6963434,17.502238 9.3573354,18.077874 9.018328,18.65351 8.7761798,19.272868 8.54095,19.892223 8.4025796,20.540725 8.2642091,21.18194 8.2226981,21.808582 Z m 4.6317493,-0.306034 q 0.671097,0 1.03086,-0.612069 0.366682,-0.612069 0.366682,-1.70505 0,-0.524632 -0.09686,-0.94725 -0.09686,-0.42262 -0.27674,-0.721367 -0.179882,-0.298748 -0.442786,-0.459053 -0.255985,-0.167589 -0.588074,-0.167589 -0.332089,0 -0.594993,0.160302 -0.262904,0.160305 -0.449704,0.459053 -0.179881,0.298748 -0.276741,0.728654 -0.09686,0.429905 -0.09686,0.961823 0,0.54649 0.09686,0.976396 0.103778,0.429906 0.290578,0.728654 0.1868,0.291461 0.449704,0.444479 0.262904,0.153017 0.588074,0.153017 z m 0.0069,0.364327 q -0.415111,0 -0.754119,-0.18945 -0.339007,-0.196737 -0.588074,-0.546491 -0.242148,-0.349754 -0.380519,-0.837951 -0.131452,-0.488199 -0.131452,-1.085695 0,-0.604782 0.131452,-1.100267 0.131452,-0.495486 0.373601,-0.845238 0.242148,-0.349754 0.581155,-0.539205 0.339008,-0.189449 0.754119,-0.189449 0.415112,0 0.754119,0.196736 0.339008,0.189451 0.574237,0.539205 0.242149,0.349752 0.366682,0.837951 0.131452,0.488198 0.131452,1.085694 0,0.597496 -0.131452,1.092981 -0.124533,0.488197 -0.359763,0.845238 -0.23523,0.349754 -0.574237,0.546491 -0.33209,0.18945 -0.747201,0.18945 z m 3.427929,-3.446533 q 0.304415,0 0.484297,-0.211309 0.179881,-0.218597 0.179881,-0.575638 0,-0.342467 -0.186799,-0.568349 -0.179882,-0.225883 -0.477379,-0.225883 -0.297496,0 -0.477378,0.218596 -0.179881,0.211311 -0.179881,0.553776 0,0.357042 0.179881,0.582925 0.179882,0.225882 0.477378,0.225882 z m 0,0.306034 q -0.207555,0 -0.387437,-0.08015 -0.179881,-0.08744 -0.318252,-0.23317 -0.131452,-0.14573 -0.214474,-0.349754 -0.0761,-0.204022 -0.0761,-0.437192 0,-0.233169 0.0761,-0.429905 0.08302,-0.204024 0.214474,-0.349754 0.138371,-0.145731 0.318252,-0.225884 0.179882,-0.08744 0.387437,-0.08744 0.207556,0 0.387437,0.08744 0.186801,0.08015 0.318253,0.233171 0.13837,0.145729 0.214473,0.349754 0.0761,0.196735 0.0761,0.429904 0,0.240457 -0.0761,0.444479 -0.0761,0.196738 -0.214473,0.342468 -0.131452,0.145731 -0.318253,0.225883 -0.179881,0.08015 -0.387437,0.08015 z"
     id="text4-8"
     aria-label="70°" /><g
     inkscape:groupmode="layer"
     inkscape:label="Intensive_70"
     id="g1"
     transform="matrix(0.1348839,0,0,0.1348839,10.381393,-1.1336228)"><g
       id="g8"
       inkscape:label="icon"
       transform="matrix(1.0724373,0,0,1.0724373,-93.024508,-1.6828642)"><g
         id="g7"
         inkscape:label="caserrole"
         transform="translate(-13.168808,56.548413)"><path
           id="rect1"
           d="m 78.819192,35.851023 h -2.756326 c -4.709,0 -8.5,-3.791 -8.5,-8.5 v -40.177624 c 0,-9.937792 -2.212427,-8.5 8.5,-8.5 h 62.254744 c 10.12492,0 8.5,-1.657705 8.5,8.5 v 25.80175"
           style="display:inline;fill:none;stroke:#000000;stroke-width:3.46794;stroke-linejoin:round;stroke-dasharray:none;stroke-opacity:1"
           sodipodi:nodetypes="cssssssc" /><path
           style="display:inline;fill:none;stroke:#000000;stroke-width:3.61765;stroke-linejoin:round;stroke-dasharray:none;stroke-opacity:1"
           d="m 146.98714,-4.7498599 h 18"
           id="path1" /><path
           id="path6"
           style="display:inline;fill:none;stroke:#000000;stroke-width:3.56998;stroke-linejoin:round;stroke-opacity:1"
           d="m 96.670804,-20.81641 c 0,-5.917739 4.797276,-10.715013 10.715016,-10.715012 5.91774,2e-6 10.71501,4.797276 10.71501,10.715012"
           sodipodi:nodetypes="csc" /><path
           style="display:inline;fill:none;stroke:#010000;stroke-width:3.5;stroke-linejoin:round;stroke-dasharray:none;stroke-opacity:1"
           d="M 66.429306,-4.75 H 49"
           id="path2" /></g><g
         id="g6"
         style="display:inline"
         transform="matrix(1.0023758,0,0,0.99969872,-13.380284,56.188169)"
         inkscape:label="plates"><path
           style="display:inline;fill:none;stroke:#000000;stroke-width:3.50665;stroke-linejoin:round;stroke-dasharray:none;stroke-opacity:1"
           d="M 89.003911,36.211245 172.99552,36.02389"
           id="path4" /><path
           style="display:inline;fill:none;stroke:#000000;stroke-width:3.58835;stroke-linejoin:round;stroke-dasharray:none;stroke-opacity:1"
           d="M 161.3179,36.601541 151.55922,48.221 h -41.119 l -9.35025,-11.813118"
           id="path5" /><path
           style="display:inline;fill:none;stroke:#000000;stroke-width:3.50665;stroke-linejoin:round;stroke-dasharray:none;stroke-opacity:1"
           d="m 154.00391,45.700533 83.99161,-0.187355"
           id="path4-1"
           transform="matrix(0.9976247,0,0,1.0003021,-64.634175,-21.656168)" /><path
           style="display:inline;fill:none;stroke:#000000;stroke-width:3.58835;stroke-linejoin:round;stroke-dasharray:none;stroke-opacity:1"
           d="m 226.3179,46.090829 -9.75868,11.619459 m -41.119,0 -9.35025,-11.813118"
           id="path5-7"
           sodipodi:nodetypes="cccc"
           transform="matrix(0.9976247,0,0,1.0003021,-64.634175,-21.656168)" /></g></g></g></svg>
