<?xml version="1.0" encoding="UTF-8" standalone="no"?>
<!-- Created with Inkscape (http://www.inkscape.org/) -->

<svg
   version="1.1"
   id="svg1"
   width="24"
   height="24"
   viewBox="0 0 24 24"
   sodipodi:docname="MachineCare.svg"
   inkscape:version="1.4.2 (f4327f4, 2025-05-13)"
   xml:space="preserve"
   xmlns:inkscape="http://www.inkscape.org/namespaces/inkscape"
   xmlns:sodipodi="http://sodipodi.sourceforge.net/DTD/sodipodi-0.dtd"
   xmlns="http://www.w3.org/2000/svg"
   xmlns:svg="http://www.w3.org/2000/svg"><defs
     id="defs1" /><sodipodi:namedview
     id="namedview1"
     pagecolor="#ffffff"
     bordercolor="#000000"
     borderopacity="0.25"
     inkscape:showpageshadow="2"
     inkscape:pageopacity="0.0"
     inkscape:pagecheckerboard="0"
     inkscape:deskcolor="#d1d1d1"
     showguides="true"
     inkscape:zoom="5.6568543"
     inkscape:cx="-14.937631"
     inkscape:cy="-35.620504"
     inkscape:window-width="2560"
     inkscape:window-height="1369"
     inkscape:window-x="-8"
     inkscape:window-y="-8"
     inkscape:window-maximized="1"
     inkscape:current-layer="g1" /><g
     inkscape:groupmode="layer"
     inkscape:label="Image"
     id="g1"
     transform="matrix(0.30883771,0,0,0.30883771,-19.860886,-1.565366)"><g
       id="g2"
       transform="translate(12.05945)"><path
         id="rect8"
         style="display:inline;fill:none;stroke:#000000;stroke-width:1.73975;stroke-linejoin:round"
         d="m 102.75589,35.177169 v 9.552777 c 0,2.6592 -2.1408,4.8 -4.799997,4.8 H 78.685094 c -2.6592,0 -4.8,-2.1408 -4.8,-4.8 V 21.329697 c 0,-2.6592 2.1408,-4.8 4.8,-4.8 h 11.000687"
         sodipodi:nodetypes="cssssssc" /><path
         style="fill:none;stroke:#000000;stroke-width:1.719;stroke-linejoin:round;stroke-dasharray:none"
         d="m 78.106087,24.835986 v 5.2818 h 13.613112"
         id="path10"
         sodipodi:nodetypes="ccc" /><path
         style="fill:none;stroke:#000000;stroke-width:1.719;stroke-linejoin:round;stroke-dasharray:none"
         d="m 78.106087,38.953386 v 5.2644 h 20.1 v -5.2644"
         id="path11"
         sodipodi:nodetypes="cccc" /><path
         style="fill:none;stroke:#000000;stroke-width:1.02;stroke-linejoin:round;stroke-dasharray:none;stroke-opacity:1"
         d="m 99.155701,12.05429 1.975319,6.913624 7.5527,-3.427763 -5.28689,5.925964 4.29923,2.788689 -5.22879,0.639074 1.62674,7.320308 -4.415427,-5.984061 -3.660156,3.660154 0.755268,-5.170694 -5.80977,-0.232391 4.938306,-2.904883 -3.311568,-4.53162 5.344986,1.859125 z"
         id="path12"
         sodipodi:nodetypes="ccccccccccccccc" /></g><path
       style="font-size:143.21px;line-height:0;font-family:Bosch;-inkscape-font-specification:Bosch;letter-spacing:-2.65361px;stroke:#000000;stroke-width:0.504396;stroke-linejoin:round"
       d="m 67.778123,66.071115 h 1.087844 l 3.17178,8.861984 3.093145,-8.861984 h 1.087843 v 9.869656 H 75.47166 v -8.792967 l -3.080034,8.792967 h -0.720858 l -3.171786,-8.792967 v 8.792967 h -0.720859 z m 11.972436,9.331311 q 0.406303,0 0.773288,-0.138036 0.366984,-0.138042 0.642217,-0.372705 0.288346,-0.234664 0.458732,-0.552144 0.170381,-0.317485 0.196598,-0.690185 v -1.325157 l -0.380091,0.01379 q -0.707753,0.0414 -1.297548,0.138037 -0.576689,0.09663 -0.996098,0.30368 -0.406303,0.19325 -0.629111,0.510735 -0.22281,0.317488 -0.22281,0.80062 0,0.552148 0.353873,0.938651 0.366985,0.372701 1.10095,0.372701 z m -0.09175,0.648772 q -0.458726,0 -0.838816,-0.138036 -0.380091,-0.138037 -0.668436,-0.386504 -0.288345,-0.262268 -0.44562,-0.621168 -0.157281,-0.358894 -0.157281,-0.800611 0,-0.676388 0.301451,-1.1043 0.314557,-0.441717 0.838822,-0.703989 0.524261,-0.276074 1.218907,-0.386506 0.694648,-0.12423 1.454823,-0.165645 l 0.458732,-0.0276 v -0.717795 q 0,-0.911044 -0.380091,-1.311352 -0.366984,-0.400309 -1.087842,-0.400309 -0.655325,0 -1.153375,0.276077 -0.498048,0.262267 -0.917456,0.690186 l -0.458731,-0.510741 q 0.458731,-0.496931 1.074737,-0.814418 0.616007,-0.317485 1.481036,-0.317485 0.445625,0 0.838821,0.138035 0.406303,0.124238 0.707753,0.414115 0.301452,0.276072 0.471832,0.731593 0.170387,0.455522 0.170387,1.118104 V 74.5466 q 0,0.414112 0.196598,0.634972 0.196599,0.207052 0.655331,0.165638 v 0.634974 q -0.694648,0.06902 -1.10095,-0.22086 -0.393198,-0.303681 -0.484942,-0.897239 -0.353881,0.565949 -0.930565,0.883435 -0.563583,0.303682 -1.245125,0.303681 z m 7.18854,0 q -0.629113,0 -1.17959,-0.248463 -0.550472,-0.262273 -0.956775,-0.745405 -0.406303,-0.483124 -0.642218,-1.173316 -0.235921,-0.690185 -0.235921,-1.546011 0,-0.855831 0.222809,-1.546015 0.222816,-0.690187 0.616012,-1.173318 0.406303,-0.483131 0.943669,-0.7454 0.550472,-0.262272 1.192696,-0.262272 0.956775,0 1.54657,0.455523 0.589796,0.441717 0.943668,1.104299 l -0.589788,0.400307 Q 88.524993,70.26744 88.3415,70.032783 88.171114,69.784315 87.948304,69.61867 q -0.22281,-0.165646 -0.498049,-0.248469 -0.275239,-0.08282 -0.642219,-0.08282 -1.022309,0 -1.612103,0.82822 -0.589795,0.814423 -0.589795,2.222404 0,1.435584 0.602899,2.236202 0.602901,0.800611 1.651422,0.800611 0.432515,0 0.747076,-0.110427 0.314557,-0.124237 0.550473,-0.317485 0.235915,-0.193255 0.406302,-0.441724 0.170387,-0.248462 0.314556,-0.510735 l 0.589794,0.386505 q -0.144167,0.289876 -0.38009,0.593557 -0.222809,0.303682 -0.550471,0.538345 -0.314557,0.234664 -0.733965,0.386505 -0.419414,0.15184 -0.95678,0.15184 z m 3.964338,-10.504623 h 0.74707 v 4.444794 q 0.262131,-0.579753 0.82571,-0.980061 0.563583,-0.40031 1.376188,-0.40031 0.471839,0 0.865028,0.15184 0.406302,0.151842 0.694647,0.483133 0.288346,0.317486 0.445627,0.828221 0.170381,0.510736 0.170381,1.22853 v 4.638049 H 95.18927 V 71.24751 q 0,-1.932522 -1.598999,-1.932522 -0.366979,0 -0.733964,0.138036 -0.366986,0.124232 -0.65533,0.386504 -0.288338,0.262273 -0.471831,0.676381 -0.170386,0.414114 -0.170386,0.966263 v 4.458599 h -0.747071 z m 7.358938,1.269939 q -0.222811,0 -0.380092,-0.165646 -0.144169,-0.165639 -0.144169,-0.400303 0,-0.234663 0.144169,-0.386503 0.157281,-0.165646 0.380092,-0.165646 0.222809,0 0.366985,0.165646 0.157274,0.15184 0.157274,0.386503 0,0.234664 -0.157274,0.400303 -0.144176,0.165646 -0.366985,0.165646 z m -0.353874,1.904916 h 0.747071 v 7.219341 h -0.747066 z m 2.719229,0 h 0.74707 v 1.22853 q 0.27524,-0.579759 0.7995,-0.952456 0.53737,-0.386506 1.34997,-0.386506 0.47184,0 0.87815,0.15184 0.41941,0.151842 0.72085,0.483133 0.31455,0.317486 0.48494,0.842026 0.17038,0.510736 0.17038,1.242335 v 4.610439 h -0.74707 v -4.651854 q 0,-1.021477 -0.43251,-1.490797 -0.43253,-0.483132 -1.24513,-0.483132 -0.39319,0 -0.76017,0.138036 -0.35388,0.138037 -0.62912,0.414114 -0.26212,0.276072 -0.43251,0.703989 -0.15728,0.427913 -0.15728,1.007667 v 4.361977 h -0.74707 z m 9.40354,0.565949 q -0.89125,0 -1.46792,0.648776 -0.5636,0.648773 -0.69466,1.780681 h 4.18099 q -0.0655,-1.200927 -0.5767,-1.808291 -0.51115,-0.621166 -1.44171,-0.621166 z m 0.13107,6.763819 q -0.68155,0 -1.24513,-0.248463 -0.56359,-0.262273 -0.98299,-0.745405 -0.4063,-0.483124 -0.64222,-1.173316 -0.22281,-0.690185 -0.22281,-1.546011 0,-0.855831 0.22281,-1.546015 0.22281,-0.690187 0.61601,-1.173318 0.40631,-0.483131 0.94367,-0.7454 0.55047,-0.262272 1.17959,-0.262272 0.57669,0 1.07473,0.220858 0.51115,0.207055 0.89126,0.648777 0.38009,0.427912 0.58979,1.090494 0.22282,0.662578 0.22282,1.546012 v 0.262273 h -4.96738 q 0,1.421784 0.58979,2.208591 0.6029,0.786813 1.74317,0.786813 0.4063,0 0.70775,-0.09663 0.31455,-0.110426 0.53737,-0.289876 0.23591,-0.17945 0.40631,-0.414107 0.17038,-0.248469 0.30144,-0.524547 l 0.61602,0.358901 q -0.15729,0.331284 -0.3932,0.634965 -0.22282,0.303682 -0.53738,0.524546 -0.31455,0.220859 -0.73396,0.358895 -0.4063,0.124232 -0.91746,0.124233 z m 7.67348,0 q -0.91746,0 -1.65143,-0.3727 -0.73398,-0.386505 -1.25823,-1.04908 -0.51115,-0.67638 -0.79949,-1.601229 -0.27525,-0.92485 -0.27525,-2.015344 0,-1.090495 0.28835,-2.015341 0.28835,-0.938655 0.8126,-1.615035 0.52426,-0.676382 1.24512,-1.062886 0.73396,-0.386503 1.61211,-0.386503 1.27132,0 2.11014,0.634972 0.83883,0.634966 1.32377,2.042946 l -0.66843,0.234663 q -0.35388,-1.076689 -0.99609,-1.656448 -0.64224,-0.579754 -1.75628,-0.579754 -0.70775,0 -1.29756,0.331292 -0.57667,0.317485 -1.00919,0.897239 -0.41941,0.579753 -0.65534,1.394176 -0.22281,0.800617 -0.22281,1.766874 0,0.993867 0.22281,1.794485 0.23593,0.800611 0.65534,1.366566 0.4194,0.565955 1.00919,0.883434 0.58982,0.303682 1.32377,0.303682 1.11405,0 1.8087,-0.607363 0.70776,-0.621168 1.04852,-1.794478 l 0.68155,0.262267 q -0.43251,1.38037 -1.31066,2.11197 -0.86503,0.731595 -2.24121,0.731595 z m 6.52011,-0.648772 q 0.4063,0 0.77329,-0.138036 0.36698,-0.138042 0.64221,-0.372705 0.28835,-0.234664 0.45873,-0.552144 0.17039,-0.317485 0.1966,-0.690185 v -1.325157 l -0.38008,0.01379 q -0.70775,0.0414 -1.29756,0.138037 -0.57668,0.09663 -0.99609,0.30368 -0.4063,0.19325 -0.62912,0.510735 -0.2228,0.317488 -0.2228,0.80062 0,0.552148 0.35387,0.938651 0.36698,0.372701 1.10095,0.372701 z m -0.0917,0.648772 q -0.45873,0 -0.83881,-0.138036 -0.3801,-0.138037 -0.66844,-0.386504 -0.28834,-0.262268 -0.44563,-0.621168 -0.15726,-0.358894 -0.15726,-0.800611 0,-0.676388 0.30144,-1.1043 0.31456,-0.441717 0.83882,-0.703989 0.52426,-0.276074 1.2189,-0.386506 0.69465,-0.12423 1.45483,-0.165645 l 0.45873,-0.0276 v -0.717795 q 0,-0.911044 -0.38008,-1.311352 -0.36699,-0.400309 -1.08785,-0.400309 -0.65532,0 -1.15338,0.276077 -0.49804,0.262267 -0.91745,0.690186 l -0.45874,-0.510741 q 0.45874,-0.496931 1.07474,-0.814418 0.61601,-0.317485 1.48105,-0.317485 0.44561,0 0.83881,0.138035 0.4063,0.124238 0.70776,0.414115 0.30145,0.276072 0.47184,0.731593 0.17038,0.455522 0.17038,1.118104 V 74.5466 q 0,0.414112 0.19659,0.634972 0.1966,0.207052 0.65533,0.165638 v 0.634974 q -0.69465,0.06902 -1.10095,-0.22086 -0.39319,-0.303681 -0.48494,-0.897239 -0.35388,0.565949 -0.93057,0.883435 -0.56358,0.303682 -1.24512,0.303681 z m 4.73762,-7.329768 h 0.74707 v 1.283743 q 0.24904,-0.565953 0.70776,-0.966262 0.45873,-0.414108 1.12716,-0.414108 0.60289,0 1.03542,0.276072 l -0.32766,0.676381 q -0.15728,-0.09662 -0.32767,-0.15184 -0.17039,-0.06902 -0.47184,-0.06902 -0.28833,0 -0.6029,0.138041 -0.30145,0.124232 -0.56357,0.441717 -0.24904,0.303682 -0.41942,0.800613 -0.15728,0.496937 -0.15728,1.214731 v 3.989272 h -0.74707 z m 6.86087,0.565949 q -0.89122,0 -1.46792,0.648776 -0.56359,0.648773 -0.69464,1.780681 h 4.18098 q -0.0655,-1.200927 -0.57667,-1.808291 -0.51117,-0.621166 -1.44175,-0.621166 z m 0.13108,6.763819 q -0.68155,0 -1.24513,-0.248463 -0.56357,-0.262273 -0.98298,-0.745405 -0.40631,-0.483124 -0.64223,-1.173316 -0.22281,-0.690185 -0.22281,-1.546011 0,-0.855831 0.22281,-1.546015 0.22282,-0.690187 0.61601,-1.173318 0.4063,-0.483131 0.94368,-0.7454 0.55047,-0.262272 1.17957,-0.262272 0.5767,0 1.07474,0.220858 0.51117,0.207055 0.89125,0.648777 0.38009,0.427912 0.58979,1.090494 0.22282,0.662578 0.22282,1.546012 v 0.262273 h -4.96738 q 0,1.421784 0.5898,2.208591 0.6029,0.786813 1.74316,0.786813 0.4063,0 0.70776,-0.09663 0.31456,-0.110426 0.53736,-0.289876 0.23592,-0.17945 0.40631,-0.414107 0.17038,-0.248469 0.30144,-0.524547 l 0.61601,0.358901 q -0.15728,0.331284 -0.3932,0.634965 -0.22281,0.303682 -0.53736,0.524546 -0.31456,0.220859 -0.73397,0.358895 -0.40631,0.124232 -0.91745,0.124233 z"
       id="text4"
       aria-label="MachineCare" /></g></svg>
