<?xml version="1.0" encoding="UTF-8" standalone="no"?>
<!-- Created with Inkscape (http://www.inkscape.org/) -->

<svg
   version="1.1"
   id="svg1"
   width="24"
   height="24"
   viewBox="0 0 24 24"
   sodipodi:docname="Silent_50.svg"
   inkscape:version="1.4.2 (f4327f4, 2025-05-13)"
   xml:space="preserve"
   xmlns:inkscape="http://www.inkscape.org/namespaces/inkscape"
   xmlns:sodipodi="http://sodipodi.sourceforge.net/DTD/sodipodi-0.dtd"
   xmlns:xlink="http://www.w3.org/1999/xlink"
   xmlns="http://www.w3.org/2000/svg"
   xmlns:svg="http://www.w3.org/2000/svg"><defs
     id="defs1"><color-profile
       name="Agfa-:-Swop-Standard"
       xlink:href="../../../../../../../../../windows/system32/spool/drivers/color/RSWOP.icm"
       id="color-profile2" /><inkscape:path-effect
       effect="fillet_chamfer"
       id="path-effect9"
       is_visible="true"
       lpeversion="1"
       nodesatellites_param="F,0,0,1,0,0,0,1 @ F,0,0,1,0,56.847065,0,1 @ F,0,0,1,0,0,0,1 @ F,0,0,1,0,7.1751956,0,1 @ F,0,0,1,0,0,0,1"
       radius="0"
       unit="px"
       method="auto"
       mode="F"
       chamfer_steps="1"
       flexible="false"
       use_knot_distance="true"
       apply_no_radius="true"
       apply_with_radius="true"
       only_selected="false"
       hide_knots="false" /><inkscape:path-effect
       effect="fillet_chamfer"
       id="path-effect6"
       is_visible="true"
       lpeversion="1"
       nodesatellites_param="F,0,0,1,0,0,0,1 @ F,0,0,1,0,56.847065,0,1 @ F,0,0,1,0,0,0,1 @ F,0,0,1,0,8.5174849,0,1 @ F,0,0,1,0,0,0,1"
       radius="0"
       unit="px"
       method="auto"
       mode="F"
       chamfer_steps="1"
       flexible="false"
       use_knot_distance="true"
       apply_no_radius="true"
       apply_with_radius="true"
       only_selected="false"
       hide_knots="false" /></defs><sodipodi:namedview
     id="namedview1"
     pagecolor="#ffffff"
     bordercolor="#000000"
     borderopacity="0.25"
     inkscape:showpageshadow="2"
     inkscape:pageopacity="0.0"
     inkscape:pagecheckerboard="false"
     inkscape:deskcolor="#d1d1d1"
     inkscape:zoom="29.210394"
     inkscape:cx="14.994663"
     inkscape:cy="10.424372"
     inkscape:window-width="2560"
     inkscape:window-height="1369"
     inkscape:window-x="-8"
     inkscape:window-y="-8"
     inkscape:window-maximized="1"
     inkscape:current-layer="g1"
     showguides="true"><sodipodi:guide
       position="-54.364209,86.707989"
       orientation="1,0"
       id="guide2"
       inkscape:locked="false" /><sodipodi:guide
       position="117.49242,87.666552"
       orientation="1,0"
       id="guide4"
       inkscape:locked="false" /><sodipodi:guide
       position="26.702823,77.943986"
       orientation="0,-1"
       id="guide5"
       inkscape:locked="false" /><sodipodi:guide
       position="69.523562,115.37232"
       orientation="-1,0"
       id="guide6"
       inkscape:locked="false"
       inkscape:label=""
       inkscape:color="rgb(0,134,229)" /></sodipodi:namedview><g
     inkscape:groupmode="layer"
     inkscape:label="Silent50"
     id="g1"
     transform="translate(19.607968,9.3332303)"><path
       id="path8"
       style="stroke-width:4;stroke-dasharray:none;display:inline;fill:none;stroke:#000000;stroke-linecap:round;stroke-linejoin:round"
       d="m 58.069692,-37.854366 3.405081,3.009478 m 85.194207,0 3.40508,-3.009478 -24.78848,-16.367336 c -3.67062,-2.423634 -8.3947,-2.568359 -12.2068,-0.373961 l -9.0069,5.184748 m 46.00205,11.556549 -3.40508,3.009478 c -10.71452,9.469696 -23.79737,14.76877 -37.16245,15.897223 M 97.207578,-19.084392 C 84.341377,-20.459594 71.806834,-25.713091 61.474643,-34.844888 l -3.405081,-3.009478 23.66829,-15.627693 c 4.357291,-2.877032 9.965128,-3.048831 14.490361,-0.443919 l 7.843537,4.515063 M 80.629402,-37.06633 h 16.844237 m 11.776631,0 h 15.33817"
       inkscape:label="lips"
       sodipodi:nodetypes="ccccssccsccscssccccc"
       transform="matrix(0.13662241,0,0,0.13662241,-21.82651,-0.389421)" /><path
       id="path10"
       style="stroke-width:4;stroke-dasharray:none;display:inline;fill:none;stroke:#000000;stroke-linecap:round;stroke-linejoin:round"
       d="m 97.477554,20.700671 -1.18e-4,-60.247688 c 0,-3.252659 2.636804,-5.88946 5.889464,-5.88946 3.25265,0 5.88946,2.636801 5.88946,5.88946 l 1.9e-4,36.4206883 c 0,0 5.35145,-4.675581 8.07304,-3.560606 2.86289,1.172868 3.42344,8.627066 3.42344,8.627066 0,0 4.74512,-4.534117 7.25769,-3.560376 3.01916,1.17007199 3.56037,9.037878 3.56037,9.037878 0,0 4.57316,-5.689728 7.66851,-5.340564 2.02289,0.228188 3.75826,2.513506 4.10812,4.518939 1.2852,7.3667207 1.53408,10.5600657 -1.7e-4,17.5280067 -1.44865,6.579238 -3.09039,10.803161 -11.07844,16.903635 -5.50628,4.205143 -11.71933,5.987918 -19.86928,6.101874 -4.69063,0.06559 -9.80693,-0.190229 -13.830688,-2.601813 C 90.41059,39.637998 89.55084,37.833426 85.970887,33.572706 78.804903,25.044031 68.716755,4.9527573 68.716755,4.9527573 c 0,0 6.01183,-2.489242 9.037879,-1.917125 2.363539,0.44686 4.349986,2.245071 6.025252,3.971189 3.511364,3.6179487 3.724831,10.1096087 7.942379,12.8721297 1.621089,1.061823 5.755289,0.82172 5.755289,0.82172 z"
       sodipodi:nodetypes="cscccacacasssssacaaac"
       inkscape:label="hand"
       transform="matrix(0.13662241,0,0,0.13662241,-21.82651,-0.389421)" /><path
       style="font-size:6.04253px;line-height:0;font-family:Bosch;-inkscape-font-specification:Bosch;letter-spacing:-0.111965px;stroke:#000000;stroke-width:0.226598;stroke-linejoin:round"
       d="m -10.801592,13.206771 q -0.302127,0 -0.537785,-0.0846 -0.235659,-0.0846 -0.410892,-0.223574 -0.169191,-0.14502 -0.277957,-0.332339 -0.108765,-0.187318 -0.163148,-0.386722 l 0.314212,-0.0846 q 0.0423,0.151063 0.12085,0.296084 0.0846,0.14502 0.211489,0.259829 0.126893,0.114808 0.308169,0.187318 0.181276,0.07251 0.435062,0.07251 0.47736,0 0.743231,-0.302126 0.2658714,-0.302127 0.2658714,-0.839912 0,-0.247744 -0.07251,-0.45319 -0.066468,-0.211488 -0.193361,-0.356509 -0.126893,-0.151063 -0.314211,-0.235659 -0.181276,-0.0846 -0.40485,-0.0846 -0.350467,0 -0.561955,0.145021 -0.205446,0.14502 -0.338382,0.338381 h -0.302126 l 0.19336,-2.2840759 h 2.1511412 v 0.3142115 h -1.8610992 l -0.138978,1.5831424 q 0.12085,-0.14502 0.344424,-0.265871 0.229616,-0.126893 0.54987,-0.126893 0.277957,0 0.513615,0.102723 0.2417014,0.09668 0.4169348,0.283999 0.1812759,0.181276 0.2779564,0.447147 0.102723,0.259829 0.102723,0.586126 0,0.338381 -0.102723,0.604253 -0.102723,0.265871 -0.2900415,0.453189 -0.1812757,0.187319 -0.4350617,0.290042 -0.247744,0.09668 -0.543828,0.09668 z m 3.5075142,-0.302126 q 0.5861254,0 0.900337,-0.507573 0.3202541,-0.507572 0.3202541,-1.413952 0,-0.435062 -0.084595,-0.785529 -0.084596,-0.3504664 -0.2417012,-0.5982102 -0.1571058,-0.2477437 -0.386722,-0.3806793 -0.2235736,-0.1389782 -0.513615,-0.1389782 -0.2900415,0 -0.5196576,0.1329356 -0.2296161,0.1329357 -0.3927645,0.3806794 -0.1571057,0.2477438 -0.2417012,0.6042527 -0.084595,0.35651 -0.084595,0.797614 0,0.45319 0.084595,0.809699 0.090638,0.35651 0.2537863,0.604253 0.1631483,0.241702 0.3927645,0.368595 0.2296161,0.126893 0.513615,0.126893 z m 0.00604,0.302126 q -0.3625518,0 -0.6586357,-0.157105 -0.296084,-0.163149 -0.5136151,-0.45319 -0.2114885,-0.290042 -0.3323391,-0.694891 -0.1148081,-0.40485 -0.1148081,-0.900337 0,-0.50153 0.1148081,-0.912422 0.114808,-0.4108923 0.3262966,-0.7009337 0.2114885,-0.2900414 0.5075725,-0.4471472 0.296084,-0.1571058 0.6586358,-0.1571058 0.3625518,0 0.6586358,0.1631483 0.2960839,0.1571058 0.50153,0.4471472 0.2114885,0.2900415 0.320254,0.6948912 0.1148081,0.404849 0.1148081,0.900337 0,0.495487 -0.1148081,0.906379 -0.1087655,0.40485 -0.3142115,0.700934 -0.205446,0.290041 -0.50153,0.45319 -0.2900415,0.157105 -0.6525933,0.157105 z m 2.9939001,-2.858116 q 0.2658713,0 0.4229771,-0.175234 0.1571058,-0.1812757 0.1571058,-0.4773597 0,-0.2839989 -0.1631483,-0.4713173 -0.1571058,-0.1873184 -0.4169346,-0.1873184 -0.2598288,0 -0.4169346,0.1812759 -0.1571057,0.1752333 -0.1571057,0.4592322 0,0.296084 0.1571057,0.4834023 0.1571058,0.187319 0.4169346,0.187319 z m 0,0.253786 q -0.1812759,0 -0.3383817,-0.06647 -0.1571058,-0.07251 -0.2779564,-0.193361 -0.114808,-0.120851 -0.1873184,-0.290041 -0.066468,-0.1691912 -0.066468,-0.3625522 0,-0.193361 0.066468,-0.3565093 0.07251,-0.1691908 0.1873184,-0.2900414 0.1208506,-0.1208506 0.2779564,-0.1873184 0.1571058,-0.07251 0.3383817,-0.07251 0.1812759,0 0.3383817,0.07251 0.1631483,0.066468 0.2779564,0.1933609 0.1208506,0.1208506 0.1873184,0.2900415 0.066468,0.1631483 0.066468,0.3565092 0,0.1994035 -0.066468,0.3685947 -0.066468,0.163148 -0.1873184,0.283999 -0.1148081,0.12085 -0.2779564,0.187318 -0.1571058,0.06647 -0.3383817,0.06647 z"
       id="text4"
       transform="scale(0.97441963,1.0262519)"
       aria-label="50°"
       inkscape:label="text" /></g></svg>
