<?xml version="1.0" encoding="UTF-8" standalone="no"?>
<!-- Created with Inkscape (http://www.inkscape.org/) -->

<svg
   version="1.1"
   id="svg1"
   width="200"
   height="200"
   viewBox="0 0 200 200"
   sodipodi:docname="Silent50.svg"
   inkscape:version="1.4.2 (f4327f4, 2025-05-13)"
   xml:space="preserve"
   xmlns:inkscape="http://www.inkscape.org/namespaces/inkscape"
   xmlns:sodipodi="http://sodipodi.sourceforge.net/DTD/sodipodi-0.dtd"
   xmlns="http://www.w3.org/2000/svg"
   xmlns:svg="http://www.w3.org/2000/svg"><defs
     id="defs1"><inkscape:path-effect
       effect="fillet_chamfer"
       id="path-effect9"
       is_visible="true"
       lpeversion="1"
       nodesatellites_param="F,0,0,1,0,0,0,1 @ F,0,0,1,0,56.847065,0,1 @ F,0,0,1,0,0,0,1 @ F,0,0,1,0,7.1751956,0,1 @ F,0,0,1,0,0,0,1"
       radius="0"
       unit="px"
       method="auto"
       mode="F"
       chamfer_steps="1"
       flexible="false"
       use_knot_distance="true"
       apply_no_radius="true"
       apply_with_radius="true"
       only_selected="false"
       hide_knots="false" /><inkscape:path-effect
       effect="fillet_chamfer"
       id="path-effect6"
       is_visible="true"
       lpeversion="1"
       nodesatellites_param="F,0,0,1,0,0,0,1 @ F,0,0,1,0,56.847065,0,1 @ F,0,0,1,0,0,0,1 @ F,0,0,1,0,8.5174849,0,1 @ F,0,0,1,0,0,0,1"
       radius="0"
       unit="px"
       method="auto"
       mode="F"
       chamfer_steps="1"
       flexible="false"
       use_knot_distance="true"
       apply_no_radius="true"
       apply_with_radius="true"
       only_selected="false"
       hide_knots="false" /></defs><sodipodi:namedview
     id="namedview1"
     pagecolor="#ffffff"
     bordercolor="#000000"
     borderopacity="0.25"
     inkscape:showpageshadow="2"
     inkscape:pageopacity="0.0"
     inkscape:pagecheckerboard="0"
     inkscape:deskcolor="#d1d1d1"
     inkscape:zoom="3.6512993"
     inkscape:cx="-13.009068"
     inkscape:cy="67.510215"
     inkscape:window-width="2560"
     inkscape:window-height="1369"
     inkscape:window-x="-8"
     inkscape:window-y="-8"
     inkscape:window-maximized="1"
     inkscape:current-layer="g1"
     showguides="true"><sodipodi:guide
       position="-54.364209,86.707989"
       orientation="1,0"
       id="guide2"
       inkscape:locked="false" /><sodipodi:guide
       position="21.773071,87.80349"
       orientation="1,0"
       id="guide3"
       inkscape:locked="false" /><sodipodi:guide
       position="117.49242,87.666552"
       orientation="1,0"
       id="guide4"
       inkscape:locked="false" /><sodipodi:guide
       position="26.702823,77.943986"
       orientation="0,-1"
       id="guide5"
       inkscape:locked="false" /><sodipodi:guide
       position="69.523562,115.37232"
       orientation="-1,0"
       id="guide6"
       inkscape:locked="false"
       inkscape:label=""
       inkscape:color="rgb(0,134,229)" /></sodipodi:namedview><g
     inkscape:groupmode="layer"
     inkscape:label="Silent50"
     id="g1"
     transform="translate(19.607968,9.9734358)"><text
       xml:space="preserve"
       style="font-style:normal;font-variant:normal;font-weight:normal;font-stretch:normal;font-size:44.2287px;line-height:0;font-family:'Bosch Sans';-inkscape-font-specification:'Bosch Sans';text-align:start;letter-spacing:-0.819534px;writing-mode:lr-tb;direction:ltr;text-anchor:start;display:inline;fill:#000000;fill-opacity:1;stroke:#000000;stroke-width:1.65857;stroke-linejoin:round;stroke-opacity:1"
       x="49.83741"
       y="175.94817"
       id="text4"
       transform="scale(0.97441963,1.0262519)"><tspan
         sodipodi:role="line"
         id="tspan3"
         x="49.83741"
         y="175.94817"
         style="font-style:normal;font-variant:normal;font-weight:normal;font-stretch:normal;font-family:Bosch;-inkscape-font-specification:Bosch;fill:#000000;fill-opacity:1;stroke:#000000;stroke-width:1.65857;stroke-opacity:1">50°</tspan></text><g
       id="g12"
       inkscape:label="icon"
       transform="translate(-22.778085,78.876032)"><path
         id="path8"
         style="display:inline;fill:none;stroke:#000000;stroke-width:3.99628;stroke-linecap:round;stroke-linejoin:round"
         d="m 58.069692,-37.854366 3.405081,3.009478 m 85.194207,0 3.40508,-3.009478 -24.78848,-16.367336 c -3.67062,-2.423634 -8.3947,-2.568359 -12.2068,-0.373961 l -9.0069,5.184748 m 46.00205,11.556549 -3.40508,3.009478 c -10.71452,9.469696 -23.79737,14.76877 -37.16245,15.897223 M 97.207578,-19.084392 C 84.341377,-20.459594 71.806834,-25.713091 61.474643,-34.844888 l -3.405081,-3.009478 23.66829,-15.627693 c 4.357291,-2.877032 9.965128,-3.048831 14.490361,-0.443919 l 7.843537,4.515063 M 80.629402,-37.06633 h 16.844237 m 11.776631,0 h 15.33817"
         inkscape:label="lips"
         sodipodi:nodetypes="ccccssccsccscssccccc" /><path
         id="path10"
         style="display:inline;fill:none;stroke:#000000;stroke-width:5.4247;stroke-linecap:round;stroke-linejoin:round"
         d="m 97.477554,20.700671 -1.18e-4,-60.247688 c 0,-3.252659 2.636804,-5.88946 5.889464,-5.88946 3.25265,0 5.88946,2.636801 5.88946,5.88946 l 1.9e-4,36.4206883 c 0,0 5.35145,-4.675581 8.07304,-3.560606 2.86289,1.172868 3.42344,8.627066 3.42344,8.627066 0,0 4.74512,-4.534117 7.25769,-3.560376 3.01916,1.17007199 3.56037,9.037878 3.56037,9.037878 0,0 4.57316,-5.689728 7.66851,-5.340564 2.02289,0.228188 3.75826,2.513506 4.10812,4.518939 1.2852,7.3667207 1.53408,10.5600657 -1.7e-4,17.5280067 -1.44865,6.579238 -3.09039,10.803161 -11.07844,16.903635 -5.50628,4.205143 -11.71933,5.987918 -19.86928,6.101874 -4.69063,0.06559 -9.80693,-0.190229 -13.830688,-2.601813 C 90.41059,39.637998 89.55084,37.833426 85.970887,33.572706 78.804903,25.044031 68.716755,4.9527573 68.716755,4.9527573 c 0,0 6.01183,-2.489242 9.037879,-1.917125 2.363539,0.44686 4.349986,2.245071 6.025252,3.971189 3.511364,3.6179487 3.724831,10.1096087 7.942379,12.8721297 1.621089,1.061823 5.755289,0.82172 5.755289,0.82172 z"
         sodipodi:nodetypes="cscccacacasssssacaaac"
         inkscape:label="hand" /></g></g></svg>
