<?xml version="1.0" encoding="UTF-8" standalone="no"?>
<!-- Created with Inkscape (http://www.inkscape.org/) -->

<svg
   version="1.1"
   id="svg1"
   width="24"
   height="24"
   viewBox="0 0 24 24"
   sodipodi:docname="Silent_50.svg"
   inkscape:version="1.4.2 (f4327f4, 2025-05-13)"
   xml:space="preserve"
   xmlns:inkscape="http://www.inkscape.org/namespaces/inkscape"
   xmlns:sodipodi="http://sodipodi.sourceforge.net/DTD/sodipodi-0.dtd"
   xmlns:xlink="http://www.w3.org/1999/xlink"
   xmlns="http://www.w3.org/2000/svg"
   xmlns:svg="http://www.w3.org/2000/svg"><defs
     id="defs1"><color-profile
       name="Agfa-:-Swop-Standard"
       xlink:href="../../../../../../../../../windows/system32/spool/drivers/color/RSWOP.icm"
       id="color-profile2" /><inkscape:path-effect
       effect="fillet_chamfer"
       id="path-effect9"
       is_visible="true"
       lpeversion="1"
       nodesatellites_param="F,0,0,1,0,0,0,1 @ F,0,0,1,0,56.847065,0,1 @ F,0,0,1,0,0,0,1 @ F,0,0,1,0,7.1751956,0,1 @ F,0,0,1,0,0,0,1"
       radius="0"
       unit="px"
       method="auto"
       mode="F"
       chamfer_steps="1"
       flexible="false"
       use_knot_distance="true"
       apply_no_radius="true"
       apply_with_radius="true"
       only_selected="false"
       hide_knots="false" /><inkscape:path-effect
       effect="fillet_chamfer"
       id="path-effect6"
       is_visible="true"
       lpeversion="1"
       nodesatellites_param="F,0,0,1,0,0,0,1 @ F,0,0,1,0,56.847065,0,1 @ F,0,0,1,0,0,0,1 @ F,0,0,1,0,8.5174849,0,1 @ F,0,0,1,0,0,0,1"
       radius="0"
       unit="px"
       method="auto"
       mode="F"
       chamfer_steps="1"
       flexible="false"
       use_knot_distance="true"
       apply_no_radius="true"
       apply_with_radius="true"
       only_selected="false"
       hide_knots="false" /></defs><sodipodi:namedview
     id="namedview1"
     pagecolor="#ffffff"
     bordercolor="#000000"
     borderopacity="0.25"
     inkscape:showpageshadow="2"
     inkscape:pageopacity="0.0"
     inkscape:pagecheckerboard="false"
     inkscape:deskcolor="#d1d1d1"
     inkscape:zoom="29.210394"
     inkscape:cx="14.994663"
     inkscape:cy="10.424372"
     inkscape:window-width="2560"
     inkscape:window-height="1369"
     inkscape:window-x="-8"
     inkscape:window-y="-8"
     inkscape:window-maximized="1"
     inkscape:current-layer="g1"
     showguides="true"><sodipodi:guide
       position="-54.364209,86.707989"
       orientation="1,0"
       id="guide2"
       inkscape:locked="false" /><sodipodi:guide
       position="117.49242,87.666552"
       orientation="1,0"
       id="guide4"
       inkscape:locked="false" /><sodipodi:guide
       position="26.702823,77.943986"
       orientation="0,-1"
       id="guide5"
       inkscape:locked="false" /><sodipodi:guide
       position="69.523562,115.37232"
       orientation="-1,0"
       id="guide6"
       inkscape:locked="false"
       inkscape:label=""
       inkscape:color="rgb(0,134,229)" /></sodipodi:namedview><g
     inkscape:groupmode="layer"
     inkscape:label="Silent50"
     id="g1"
     transform="translate(19.607968,9.3332303)"><path
       id="path8"
       style="display:inline;fill:none;stroke:#000000;stroke-width:0.447412;stroke-linecap:round;stroke-linejoin:round;stroke-dasharray:none"
       d="m -12.753439,-5.0637464 0.380869,0.336619 m 9.5292196,0 0.3808682,-0.336619 -2.7726639,-1.8307342 c -0.4105696,-0.2710906 -0.9389717,-0.2872784 -1.3653662,-0.041829 l -1.007448,0.5799292 m 5.1454635,1.2926336 -0.3808681,0.336619 c -1.1984504,1.0592131 -2.6618053,1.65193 -4.1567285,1.7781508 M -8.3757525,-2.96427 c -1.439122,-0.1538203 -2.8411465,-0.7414393 -3.9968325,-1.7628574 l -0.380868,-0.336619 2.647367,-1.748003 c 0.4873755,-0.3218044 1.1146285,-0.3410206 1.6207886,-0.049653 l 0.8773225,0.505023 m -2.6220951,1.3807778 h 1.8840772 m 1.3172505,0 h 1.715619"
       inkscape:label="lips"
       sodipodi:nodetypes="ccccssccsccscssccccc" /><path
       id="path10"
       style="display:inline;fill:none;stroke:#000000;stroke-width:0.447412;stroke-linecap:round;stroke-linejoin:round;stroke-dasharray:none"
       d="m -8.3372938,1.4861086 -1.32e-5,-6.7388797 c 0,-0.3638193 0.2949342,-0.6587532 0.6587538,-0.6587532 0.3638184,0 0.6587533,0.2949339 0.6587533,0.6587532 l 2.13e-5,4.0737603 c 0,0 0.5985753,-0.5229774 0.902993,-0.3982642 0.3202226,0.1311887 0.3829218,0.96496254 0.3829218,0.96496254 0,0 0.5307555,-0.50715424 0.8117938,-0.39823844 0.3377018,0.13087596 0.3982377,1.0109130236 0.3982377,1.0109130236 0,0 0.5115213,-0.6364126836 0.8577452,-0.5973576636 0.2262662,0.0255235 0.4203724,0.28114296 0.4595053,0.50545651 0.1437533,0.82398917 0.1715913,1.18117413 -1.91e-5,1.96055863 C -3.3686366,2.6049266 -3.55227,3.0773847 -4.4457567,3.7597406 -5.0616502,4.230098 -5.7565979,4.4295067 -6.6681936,4.4422529 -7.1928543,4.4495929 -7.7651274,4.4209759 -8.2151965,4.1512325 -9.1277543,3.6043039 -9.2239203,3.4024573 -9.6243483,2.9258833 -10.425882,1.9719261 -11.55427,-0.27534144 -11.55427,-0.27534144 c 0,0 0.67244,-0.27842899 1.010912,-0.214436 0.264369,0.0499825 0.486559,0.25111774 0.67394,0.44418907 0.3927567,0.40467806 0.4166337,1.13078917 0.8883787,1.43978517 0.1813232,0.1187681 0.6437455,0.091912 0.6437455,0.091912 z"
       sodipodi:nodetypes="cscccacacasssssacaaac"
       inkscape:label="hand" /><path
       style="font-size:6.04253px;line-height:0;font-family:Bosch;-inkscape-font-specification:Bosch;letter-spacing:-0.111965px;stroke:#000000;stroke-width:0.266259;stroke-linejoin:round"
       d="m -11.035895,12.53364 q -0.345926,0 -0.615748,-0.102017 -0.269822,-0.102017 -0.470458,-0.269602 -0.193719,-0.174876 -0.318253,-0.400759 -0.124532,-0.225882 -0.186799,-0.466338 l 0.359764,-0.102017 q 0.04843,0.182163 0.138369,0.35704 0.09686,0.174876 0.242148,0.31332 0.145289,0.138445 0.352845,0.225883 0.207555,0.08744 0.498132,0.08744 0.546563,0 0.850977,-0.364326 0.3044147,-0.364327 0.3044147,-1.012828 0,-0.298749 -0.083022,-0.54649 -0.076104,-0.2550297 -0.2213917,-0.4299067 -0.145289,-0.1821631 -0.359762,-0.2841753 -0.207556,-0.1020172 -0.463541,-0.1020172 -0.401275,0 -0.643422,0.174877 -0.235229,0.174876 -0.387437,0.4080452 h -0.345925 l 0.221391,-2.7543081 h 2.4629918 v 0.3788996 h -2.1309018 l -0.159126,1.9090706 q 0.138369,-0.174876 0.394355,-0.3206067 0.262903,-0.1530178 0.629584,-0.1530178 0.318253,0 0.588074,0.1238714 0.276741,0.1165844 0.4773778,0.342467 0.2075555,0.2185966 0.3182517,0.539204 0.1176147,0.31332 0.1176147,0.706794 0,0.408045 -0.1176147,0.728652 -0.1176147,0.320608 -0.3320888,0.54649 -0.2075547,0.225882 -0.4981327,0.349754 -0.283659,0.116584 -0.622666,0.116584 z m 4.0159978,-0.364326 q 0.671096,0 1.0308588,-0.612069 0.3666813,-0.612068 0.3666813,-1.7050484 0,-0.5246301 -0.096859,-0.94725 -0.096859,-0.4226179 -0.2767403,-0.7213654 -0.1798815,-0.2987481 -0.4427851,-0.4590518 -0.255985,-0.1675901 -0.5880737,-0.1675901 -0.3320887,0 -0.5949922,0.1603035 -0.2629035,0.1603038 -0.4497035,0.4590513 -0.1798813,0.2987485 -0.2767406,0.7286525 -0.096859,0.429907 -0.096859,0.9618222 0,0.5464902 0.096859,0.9763952 0.1037778,0.429907 0.2905776,0.728654 0.1867999,0.291461 0.4497035,0.444479 0.2629036,0.153017 0.5880732,0.153017 z m 0.00692,0.364326 q -0.4151109,0 -0.754118,-0.189449 -0.3390073,-0.196737 -0.5880738,-0.54649 -0.2421479,-0.349754 -0.3805182,-0.837951 -0.1314518,-0.488199 -0.1314518,-1.0856941 0,-0.6047821 0.1314518,-1.1002658 0.1314517,-0.4954848 0.3735997,-0.8452378 0.242148,-0.3497535 0.5811553,-0.5392033 0.3390071,-0.1894498 0.754118,-0.1894498 0.4151109,0 0.7541182,0.1967363 0.3390072,0.1894498 0.5742367,0.5392033 0.242148,0.3497536 0.3666811,0.8379513 0.1314519,0.4881966 0.1314519,1.0856936 0,0.5974953 -0.1314519,1.0929793 -0.1245331,0.488197 -0.3597626,0.845238 -0.2352295,0.349753 -0.5742367,0.54649 -0.3320889,0.189449 -0.7471997,0.189449 z m 3.4279253,-3.4465293 q 0.3044146,0 0.484296,-0.2113095 0.1798815,-0.2185955 0.1798815,-0.5756357 0,-0.3424672 -0.1867999,-0.5683496 -0.1798814,-0.2258823 -0.4773776,-0.2258823 -0.2974961,0 -0.4773775,0.2185958 -0.1798813,0.2113094 -0.1798813,0.5537759 0,0.3570401 0.1798813,0.5829228 0.1798814,0.2258826 0.4773775,0.2258826 z m 0,0.3060346 q -0.2075554,0 -0.3874368,-0.08015 -0.1798815,-0.087439 -0.3182517,-0.2331687 -0.1314517,-0.1457307 -0.2144739,-0.3497531 -0.076104,-0.2040233 -0.076104,-0.4371921 0,-0.2331691 0.076104,-0.4299054 0.083021,-0.2040228 0.2144739,-0.3497534 0.1383702,-0.1457307 0.3182517,-0.2258824 0.1798814,-0.087438 0.3874368,-0.087438 0.2075555,0 0.3874369,0.087438 0.1867999,0.080152 0.3182517,0.2331689 0.1383703,0.1457306 0.2144739,0.3497535 0.076104,0.1967364 0.076104,0.4299049 0,0.2404558 -0.076104,0.4444792 -0.076104,0.1967363 -0.2144739,0.342467 -0.1314518,0.1457297 -0.3182517,0.2258816 -0.1798814,0.08015 -0.3874369,0.08015 z"
       id="text4"
       aria-label="50°"
       inkscape:label="text" /></g></svg>
