<?xml version="1.0" encoding="UTF-8" standalone="no"?>
<!-- Created with Inkscape (http://www.inkscape.org/) -->

<svg
   version="1.1"
   id="svg1"
   width="24"
   height="24"
   viewBox="0 0 24 24"
   sodipodi:docname="Silent_50.svg"
   inkscape:version="1.4.2 (f4327f4, 2025-05-13)"
   xml:space="preserve"
   xmlns:inkscape="http://www.inkscape.org/namespaces/inkscape"
   xmlns:sodipodi="http://sodipodi.sourceforge.net/DTD/sodipodi-0.dtd"
   xmlns:xlink="http://www.w3.org/1999/xlink"
   xmlns="http://www.w3.org/2000/svg"
   xmlns:svg="http://www.w3.org/2000/svg"><defs
     id="defs1"><color-profile
       name="Agfa-:-Swop-Standard"
       xlink:href="../../../../../../../../../windows/system32/spool/drivers/color/RSWOP.icm"
       id="color-profile2" /><inkscape:path-effect
       effect="fillet_chamfer"
       id="path-effect9"
       is_visible="true"
       lpeversion="1"
       nodesatellites_param="F,0,0,1,0,0,0,1 @ F,0,0,1,0,56.847065,0,1 @ F,0,0,1,0,0,0,1 @ F,0,0,1,0,7.1751956,0,1 @ F,0,0,1,0,0,0,1"
       radius="0"
       unit="px"
       method="auto"
       mode="F"
       chamfer_steps="1"
       flexible="false"
       use_knot_distance="true"
       apply_no_radius="true"
       apply_with_radius="true"
       only_selected="false"
       hide_knots="false" /><inkscape:path-effect
       effect="fillet_chamfer"
       id="path-effect6"
       is_visible="true"
       lpeversion="1"
       nodesatellites_param="F,0,0,1,0,0,0,1 @ F,0,0,1,0,56.847065,0,1 @ F,0,0,1,0,0,0,1 @ F,0,0,1,0,8.5174849,0,1 @ F,0,0,1,0,0,0,1"
       radius="0"
       unit="px"
       method="auto"
       mode="F"
       chamfer_steps="1"
       flexible="false"
       use_knot_distance="true"
       apply_no_radius="true"
       apply_with_radius="true"
       only_selected="false"
       hide_knots="false" /></defs><sodipodi:namedview
     id="namedview1"
     pagecolor="#ffffff"
     bordercolor="#000000"
     borderopacity="0.25"
     inkscape:showpageshadow="2"
     inkscape:pageopacity="0.0"
     inkscape:pagecheckerboard="false"
     inkscape:deskcolor="#d1d1d1"
     inkscape:zoom="29.210394"
     inkscape:cx="15.046014"
     inkscape:cy="10.424372"
     inkscape:window-width="2560"
     inkscape:window-height="1369"
     inkscape:window-x="-8"
     inkscape:window-y="-8"
     inkscape:window-maximized="1"
     inkscape:current-layer="g1"
     showguides="true"><sodipodi:guide
       position="-54.364209,86.707989"
       orientation="1,0"
       id="guide2"
       inkscape:locked="false" /><sodipodi:guide
       position="117.49242,87.666552"
       orientation="1,0"
       id="guide4"
       inkscape:locked="false" /><sodipodi:guide
       position="26.702823,77.943986"
       orientation="0,-1"
       id="guide5"
       inkscape:locked="false" /><sodipodi:guide
       position="69.523562,115.37232"
       orientation="-1,0"
       id="guide6"
       inkscape:locked="false"
       inkscape:label=""
       inkscape:color="rgb(0,134,229)" /></sodipodi:namedview><g
     inkscape:groupmode="layer"
     inkscape:label="Silent50"
     id="g1"
     transform="translate(19.607968,9.3332303)"><path
       id="path10"
       style="display:inline;fill:none;stroke:#000000;stroke-width:1.73458;stroke-linecap:round;stroke-linejoin:round;stroke-dasharray:none"
       d="m -9.0307575,8.0997261 -2.54e-5,-12.9875771 c 0,-0.7011745 0.5684151,-1.2695891 1.2695902,-1.2695891 0.7011728,0 1.2695892,0.5684146 1.2695892,1.2695891 l 4.11e-5,7.8511976 c 0,0 1.1536105,-1.0079138 1.7403028,-0.767559 0.6171524,0.2528348 0.7379901,1.8597343 0.7379901,1.8597343 0,0 1.0229041,-0.9774184 1.5645382,-0.7675092 0.6508395,0.252232 0.767508,1.9482928 0.767508,1.9482928 0,0 0.98583489,-1.2265331 1.65309847,-1.1512639 0.43607372,0.04919 0.81016694,0.5418357 0.88558622,0.9741464 0.27705011,1.5880418 0.33070121,2.2764302 -3.68e-5,3.7785072 -0.31228504,1.4182848 -0.66619436,2.3288338 -2.38817589,3.6439118 -1.1869875,0.906501 -2.5263328,1.290814 -4.2832151,1.315379 -1.011158,0.01414 -2.1140773,-0.04101 -2.9814777,-0.560872 -1.7587389,-1.054074 -1.9440759,-1.443085 -2.7158049,-2.361567 -1.544764,-1.8385238 -3.719462,-6.1695942 -3.719462,-6.1695942 0,0 1.295967,-0.5366052 1.948291,-0.413274 0.509508,0.096329 0.937726,0.4839693 1.298858,0.8560681 0.756945,0.77992 0.802962,2.1793253 1.712137,2.7748411 0.3494593,0.2288971 1.2406675,0.1771384 1.2406675,0.1771381 z"
       sodipodi:nodetypes="cscccacacasssssacaaac"
       inkscape:label="hand" /><path
       id="path8"
       style="display:inline;fill:none;stroke:#000000;stroke-width:1.73458;stroke-linecap:round;stroke-linejoin:round;stroke-dasharray:none"
       d="m -17.524678,-4.5235511 0.734033,0.6487525 m 18.3652899,0 0.7340323,-0.6487525 -5.3436458,-3.5283019 c -0.7912746,-0.5224622 -1.809643,-0.5536602 -2.6314164,-0.080615 l -1.9416148,1.1176747 m 9.9166488,2.4912414 -0.734032,0.6487524 c -2.30972584,2.0413798 -5.1299924,3.18369964 -8.0110988,3.42696002 m -2.6512536,-0.0294736 C -11.861299,-0.77376487 -14.563365,-1.9062598 -16.790674,-3.8747986 l -0.73403,-0.6487525 5.102165,-3.3688573 c 0.9393,-0.6202009 2.14818,-0.6572356 3.123682,-0.095694 l 1.6908291,0.9733108 m -5.0534601,2.6611186 h 3.6311072 m 2.538685,0 h 3.3064448"
       inkscape:label="lips"
       sodipodi:nodetypes="ccccssccsccscssccccc" /></g></svg>
