<?xml version="1.0" encoding="UTF-8" standalone="no"?>
<!-- Created with Inkscape (http://www.inkscape.org/) -->

<svg
   version="1.1"
   id="svg1"
   width="24"
   height="24"
   viewBox="0 0 24 24"
   sodipodi:docname="Silent_50.svg"
   inkscape:version="1.4.2 (f4327f4, 2025-05-13)"
   xml:space="preserve"
   xmlns:inkscape="http://www.inkscape.org/namespaces/inkscape"
   xmlns:sodipodi="http://sodipodi.sourceforge.net/DTD/sodipodi-0.dtd"
   xmlns:xlink="http://www.w3.org/1999/xlink"
   xmlns="http://www.w3.org/2000/svg"
   xmlns:svg="http://www.w3.org/2000/svg"><defs
     id="defs1"><color-profile
       name="Agfa-:-Swop-Standard"
       xlink:href="../../../../../../../../../windows/system32/spool/drivers/color/RSWOP.icm"
       id="color-profile2" /><inkscape:path-effect
       effect="fillet_chamfer"
       id="path-effect9"
       is_visible="true"
       lpeversion="1"
       nodesatellites_param="F,0,0,1,0,0,0,1 @ F,0,0,1,0,56.847065,0,1 @ F,0,0,1,0,0,0,1 @ F,0,0,1,0,7.1751956,0,1 @ F,0,0,1,0,0,0,1"
       radius="0"
       unit="px"
       method="auto"
       mode="F"
       chamfer_steps="1"
       flexible="false"
       use_knot_distance="true"
       apply_no_radius="true"
       apply_with_radius="true"
       only_selected="false"
       hide_knots="false" /><inkscape:path-effect
       effect="fillet_chamfer"
       id="path-effect6"
       is_visible="true"
       lpeversion="1"
       nodesatellites_param="F,0,0,1,0,0,0,1 @ F,0,0,1,0,56.847065,0,1 @ F,0,0,1,0,0,0,1 @ F,0,0,1,0,8.5174849,0,1 @ F,0,0,1,0,0,0,1"
       radius="0"
       unit="px"
       method="auto"
       mode="F"
       chamfer_steps="1"
       flexible="false"
       use_knot_distance="true"
       apply_no_radius="true"
       apply_with_radius="true"
       only_selected="false"
       hide_knots="false" /></defs><sodipodi:namedview
     id="namedview1"
     pagecolor="#ffffff"
     bordercolor="#000000"
     borderopacity="0.25"
     inkscape:showpageshadow="2"
     inkscape:pageopacity="0.0"
     inkscape:pagecheckerboard="false"
     inkscape:deskcolor="#d1d1d1"
     inkscape:zoom="29.210394"
     inkscape:cx="15.01178"
     inkscape:cy="10.424372"
     inkscape:window-width="2560"
     inkscape:window-height="1369"
     inkscape:window-x="-8"
     inkscape:window-y="-8"
     inkscape:window-maximized="1"
     inkscape:current-layer="g1"
     showguides="true"><sodipodi:guide
       position="-54.364209,86.707989"
       orientation="1,0"
       id="guide2"
       inkscape:locked="false" /><sodipodi:guide
       position="117.49242,87.666552"
       orientation="1,0"
       id="guide4"
       inkscape:locked="false" /><sodipodi:guide
       position="26.702823,77.943986"
       orientation="0,-1"
       id="guide5"
       inkscape:locked="false" /><sodipodi:guide
       position="69.523562,115.37232"
       orientation="-1,0"
       id="guide6"
       inkscape:locked="false"
       inkscape:label=""
       inkscape:color="rgb(0,134,229)" /></sodipodi:namedview><g
     inkscape:groupmode="layer"
     inkscape:label="Silent50"
     id="g1"
     transform="translate(19.607968,9.3332303)"><g
       id="g2"
       transform="translate(-3.579225)"><path
         id="path8"
         style="display:inline;fill:none;stroke:#000000;stroke-width:0.745668;stroke-linecap:round;stroke-linejoin:round;stroke-dasharray:none"
         d="m -12.604311,-3.5508528 0.634765,0.5610174 m 15.8816305,0 0.6347643,-0.5610174 -4.62098938,-3.0511464 C -0.7584059,-7.0538054 -1.6390537,-7.0807843 -2.3496932,-6.6717124 l -1.6790375,0.9665242 m 8.5755551,2.1543347 -0.634764,0.5610174 c -1.9973667,1.7653105 -4.43622974,2.75314692 -6.9277052,2.96350959 M -5.3083519,-0.0518142 C -7.7068278,-0.30817486 -10.043476,-1.287515 -11.969571,-2.9898354 l -0.634763,-0.5610174 4.412166,-2.9132645 c 0.812272,-0.5363271 1.8576671,-0.5683533 2.7012459,-0.082753 l 1.4621671,0.8416836 m -4.3700477,2.301238 h 3.140049 m 2.1953619,0 h 2.85929251"
         inkscape:label="lips"
         sodipodi:nodetypes="ccccssccsccscssccccc" /><path
         id="path10"
         style="display:inline;fill:none;stroke:#000000;stroke-width:0.745668;stroke-linecap:round;stroke-linejoin:round;stroke-dasharray:none"
         d="m -5.2442557,7.3652955 -2.2e-5,-11.2311815 c 0,-0.6063501 0.4915446,-1.0978942 1.0978952,-1.0978942 0.6063486,0 1.0978943,0.4915441 1.0978943,1.0978942 l 3.55e-5,6.7894284 c 0,0 0.9976002,-0.8716069 1.5049502,-0.6637569 0.5336908,0.2186423 0.63818682,1.6082302 0.63818682,1.6082302 0,0 0.88457008,-0.8452357 1.35295537,-0.6637139 0.56282211,0.218121 0.66371271,1.6848123 0.66371271,1.6848123 0,0 0.8525139,-1.0606609 1.4295391,-0.9955709 0.3771007,0.042538 0.7006029,0.4685597 0.7658227,0.8424062 0.2395828,1.3732805 0.2859783,1.9685736 -3.18e-5,3.2675149 -0.2700527,1.2264805 -0.5761006,2.0138907 -2.0652073,3.1511217 -1.02646318,0.783909 -2.18467998,1.116249 -3.7039676,1.137492 -0.8744124,0.01223 -1.8281767,-0.03546 -2.5782728,-0.485022 -1.5208912,-0.911525 -1.6811638,-1.247927 -2.3485268,-2.0421969 -1.3358557,-1.5898883 -3.2164549,-5.3352393 -3.2164549,-5.3352393 0,0 1.1207051,-0.4640366 1.6848108,-0.3573843 0.4406039,0.083302 0.8109112,0.418519 1.1232049,0.7402964 0.6545779,0.6744463 0.6943719,1.8846008 1.4805936,2.3995811 0.3021977,0.1979418 1.072882,0.1531828 1.072882,0.1531825 z"
         sodipodi:nodetypes="cscccacacasssssacaaac"
         inkscape:label="hand" /></g></g></svg>
