<svg width="24" height="24" viewBox="0 0 24 24" xmlns="http://www.w3.org/2000/svg" xmlns:svg="http://www.w3.org/2000/svg">
  <g transform="translate(-5.326 3.014)scale(.1602)">
    <path d="M43.892 89.979h13.225V70.96Zm13.225 2.167H41.415v-2.61l15.525 -22.07h2.698V89.98h4.378v2.167h-4.378v6.944h-2.521Zm19.127 7.298q-2.211 0 -3.936 -0.62q-1.725 -0.619 -3.008 -1.636q-1.238 -1.062 -2.034 -2.433t-1.194 -2.83l2.3 -0.62q0.31 1.106 0.884 2.168q0.62 1.061 1.548 1.902q0.929 0.84 2.256 1.37t3.184 0.531q3.494 0 5.44 -2.211t1.946 -6.148q0 -1.813 -0.53 -3.317q-0.487 -1.548 -1.416 -2.61q-0.928 -1.105 -2.3 -1.724q-1.326 -0.62 -2.963 -0.62q-2.565 0 -4.113 1.062q-1.504 1.061 -2.477 2.477H67.62l1.415 -16.719H84.78v2.3H71.158L70.14 81.354q0.884 -1.061 2.52 -1.946q1.681 -0.929 4.026 -0.929q2.034 0 3.759 0.752q1.77 0.708 3.052 2.079q1.327 1.327 2.034 3.273q0.752 1.902 0.752 4.29q0 2.477 -0.752 4.423t-2.123 3.317q-1.327 1.371 -3.184 2.123q-1.814 0.708 -3.98 0.708zm20.41 -20.92q1.947 0 3.097 -1.283q1.15 -1.327 1.15 -3.494q0 -2.079 -1.195 -3.45q-1.15 -1.371 -3.051 -1.371t-3.052 1.327q-1.15 1.282 -1.15 3.361q0 2.167 1.15 3.538t3.052 1.371zm0 1.857q-1.326 0 -2.476 -0.486q-1.15 -0.531 -2.035 -1.416q-0.84 -0.884 -1.37 -2.123q-0.487 -1.238 -0.487 -2.653t0.486 -2.61q0.53 -1.238 1.371 -2.123q0.885 -0.884 2.035 -1.371q1.15 -0.53 2.477 -0.53t2.476 0.53q1.194 0.487 2.035 1.415q0.884 0.885 1.37 2.123q0.487 1.194 0.487 2.61q0 1.46 -0.486 2.698q-0.487 1.194 -1.371 2.078q-0.84 0.885 -2.035 1.372q-1.15 0.486 -2.476 0.486zm10.503 5.661h8.714v2.433h-8.714zm23.241 11.279q1.681 0 3.052 -0.575q1.415 -0.62 2.433 -1.681q1.017 -1.106 1.548 -2.565q0.575 -1.504 0.575 -3.317q0 -1.77 -0.531 -3.23q-0.487 -1.459 -1.46 -2.476q-0.973 -1.061 -2.344 -1.636t-3.096 -0.575q-1.68 0 -3.14 0.619q-1.46 0.575 -2.521 1.636q-1.062 1.018 -1.68 2.477q-0.576 1.415 -0.576 3.14t0.575 3.23q0.575 1.503 1.592 2.609q1.062 1.105 2.477 1.724q1.416 0.62 3.096 0.62zm0 2.123q-2.786 0 -4.91 -1.195q-2.122 -1.238 -3.493 -3.228q-1.15 -1.68 -1.68 -4.07q-0.532 -2.432 -0.532 -6.147q0 -4.07 0.797 -7.342q0.796 -3.317 2.255 -5.617q1.504 -2.3 3.583 -3.538q2.078 -1.239 4.688 -1.239q3.317 0 5.396 1.725t3.096 4.733l-2.344 0.663q-0.487 -1.106 -1.017 -1.99q-0.531 -0.929 -1.283 -1.548q-0.708 -0.664 -1.725 -1.017q-0.973 -0.354 -2.3 -0.354q-1.99 0 -3.538 1.061q-1.548 1.062 -2.654 3.052q-1.106 1.946 -1.725 4.732q-0.62 2.787 -0.663 6.192q1.105 -2.211 3.228 -3.67q2.168 -1.504 5.22 -1.504q2.21 0 4.024 0.752q1.814 0.751 3.096 2.078q1.327 1.327 2.035 3.14q0.752 1.814 0.752 3.937q0 2.256 -0.752 4.202q-0.708 1.901 -2.035 3.273q-1.327 1.37 -3.228 2.167q-1.902 0.752 -4.29 0.752zm23.374 0q-2.212 0 -3.936 -0.62q-1.725 -0.619 -3.008 -1.636q-1.238 -1.062 -2.035 -2.433q-0.796 -1.37 -1.194 -2.83l2.3 -0.62q0.31 1.106 0.885 2.168q0.619 1.061 1.548 1.902q0.929 0.84 2.255 1.37q1.327 0.531 3.185 0.531q3.494 0 5.44 -2.211t1.946 -6.148q0 -1.813 -0.53 -3.317q-0.487 -1.548 -1.416 -2.61q-0.929 -1.105 -2.3 -1.724q-1.327 -0.62 -2.963 -0.62q-2.565 0 -4.113 1.062q-1.504 1.061 -2.477 2.477h-2.212l1.416 -16.719h15.745v2.3h-13.622l-1.018 11.588q0.885 -1.061 2.521 -1.946q1.681 -0.929 4.025 -0.929q2.035 0 3.76 0.752q1.769 0.708 3.051 2.079q1.327 1.327 2.035 3.273q0.752 1.902 0.752 4.29q0 2.477 -0.752 4.423t-2.123 3.317q-1.327 1.371 -3.185 2.123q-1.813 0.708 -3.98 0.708zm20.41 -20.92q1.946 0 3.096 -1.283q1.15 -1.327 1.15 -3.494q0 -2.079 -1.194 -3.45q-1.15 -1.371 -3.052 -1.371t-3.052 1.327q-1.15 1.282 -1.15 3.361q0 2.167 1.15 3.538t3.052 1.371zm0 1.857q-1.327 0 -2.477 -0.486q-1.15 -0.531 -2.034 -1.416q-0.84 -0.884 -1.371 -2.123q-0.487 -1.238 -0.487 -2.653t0.487 -2.61q0.53 -1.238 1.37 -2.123q0.885 -0.884 2.035 -1.371q1.15 -0.53 2.477 -0.53t2.477 0.53q1.194 0.487 2.035 1.415q0.884 0.885 1.37 2.123q0.487 1.194 0.487 2.61q0 1.46 -0.486 2.698q-0.487 1.194 -1.371 2.078q-0.84 0.885 -2.035 1.372q-1.15 0.486 -2.477 0.486z" stroke="#000" stroke-width="1.659" stroke-linejoin="round"/>
    <path d="M72.457 35.868h15.127l3.04 8.805h4.221L82.18 9.354h-3.957l-12.786 35.32h4.005zm1.182 -3.402l6.37 -18.359l6.368 18.359zm42.116 12.207h4.102V18.835h-4.102v15.802c0 1.954 -0.53 3.57 -1.616 4.801c-1.255 1.423 -2.992 2.123 -5.211 2.123c-1.713 0 -2.992 -0.458 -3.836 -1.35q-1.447 -1.521 -1.447 -5.067V18.835h-4.102V34.83c0 3.112 0.628 5.549 1.858 7.286c1.423 2.002 3.595 2.991 6.49 2.991c3.642 0 6.272 -1.471 7.864 -4.39zm10.32 -22.436h3.956v16.55c0 1.81 0.53 3.28 1.616 4.39c1.23 1.279 2.944 1.93 5.187 1.93q2.968 0 5.356 -1.809l-1.592 -2.823c-1.086 0.82 -2.268 1.23 -3.498 1.23q-2.968 0 -2.968 -3.69V22.237h6.514v-3.402h-6.514V11.14l-4.101 0.989v6.706h-3.956zm30.608 -3.836c-3.354 0 -6.152 1.11 -8.42 3.305c-2.581 2.533 -3.884 5.887 -3.884 10.06c0 3.595 1.013 6.61 3.016 9.071c2.34 2.847 5.38 4.27 9.143 4.27c3.33 0 6.128 -1.11 8.371 -3.305c2.582 -2.533 3.885 -5.91 3.885 -10.084c0 -3.57 -1.014 -6.586 -3.016 -9.047c-2.292 -2.846 -5.332 -4.27 -9.095 -4.27zm0 3.402q3.293 0 5.428 2.388c1.616 1.834 2.437 4.367 2.437 7.575c0 2.823 -0.628 5.139 -1.906 6.9c-1.448 2.027 -3.474 3.04 -6.104 3.04c-2.244 0 -4.077 -0.772 -5.5 -2.34c-1.617 -1.786 -2.413 -4.295 -2.413 -7.527q0 -4.38 1.882 -7.02c1.447 -2.003 3.498 -3.016 6.176 -3.016z" stroke="#000" stroke-width="1.575" stroke-linejoin="round"/>
  </g>
</svg>
