<svg width="24" height="24" viewBox="0 0 24 24" xmlns="http://www.w3.org/2000/svg" xmlns:svg="http://www.w3.org/2000/svg">
  <g transform="translate(-5.326 3.014)scale(.1602)">
    <path d="M42.637 107.946H55.55V88.389Zm12.913 2.229H40.22v-2.684l15.157-22.695h2.634v23.15h4.275v2.229h-4.275v7.14H55.55zm18.676 7.504q-2.16 0-3.844-.637t-2.936-1.683q-1.21-1.091-1.987-2.501t-1.166-2.91l2.246-.638q.302 1.137.863 2.229.605 1.092 1.512 1.956t2.202 1.41q1.296.545 3.11.545 3.411 0 5.311-2.274t1.9-6.322q0-1.864-.518-3.41-.475-1.593-1.382-2.684-.907-1.137-2.245-1.774-1.296-.637-2.894-.637-2.504 0-4.016 1.092-1.468 1.091-2.418 2.547h-2.16l1.382-17.192H82.56v2.365h-13.3l-.994 11.916q.864-1.092 2.462-2.001 1.64-.955 3.93-.955 1.986 0 3.67.773 1.727.728 2.98 2.138 1.295 1.364 1.986 3.365.734 1.956.734 4.412 0 2.547-.734 4.548t-2.073 3.411q-1.295 1.41-3.109 2.183-1.77.728-3.886.728zm19.928-21.513q1.9 0 3.023-1.319 1.123-1.364 1.123-3.593 0-2.137-1.166-3.547-1.123-1.41-2.98-1.41t-2.98 1.364q-1.123 1.32-1.123 3.457 0 2.228 1.123 3.638t2.98 1.41zm0 1.91q-1.296 0-2.418-.5-1.123-.546-1.987-1.455-.82-.91-1.339-2.183-.475-1.274-.475-2.73t.475-2.683q.519-1.273 1.339-2.183.864-.91 1.987-1.41 1.122-.545 2.418-.545 1.295 0 2.418.545 1.166.5 1.987 1.456.863.91 1.338 2.183.475 1.228.475 2.683 0 1.501-.475 2.775-.475 1.228-1.338 2.137-.82.91-1.987 1.41-1.123.5-2.418.5zm10.255 5.822h8.507v2.502h-8.507zm22.692 11.598q1.64 0 2.98-.591 1.382-.637 2.375-1.729.993-1.137 1.511-2.638.562-1.546.562-3.41 0-1.82-.519-3.32-.475-1.502-1.425-2.548-.95-1.091-2.288-1.683-1.34-.59-3.023-.59-1.641 0-3.066.636-1.426.591-2.462 1.683-1.036 1.046-1.641 2.547-.561 1.455-.561 3.229t.561 3.32 1.555 2.683q1.036 1.137 2.418 1.774t3.023.637zm0 2.183q-2.72 0-4.794-1.228-2.072-1.274-3.411-3.32-1.123-1.728-1.641-4.184-.518-2.502-.518-6.322 0-4.185.777-7.55.777-3.411 2.202-5.776 1.469-2.366 3.498-3.639t4.578-1.273q3.239 0 5.268 1.773 2.03 1.774 3.023 4.867l-2.289.682q-.475-1.137-.993-2.047-.518-.955-1.252-1.591-.691-.683-1.684-1.047-.95-.363-2.246-.363-1.943 0-3.455 1.091-1.511 1.092-2.59 3.138-1.08 2.002-1.685 4.867-.604 2.865-.648 6.367 1.08-2.274 3.153-3.775 2.116-1.546 5.096-1.546 2.159 0 3.93.773 1.77.773 3.022 2.138 1.296 1.364 1.987 3.229.734 1.865.734 4.048 0 2.32-.734 4.32-.691 1.956-1.987 3.366-1.295 1.41-3.152 2.229-1.857.773-4.19.773zm22.822 0q-2.16 0-3.844-.637t-2.936-1.683q-1.21-1.091-1.987-2.501t-1.166-2.91l2.246-.638q.302 1.137.863 2.229.605 1.092 1.512 1.956t2.202 1.41q1.296.545 3.11.545 3.411 0 5.311-2.274t1.9-6.322q0-1.864-.518-3.41-.475-1.593-1.382-2.684-.907-1.137-2.245-1.774-1.296-.637-2.894-.637-2.504 0-4.016 1.092-1.468 1.091-2.418 2.547h-2.16l1.383-17.192h15.373v2.365h-13.3l-.994 11.916q.864-1.092 2.462-2.001 1.64-.955 3.93-.955 1.986 0 3.67.773 1.727.728 2.98 2.138 1.295 1.364 1.986 3.365.734 1.956.734 4.412 0 2.547-.734 4.548t-2.073 3.411q-1.295 1.41-3.109 2.183-1.77.728-3.886.728zm19.928-21.513q1.9 0 3.023-1.319 1.123-1.364 1.123-3.593 0-2.137-1.166-3.547-1.123-1.41-2.98-1.41t-2.98 1.364q-1.123 1.32-1.123 3.457 0 2.228 1.123 3.638t2.98 1.41zm0 1.91q-1.296 0-2.418-.5-1.123-.546-1.987-1.455-.82-.91-1.339-2.183-.475-1.274-.475-2.73t.475-2.683q.519-1.273 1.34-2.183.863-.91 1.986-1.41 1.122-.545 2.418-.545 1.295 0 2.418.545 1.166.5 1.987 1.456.863.91 1.338 2.183.475 1.228.475 2.683 0 1.501-.475 2.775-.475 1.228-1.338 2.137-.82.91-1.987 1.41-1.123.5-2.418.5z" stroke="#000" stroke-width="1.662" stroke-linejoin="round"/>
    <path d="M55.08 31.634h17.973l3.612 12.272h5.017l-15.05-49.22H61.93l-15.194 49.22h4.759zm1.404-4.74 7.568-25.585 7.568 25.585Zm50.044 17.012h4.874V7.899h-4.874v22.02c0 2.724-.63 4.976-1.92 6.691-1.491 1.984-3.555 2.959-6.192 2.959-2.036 0-3.555-.64-4.558-1.883q-1.72-2.119-1.72-7.06V7.899h-4.874v22.29c0 4.337.746 7.732 2.208 10.153 1.691 2.79 4.271 4.169 7.711 4.169 4.329 0 7.453-2.051 9.345-6.12zm12.262-31.267h4.701v23.063c0 2.522.631 4.573 1.921 6.12 1.462 1.78 3.497 2.689 6.163 2.689q3.526 0 6.364-2.522l-1.892-3.933c-1.29 1.143-2.694 1.714-4.156 1.714q-3.525 0-3.526-5.144V12.64h7.74V7.9h-7.74V-2.826l-4.874 1.379v9.346h-4.7zm36.37-5.345c-3.984 0-7.31 1.546-10.004 4.606-3.067 3.53-4.615 8.203-4.615 14.019 0 5.01 1.204 9.212 3.583 12.641 2.78 3.967 6.393 5.95 10.865 5.95 3.956 0 7.28-1.546 9.947-4.605 3.067-3.53 4.615-8.237 4.615-14.053 0-4.976-1.204-9.178-3.583-12.608-2.723-3.967-6.335-5.95-10.807-5.95zm0 4.74q3.915 0 6.45 3.328c1.921 2.556 2.896 6.086 2.896 10.557 0 3.933-.745 7.161-2.265 9.615-1.72 2.824-4.128 4.236-7.252 4.236-2.666 0-4.845-1.076-6.536-3.26-1.921-2.489-2.867-5.985-2.867-10.49q0-6.103 2.236-9.783c1.72-2.79 4.157-4.203 7.339-4.203z" stroke="#000" stroke-width="2.027" stroke-linejoin="round"/>
  </g>
</svg>
