<svg width="24" height="24" viewBox="0 0 24 24" xmlns="http://www.w3.org/2000/svg" xmlns:svg="http://www.w3.org/2000/svg">
  <path d="M2.327 14.194h3.276l.658 2.236h.914L4.432 7.46h-.856l-2.77 8.97h.868zm.256-.864 1.38-4.664L5.34 13.33zm9.121 3.1h.888V9.867h-.888v4.014c0 .496-.115.907-.35 1.22q-.408.54-1.129.539-.555-.002-.83-.343-.314-.387-.314-1.287V9.867h-.888v4.063c0 .79.136 1.41.402 1.85.309.51.779.76 1.406.76q1.185-.001 1.703-1.115zm2.235-5.699h.857v4.204q-.001.691.35 1.115c.267.325.638.49 1.123.49q.643 0 1.16-.46l-.344-.716c-.236.208-.492.312-.758.312q-.643 0-.643-.937v-4.008h1.411v-.864h-1.41V7.913l-.89.25v1.704h-.856zm6.63-.974q-1.089.002-1.824.84-.84.965-.841 2.555.001 1.368.653 2.304.758 1.084 1.98 1.084 1.082-.001 1.813-.839c.56-.643.841-1.501.841-2.561q-.002-1.36-.653-2.298-.746-1.085-1.97-1.085zm0 .864q.712 0 1.175.607.527.7.528 1.924c0 .717-.136 1.305-.413 1.752q-.47.773-1.322.773-.729.001-1.191-.595-.524-.68-.523-1.912 0-1.112.408-1.783.468-.764 1.337-.766z" stroke="#000" stroke-width="1.6" stroke-linejoin="round"/>
</svg>
