<svg width="24" height="24" viewBox="0 0 24 24" xmlns="http://www.w3.org/2000/svg" xmlns:svg="http://www.w3.org/2000/svg">
  <path d="M.8 5.998h6.594v1.144h-5.41v4.178H6.47v1.11H1.983v4.278h5.67v1.144H.8ZM12 18.001q-.736 0-1.37-.315-.636-.315-1.112-.895-.476-.597-.75-1.41-.26-.828-.26-1.84 0-.994.246-1.823.245-.829.692-1.426.462-.597 1.096-.928t1.429-.332q1.082 0 1.803.53.721.515 1.14 1.36l-.952.73q-.39-.747-.823-1.111t-1.168-.365q-1.082 0-1.66.912Q9.75 12 9.75 13.54q0 1.609.592 2.47.59.846 1.673.846.433 0 .765-.116.332-.132.577-.331.26-.216.447-.481.202-.282.36-.597l.924.663q-.187.382-.462.746-.274.348-.649.63t-.865.464q-.491.166-1.111.166zm7.635-1.144q.534 0 .967-.232.433-.248.736-.68t.461-1.044q.16-.63.16-1.376 0-1.542-.621-2.437-.62-.912-1.703-.912-.548 0-.98.249-.419.232-.722.663t-.462 1.06q-.159.614-.159 1.377 0 1.525.607 2.437.62.895 1.716.895zm-.014 1.144q-.765 0-1.414-.331-.65-.332-1.125-.929t-.75-1.409q-.26-.829-.26-1.807 0-.995.274-1.824t.75-1.409q.476-.597 1.125-.928.65-.332 1.414-.332t1.414.332q.65.315 1.126.911t.75 1.426q.274.813.274 1.807t-.274 1.824-.75 1.426q-.476.597-1.14.928-.65.315-1.414.315z" stroke="#000" stroke-width="1.6" stroke-linejoin="round"/>
</svg>
