<svg width="24" height="24" viewBox="0 0 24 24" xmlns="http://www.w3.org/2000/svg" xmlns:svg="http://www.w3.org/2000/svg">
  <path d="M2.201 6.749H7.97v1H3.236v3.656h3.926v.972H3.236v3.742h4.96v1.001H2.202ZM12 17.25q-.644 0-1.2-.276t-.972-.783q-.416-.522-.656-1.233-.227-.725-.227-1.61 0-.87.215-1.596.214-.725.605-1.247.404-.523.96-.813t1.25-.29q.946 0 1.577.464.631.45.997 1.19l-.833.638q-.34-.653-.72-.972t-1.022-.319q-.946 0-1.451.798-.493.798-.493 2.147 0 1.407.518 2.16.518.74 1.464.74.379 0 .67-.1.29-.117.504-.291.227-.188.392-.42.176-.247.315-.523l.808.58q-.164.334-.404.653-.24.305-.568.551t-.758.407q-.428.145-.971.145zm6.68-1.001q.467 0 .846-.203.379-.218.644-.595t.404-.914q.138-.551.138-1.204 0-1.349-.542-2.132-.543-.798-1.49-.798-.48 0-.858.218-.366.203-.631.58t-.404.928q-.139.537-.139 1.204 0 1.335.53 2.133.543.783 1.502.783zm-.012 1q-.67 0-1.237-.29t-.985-.812-.656-1.233q-.228-.725-.228-1.581 0-.87.24-1.595t.657-1.233q.416-.523.984-.813t1.237-.29q.67 0 1.237.29.568.276.985.798t.656 1.248q.24.71.24 1.58t-.24 1.596-.656 1.248-.997.812q-.568.276-1.237.276z" stroke="#000" stroke-width=".431" stroke-linejoin="round"/>
</svg>
