<svg width="24" height="24" viewBox="0 0 24 24" xmlns="http://www.w3.org/2000/svg" xmlns:svg="http://www.w3.org/2000/svg">
  <g transform="translate(-9.405 .02)scale(.21341)">
    <path d="M68.788 9.45h22.801v3.442H72.88v12.573h15.517v3.343H72.879v12.873h19.608v3.442h-23.7Zm38.73 36.122q-2.545 0 -4.74 -0.948t-3.842 -2.694q-1.647 -1.796 -2.595 -4.24q-0.898 -2.495 -0.898 -5.539q0 -2.994 0.849 -5.488q0.848 -2.495 2.394 -4.291q1.597 -1.796 3.792 -2.794q2.196 -0.998 4.94 -0.998q3.742 0 6.236 1.597q2.495 1.546 3.942 4.09l-3.293 2.196q-1.347 -2.245 -2.844 -3.343t-4.041 -1.097q-3.742 0 -5.738 2.744q-1.946 2.744 -1.946 7.384q0 4.84 2.046 7.434q2.045 2.545 5.787 2.545q1.497 0 2.645 -0.35q1.147 -0.399 1.996 -0.997q0.898 -0.649 1.546 -1.447q0.699 -0.848 1.248 -1.796l3.193 1.995q-0.649 1.148 -1.597 2.246q-0.948 1.047 -2.245 1.895t-2.994 1.397q-1.696 0.5 -3.841 0.5zm26.406 -3.442q1.846 0 3.343 -0.699q1.496 -0.748 2.544 -2.045q1.048 -1.298 1.597 -3.144q0.549 -1.896 0.549 -4.14q0 -4.64 -2.146 -7.335q-2.145 -2.744 -5.887 -2.744q-1.896 0 -3.393 0.748q-1.447 0.699 -2.495 1.996q-1.047 1.297 -1.596 3.193q-0.55 1.846 -0.55 4.141q0 4.59 2.096 7.335q2.146 2.694 5.938 2.694zm-0.05 3.442q-2.645 0 -4.89 -0.997q-2.245 -0.998 -3.891 -2.794q-1.647 -1.797 -2.595 -4.241q-0.898 -2.495 -0.898 -5.439q0 -2.993 0.948 -5.488t2.594 -4.241q1.647 -1.796 3.892 -2.794t4.89 -0.998t4.89 0.998q2.244 0.948 3.89 2.744q1.647 1.796 2.595 4.29q0.948 2.446 0.948 5.44q0 2.993 -0.948 5.488q-0.948 2.494 -2.594 4.29q-1.647 1.797 -3.942 2.794q-2.245 0.948 -4.89 0.948z" stroke="#000" stroke-width="1.59" stroke-linejoin="round"/>
    <path d="M80.037 102.088q-2.145-.006-3.818-.647-1.673-.64-2.917-1.688-1.2-1.093-1.973-2.503-.772-1.41-1.158-2.909l2.23-.628q.3 1.135.858 2.227.6 1.09 1.502 1.956.9.865 2.187 1.414t3.089.554q3.388.01 5.276-2.254t1.887-6.304q0-1.861-.515-3.406-.471-1.59-1.372-2.682-.901-1.138-2.23-1.778-1.288-.64-2.875-.644-2.488-.007-3.989 1.077-1.458 1.086-2.402 2.535l-2.145-.006 1.373-17.155 15.27.046v2.36l-13.211-.04-.987 11.89q.858-1.086 2.445-1.989 1.63-.948 3.904-.941 1.973.006 3.646.782 1.716.732 2.96 2.143 1.286 1.366 1.973 3.365.729 1.954.729 4.406 0 2.542-.73 4.537-.728 1.995-2.058 3.398-1.287 1.404-3.089 2.17-1.758.72-3.86.714zm24.9-2.194q4.16.013 6.39-3.793 2.274-3.807 2.274-10.616 0-3.268-.6-5.903-.601-2.635-1.716-4.5-1.116-1.864-2.746-2.868-1.587-1.049-3.646-1.055t-3.689.988-2.788 2.851q-1.115 1.858-1.716 4.534-.6 2.677-.6 5.99 0 3.405.6 6.085.644 2.68 1.802 4.545 1.158 1.82 2.788 2.778t3.646.964zm.042 2.27q-2.574-.008-4.675-1.194-2.102-1.232-3.647-3.416-1.5-2.183-2.359-5.228-.815-3.043-.815-6.766 0-3.768.815-6.852t2.317-5.259q1.5-2.174 3.603-3.348 2.102-1.174 4.675-1.166t4.676 1.24q2.102 1.186 3.56 3.37 1.502 2.183 2.274 5.227.815 3.044.815 6.766t-.815 6.807q-.772 3.04-2.23 5.26-1.46 2.174-3.561 3.393-2.06 1.174-4.633 1.166zm21.253-21.407q1.888.006 3.003-1.307 1.115-1.359 1.115-3.583 0-2.134-1.158-3.545-1.115-1.41-2.96-1.416-1.844-.005-2.96 1.353-1.115 1.313-1.115 3.447 0 2.224 1.116 3.635 1.115 1.41 2.96 1.416zm0 1.907q-1.286-.004-2.402-.507-1.115-.548-1.973-1.459-.815-.91-1.33-2.183-.471-1.272-.471-2.725t.471-2.677q.515-1.27 1.33-2.175.858-.905 1.973-1.401 1.116-.541 2.402-.537 1.287.003 2.403.552 1.158.502 1.973 1.458.858.91 1.33 2.183.471 1.227.471 2.68 0 1.498-.471 2.768-.472 1.224-1.33 2.13-.815.905-1.973 1.4-1.116.496-2.403.493z" stroke="#000" stroke-width="1.655" stroke-linejoin="round"/>
  </g>
</svg>
