<svg width="24" height="24" viewBox="0 0 24 24" xml:space="preserve" xmlns="http://www.w3.org/2000/svg" xmlns:svg="http://www.w3.org/2000/svg">
  <g transform="translate(-10.727 -6.449)scale(.2362)" fill="none" stroke="#000" stroke-width="6.773">
    <g transform="translate(-.274 -7.942)">
      <path d="M73.003 124.184c-12.284-4.364-23.928-16.196-23.928-33.543 0-19.612 15.899-35.51 35.51-35.51 14.834 0 27.543 9.094 32.855 22.01m-41.2-28.834.001-5.477h15.884v5.477m17.171 6.564 3.821-3.924 11.382 11.08-3.821 3.925" stroke-linecap="round" stroke-linejoin="round"/>
      <path d="M84.354 68.195V91.2l16.706-.273" stroke-linecap="round" stroke-linejoin="round"/>
    </g>
    <path d="M91.156 98.598h7.695c8.053 0 7.12-1.343 7.12 7.121v8.243a7.105 7.105 0 0 1-7.12 7.12h-7.695a7.105 7.105 0 0 1-7.12-7.12v-8.243c0-7.916-1.07-7.12 7.12-7.12m15.21 4.375a7.31 7.31 0 1 1-.21 11.892m35.118-39.21c2.13 2.508 2.364 6.755 2.364 10.595 0 7.644-5.225 13.84-11.671 13.84s-11.671-6.196-11.671-13.84c0-3.903.277-7.892 2.469-10.408zm-9.237 24.58-.14 19.997m-10.337 1.094 20.814-.137" stroke-linecap="round" stroke-linejoin="round"/>
  </g>
</svg>
