<svg width="24" height="24" viewBox="0 0 24 24" xml:space="preserve" xmlns="http://www.w3.org/2000/svg" xmlns:svg="http://www.w3.org/2000/svg">
  <g transform="translate(-2.148 -2.394)scale(.13261)">
    <path d="M85.423 180.943q1.637 0 2.973-.59 1.38-.636 2.37-1.725.992-1.135 1.51-2.633.56-1.543.56-3.404 0-1.815-.518-3.313-.474-1.498-1.422-2.542-.948-1.09-2.284-1.68t-3.017-.59q-1.638 0-3.06.636-1.422.59-2.456 1.68-1.035 1.043-1.638 2.541-.56 1.453-.56 3.223t.56 3.313 1.551 2.678q1.035 1.135 2.414 1.77 1.379.636 3.017.636zm0 2.179q-2.715 0-4.784-1.226-2.069-1.27-3.405-3.313-1.12-1.725-1.638-4.176-.517-2.497-.517-6.31 0-4.175.776-7.534.776-3.404 2.198-5.765 1.465-2.36 3.49-3.63 2.026-1.272 4.57-1.272 3.231 0 5.257 1.77t3.017 4.857l-2.284.681q-.474-1.135-.992-2.042-.517-.954-1.25-1.59-.689-.68-1.68-1.043-.948-.363-2.241-.363-1.94 0-3.448 1.09-1.508 1.088-2.586 3.131-1.077 1.997-1.68 4.857-.604 2.86-.647 6.354 1.077-2.27 3.146-3.767 2.112-1.543 5.086-1.543 2.154 0 3.921.771 1.767.772 3.017 2.134 1.293 1.361 1.983 3.222.732 1.861.732 4.04 0 2.315-.732 4.312-.69 1.952-1.983 3.359t-3.146 2.224q-1.853.772-4.18.772zm25.146-2.27q4.18 0 6.421-3.813 2.284-3.812 2.284-10.62 0-3.269-.603-5.901-.603-2.633-1.724-4.494t-2.758-2.86q-1.595-1.044-3.663-1.044-2.07 0-3.707.999t-2.801 2.86q-1.12 1.86-1.724 4.539t-.603 5.991q0 3.404.603 6.082.646 2.678 1.81 4.54 1.164 1.815 2.801 2.768t3.664.953zm.043 2.27q-2.586 0-4.698-1.18-2.112-1.226-3.663-3.405-1.509-2.178-2.37-5.22-.82-3.04-.82-6.763 0-3.767.82-6.854.818-3.086 2.327-5.265t3.62-3.359 4.698-1.18q2.585 0 4.697 1.226 2.112 1.18 3.577 3.359 1.509 2.178 2.284 5.22.82 3.04.82 6.763t-.82 6.808q-.775 3.041-2.24 5.265-1.466 2.179-3.578 3.404-2.068 1.18-4.654 1.18zm21.353-21.47q1.897 0 3.017-1.316 1.12-1.362 1.12-3.586 0-2.133-1.163-3.54-1.12-1.407-2.974-1.407-1.853 0-2.973 1.361-1.121 1.317-1.121 3.45 0 2.224 1.12 3.631t2.974 1.407zm0 1.907q-1.293 0-2.413-.5-1.12-.544-1.983-1.452-.819-.908-1.336-2.179-.474-1.27-.474-2.723t.474-2.678q.517-1.271 1.336-2.179.862-.908 1.983-1.407 1.12-.545 2.413-.545t2.414.545q1.163.5 1.982 1.452.862.908 1.336 2.18.474 1.225.474 2.677 0 1.498-.474 2.769-.474 1.225-1.336 2.133-.819.908-1.982 1.407-1.12.5-2.414.5z" stroke="#000" stroke-width="1.659" stroke-linejoin="round"/>
    <g transform="matrix(1.00238 0 0 .9997 -6.928 69.809)" stroke="#010000">
      <path d="m89.004 36.211 83.992-.187" fill="none" stroke="#000" stroke-width="3.507" stroke-linejoin="round"/>
      <path d="m161.318 36.602-9.759 11.619H110.44l-9.35-11.813" fill="none" stroke="#000" stroke-width="3.588" stroke-linejoin="round"/>
      <path d="M154.004 45.7l83.992 -0.187" fill="none" stroke="#000" stroke-width="3.507" stroke-linejoin="round"/>
      <path d="M226.318 46.09l-9.759 11.62m-41.119 0l-9.35 -11.813" fill="none" stroke="#000" stroke-width="3.588" stroke-linejoin="round"/>
    </g>
    <g transform="translate(-.274 -7.942)" stroke="#010000">
      <path d="M78.179 125.575c-16.554-3.017-29.104-17.51-29.104-34.934 0-19.612 15.899-35.51 35.51-35.51 19.613 0 35.511 15.898 35.511 35.51" fill="none" stroke="#000" stroke-width="3.814" stroke-linecap="round" stroke-linejoin="round"/>
      <path d="m76.24 48.307.001-5.477h15.884v5.477m17.171 6.564 3.821-3.924 11.382 11.08-3.821 3.925m-36.324 2.243V91.2l16.706-.273" fill="none" stroke="#000" stroke-width="3.5" stroke-linecap="round" stroke-linejoin="round"/>
    </g>
  </g>
</svg>
