<svg width="24" height="24" viewBox="0 0 24 24" xml:space="preserve" xmlns="http://www.w3.org/2000/svg" xmlns:svg="http://www.w3.org/2000/svg" stroke="currentColor" fill="none">
  <g transform="translate(0 -.837)">
    <path d="M8.222 21.715h1.764v-2.672zm1.764.304H7.892v-.366l2.07-3.1h.36v3.162h.584v.304h-.584v.976h-.336Zm2.55 1.025q-.294 0-.524-.087t-.401-.23q-.166-.149-.272-.341t-.159-.398l.307-.087q.041.155.118.305.082.149.206.267t.301.192.425.075q.466 0 .725-.31.26-.311.26-.864 0-.255-.07-.466-.066-.218-.19-.367-.124-.155-.306-.242-.177-.087-.396-.087-.342 0-.548.149-.2.15-.33.348h-.295l.188-2.348h2.1v.323h-1.817l-.135 1.627q.118-.149.336-.273.224-.13.537-.13.271 0 .501.105.236.1.407.292.177.186.272.46.1.267.1.602 0 .348-.1.622-.1.273-.284.466-.177.192-.424.298-.242.1-.531.1zm2.723-2.938q.26 0 .413-.18.153-.187.153-.491 0-.292-.159-.485-.153-.192-.407-.192t-.407.186q-.153.18-.153.472 0 .304.153.497t.407.193zm0 .26q-.177 0-.33-.068-.154-.074-.272-.199-.112-.124-.183-.298-.064-.174-.064-.372 0-.2.064-.367.071-.174.183-.298.118-.125.272-.193.153-.074.33-.074t.33.074q.16.068.272.199.118.124.182.298.065.168.065.367 0 .205-.065.379-.064.167-.182.292-.112.124-.272.192-.153.069-.33.069z" stroke-width=".227" stroke-linejoin="round"/>
    <g transform="translate(-1.192 -2.02)scale(.13687)">
      <g transform="translate(-.274 -7.942)">
        <path d="M73.003 124.184c-12.284-4.364-23.928-16.196-23.928-33.543 0-19.612 15.899-35.51 35.51-35.51 14.834 0 27.543 9.094 32.855 22.01" stroke-width="3.814" stroke-linecap="round" stroke-linejoin="round"/>
        <path d="m76.24 48.307.001-5.477h15.884v5.477m17.171 6.564 3.821-3.924 11.382 11.08-3.821 3.925m-36.324 2.243V91.2l16.706-.273" stroke-width="3.5" stroke-linecap="round" stroke-linejoin="round"/>
      </g>
      <path d="M91.156 98.598h7.695c8.053 0 7.12-1.343 7.12 7.121v8.243a7.105 7.105 0 0 1-7.12 7.12h-7.695a7.105 7.105 0 0 1-7.12-7.12v-8.243c0-7.916-1.07-7.12 7.12-7.12" stroke-width="3.885" stroke-linecap="round" stroke-linejoin="round"/>
      <path d="M105.945 102.974a7.31 7.31 0 1 1-.21 11.892" stroke-width="3.381" stroke-linecap="round" stroke-linejoin="round"/>
      <path d="M141.274 75.656c2.13 2.508 2.364 6.755 2.364 10.595 0 7.644-5.225 13.84-11.671 13.84s-11.671-6.196-11.671-13.84c0-3.903.277-7.892 2.469-10.408z" stroke-width="4.45" stroke-linecap="round" stroke-linejoin="round"/>
      <path d="m132.037 100.236-.14 19.997" stroke-width="3.496" stroke-linecap="round" stroke-linejoin="round"/>
      <path d="m121.56 121.327 20.814-.137" stroke-width="3.5" stroke-linecap="round" stroke-linejoin="round"/>
    </g>
  </g>
</svg>
