<svg width="24" height="24" viewBox="0 0 24 24" xml:space="preserve" xmlns="http://www.w3.org/2000/svg" xmlns:svg="http://www.w3.org/2000/svg">
  <g transform="translate(-2.148 -2.394)scale(.13261)">
    <g transform="matrix(1.26411 0 0 1.26073 -36.595 100.14)" stroke="#010000">
      <path d="m89.004 36.211 83.992-.187" fill="none" stroke="#000" stroke-width="3.507" stroke-linejoin="round"/>
      <path d="m161.318 36.602-9.759 11.619H110.44l-9.35-11.813" fill="none" stroke="#000" stroke-width="3.588" stroke-linejoin="round"/>
      <path d="M154.004 45.7l83.992 -0.187" fill="none" stroke="#000" stroke-width="3.507" stroke-linejoin="round"/>
      <path d="M226.318 46.09l-9.759 11.62m-41.119 0l-9.35 -11.813" fill="none" stroke="#000" stroke-width="3.588" stroke-linejoin="round"/>
    </g>
    <g transform="translate(-28.203 2.087)scale(1.26111)" stroke="#010000">
      <path d="M78.179 125.575c-16.554-3.017-29.104-17.51-29.104-34.934 0-19.612 15.899-35.51 35.51-35.51 19.613 0 35.511 15.898 35.511 35.51" fill="none" stroke="#000" stroke-width="3.814" stroke-linecap="round" stroke-linejoin="round"/>
      <path d="m76.24 48.307.001-5.477h15.884v5.477m17.171 6.564 3.821-3.924 11.382 11.08-3.821 3.925m-36.324 2.243V91.2l16.706-.273" fill="none" stroke="#000" stroke-width="3.5" stroke-linecap="round" stroke-linejoin="round"/>
    </g>
  </g>
</svg>
