<svg width="24" height="24" viewBox="0 0 24 24" xml:space="preserve" xmlns="http://www.w3.org/2000/svg" xmlns:svg="http://www.w3.org/2000/svg">
  <g transform="translate(0 -.837)" stroke="#000">
    <path d="M7.569 21.144h2.069v-3.133zm2.069.357H7.18v-.43l2.429-3.636h.422v3.71h.685v.356h-.685v1.144h-.394Zm2.992 1.203q-.346 0-.616-.103-.27-.102-.47-.27-.194-.174-.319-.4-.124-.226-.187-.466l.36-.102q.049.182.138.357.097.175.243.313.145.139.352.226.208.087.499.087.546 0 .85-.364.305-.364.305-1.013 0-.298-.083-.546-.076-.255-.221-.43-.146-.182-.36-.284-.208-.102-.464-.102-.401 0-.643.175-.235.174-.388.408h-.346l.222-2.755h2.463v.38h-2.131l-.16 1.908q.14-.175.395-.32.263-.153.63-.153.318 0 .588.124.277.116.477.342.208.219.318.54.118.313.118.706 0 .408-.118.729-.117.32-.332.546-.207.226-.498.35-.283.117-.622.117zm3.192-3.447q.305 0 .485-.211.18-.219.18-.576 0-.342-.187-.568-.18-.226-.478-.226-.297 0-.477.218-.18.212-.18.554 0 .357.18.583t.477.226zm0 .306q-.207 0-.387-.08-.18-.088-.318-.233-.132-.146-.215-.35-.076-.204-.076-.437t.076-.43q.083-.204.215-.35.138-.146.318-.226.18-.087.387-.087t.388.087q.187.08.318.233.138.146.214.35.077.197.077.43 0 .24-.077.445-.076.196-.214.342-.131.146-.318.226-.18.08-.388.08z" stroke-width=".266" stroke-linejoin="round"/>
    <g transform="translate(-.827 -1.585)scale(.13342)" fill="none">
      <g transform="translate(-.274 -7.942)">
        <path d="M73.003 124.184c-12.284-4.364-23.928-16.196-23.928-33.543 0-19.612 15.899-35.51 35.51-35.51 14.834 0 27.543 9.094 32.855 22.01" stroke-width="3.814" stroke-linecap="round" stroke-linejoin="round"/>
        <path d="m76.24 48.307.001-5.477h15.884v5.477m17.171 6.564 3.821-3.924 11.382 11.08-3.821 3.925m-36.324 2.243V91.2l16.706-.273" stroke-width="3.5" stroke-linecap="round" stroke-linejoin="round"/>
      </g>
      <path d="M91.156 98.598h7.695c8.053 0 7.12-1.343 7.12 7.121v8.243a7.105 7.105 0 0 1-7.12 7.12h-7.695a7.105 7.105 0 0 1-7.12-7.12v-8.243c0-7.916-1.07-7.12 7.12-7.12" stroke-width="3.493" stroke-linecap="round" stroke-linejoin="round"/>
      <path d="M105.945 102.974a7.31 7.31 0 1 1-.21 11.892" stroke-width="3.38" stroke-linecap="round" stroke-linejoin="round"/>
      <path d="M141.274 75.656c2.13 2.508 2.364 6.755 2.364 10.595 0 7.644-5.225 13.84-11.671 13.84s-11.671-6.196-11.671-13.84c0-3.903.277-7.892 2.469-10.408z" stroke-width="3.493" stroke-linecap="round" stroke-linejoin="round"/>
      <path d="m132.037 100.236-.14 19.997" stroke-width="3.496" stroke-linecap="round" stroke-linejoin="round"/>
      <path d="m121.56 121.327 20.814-.137" stroke-width="3.5" stroke-linecap="round" stroke-linejoin="round"/>
    </g>
  </g>
</svg>
