<svg width="24" height="24" viewBox="0 0 24 24" xml:space="preserve" xmlns="http://www.w3.org/2000/svg" xmlns:svg="http://www.w3.org/2000/svg">
  <g transform="translate(-7.523 -3.861)scale(.20307)" fill="none" stroke="#000">
    <g transform="translate(-.274 -7.942)">
      <path d="M73.003 124.184c-12.284-4.364-23.928-16.196-23.928-33.543 0-19.612 15.899-35.51 35.51-35.51 14.834 0 27.543 9.094 32.855 22.01" stroke-width="3.814" stroke-linecap="round" stroke-linejoin="round"/>
      <path d="m76.24 48.307.001-5.477h15.884v5.477m17.171 6.564 3.821-3.924 11.382 11.08-3.821 3.925m-36.324 2.243V91.2l16.706-.273" stroke-width="3.5" stroke-linecap="round" stroke-linejoin="round"/>
    </g>
    <path d="M91.156 98.598h7.695c8.053 0 7.12-1.343 7.12 7.121v8.243a7.105 7.105 0 0 1-7.12 7.12h-7.695a7.105 7.105 0 0 1-7.12-7.12v-8.243c0-7.916-1.07-7.12 7.12-7.12" stroke-width="3.493" stroke-linecap="round" stroke-linejoin="round"/>
    <path d="M105.945 102.974a7.31 7.31 0 1 1-.21 11.892" stroke-width="3.38" stroke-linecap="round" stroke-linejoin="round"/>
    <path d="M141.274 75.656c2.13 2.508 2.364 6.755 2.364 10.595 0 7.644-5.225 13.84-11.671 13.84s-11.671-6.196-11.671-13.84c0-3.903.277-7.892 2.469-10.408z" stroke-width="3.493" stroke-linecap="round" stroke-linejoin="round"/>
    <path d="m132.037 100.236-.14 19.997" stroke-width="3.496" stroke-linecap="round" stroke-linejoin="round"/>
    <path d="m121.56 121.327 20.814-.137" stroke-width="3.5" stroke-linecap="round" stroke-linejoin="round"/>
  </g>
</svg>
