<svg width="24" height="24" viewBox="0 0 24 24" xml:space="preserve" xmlns="http://www.w3.org/2000/svg" xmlns:svg="http://www.w3.org/2000/svg" stroke="currentColor">
  <g transform="translate(-1.92 -2.668)scale(.13476)">
    <path d="M22.43 149.412h18.36v2.27H24.885v13.39h13.016v2.224H24.886v14.57H22.43zm27.085 30.684q1.336 0 2.543-.454t2.112-1.226q.948-.771 1.508-1.815t.647-2.27v-4.357l-1.25.045q-2.327.136-4.267.454-1.896.318-3.275.999-1.336.635-2.069 1.68-.733 1.043-.733 2.632 0 1.815 1.164 3.086 1.207 1.226 3.62 1.226zm-.301 2.133q-1.509 0-2.759-.454t-2.198-1.27q-.948-.863-1.465-2.043t-.517-2.633q0-2.224.991-3.631 1.035-1.453 2.758-2.315 1.724-.908 4.008-1.27 2.285-.41 4.784-.546l1.509-.09v-2.36q0-2.996-1.25-4.313-1.207-1.316-3.577-1.316-2.155 0-3.793.908-1.637.862-3.017 2.27l-1.508-1.68q1.508-1.634 3.534-2.678t4.87-1.044q1.465 0 2.758.454 1.336.408 2.327 1.362.992.907 1.552 2.405t.56 3.677v11.62q0 1.361.647 2.087.646.681 2.155.545v2.088q-2.285.227-3.62-.726-1.294-.999-1.595-2.95-1.164 1.86-3.06 2.904-1.853.999-4.094.999zm12.432-24.102h2.672l6.723 20.834 6.594-20.834h2.586l-7.844 23.739h-2.801zm30.059 21.878q1.68 0 3.06-.68 1.422-.727 2.37-2.043.991-1.317 1.509-3.132.56-1.861.56-4.13 0-2.316-.56-4.177-.518-1.86-1.509-3.132-.991-1.316-2.37-1.997-1.38-.726-3.06-.726-1.724 0-3.103.726-1.38.681-2.37 1.997-.992 1.271-1.552 3.132-.517 1.861-.517 4.176 0 4.585 2.026 7.308 2.025 2.678 5.516 2.678zm-.043 2.224q-2.155 0-4.008-.862-1.81-.863-3.146-2.451-1.336-1.634-2.112-3.859-.776-2.269-.776-5.083t.776-5.038q.776-2.27 2.112-3.859 1.379-1.588 3.232-2.45t3.965-.863 3.922.862q1.853.863 3.189 2.497 1.38 1.588 2.155 3.858.776 2.224.776 4.993 0 2.814-.776 5.083t-2.155 3.859q-1.336 1.588-3.19 2.45-1.852.863-3.964.863zm21.655 0q-1.551 0-2.93-.5-1.38-.499-2.371-1.543-.991-1.089-1.595-2.768-.56-1.725-.56-4.13v-15.16h2.457v15.295q0 3.36 1.422 4.948 1.465 1.543 4.094 1.543 1.293 0 2.457-.454 1.206-.454 2.068-1.361.905-.908 1.423-2.315.56-1.407.56-3.314v-14.343h2.456v23.739h-2.456v-4.04q-.862 1.907-2.63 3.178-1.723 1.225-4.395 1.225zm15.923-24.102h2.457v4.221q.819-1.86 2.327-3.177 1.508-1.362 3.706-1.362 1.983 0 3.405.908l-1.077 2.224q-.518-.318-1.078-.5-.56-.226-1.551-.226-.949 0-1.983.454-.991.408-1.853 1.452-.819.999-1.38 2.633-.516 1.634-.516 3.994v13.118h-2.457zm16.354-6.264q-.732 0-1.25-.544-.474-.545-.474-1.317t.474-1.27q.518-.545 1.25-.545.733 0 1.207.544.517.5.517 1.271 0 .772-.517 1.317-.474.544-1.207.544zm-1.163 6.264h2.456v23.739h-2.456zm6.355 0h3.362v-6.49l2.456-.545v7.035h5.905v2.224h-5.905v15.977q0 1.725.776 2.724.776.953 2.284.953 1.078 0 1.767-.318.69-.318 1.207-.68l.991 1.86q-.646.5-1.594.954-.905.408-2.414.408-2.5 0-4.008-1.498-1.465-1.543-1.465-4.13v-16.25h-3.362zm24.241 1.861q-2.93 0-4.827 2.133-1.853 2.134-2.284 5.856h13.748q-.215-3.95-1.896-5.946-1.68-2.043-4.74-2.043zm.431 22.241q-2.24 0-4.094-.817-1.853-.862-3.232-2.451-1.336-1.589-2.112-3.858-.733-2.27-.733-5.084t.733-5.083 2.025-3.859q1.336-1.588 3.103-2.45 1.81-.863 3.88-.863 1.896 0 3.533.726 1.681.681 2.93 2.133 1.25 1.408 1.94 3.586.733 2.179.733 5.084v.862H167.83q0 4.676 1.94 7.263 1.982 2.587 5.731 2.587 1.336 0 2.328-.318 1.034-.363 1.767-.953.775-.59 1.336-1.362.56-.817.99-1.724l2.026 1.18q-.517 1.089-1.293 2.088-.732.998-1.767 1.724-1.034.727-2.413 1.18-1.336.409-3.017.409z" stroke-width="1.659" stroke-linejoin="round"/>
    <path d="m103.297 36.595 9.897 30.687 32.243-.07-26.127 18.895 10.03 30.644-26.043-19.01-26.044 19.01 10.03-30.644-26.126-18.895 32.243.07z" stroke="#000" stroke-width="3.905" stroke-linecap="round" stroke-linejoin="round"/>
  </g>
</svg>
