<svg width="24" height="24" viewBox="0 0 24 24" xml:space="preserve" xmlns="http://www.w3.org/2000/svg" xmlns:svg="http://www.w3.org/2000/svg">
  <g transform="translate(-1.92 -2.668)scale(.13476)">
    <path d="M22.614 149.489h18.318v2.264H25.065v13.36h12.986v2.219H25.065v14.537h-2.451zm27.024 30.613q1.333 0 2.537-.452 1.204-.453 2.107-1.223.946-.77 1.505-1.812.559-1.041.645-2.264v-4.347l-1.247.045q-2.322.136-4.257.453-1.892.317-3.268.996-1.333.634-2.064 1.676t-.731 2.626q0 1.812 1.16 3.08 1.205 1.222 3.613 1.222zm-.301 2.129q-1.505 0-2.752-.453t-2.193-1.268q-.946-.86-1.462-2.038t-.516-2.626q0-2.22.989-3.623 1.032-1.45 2.752-2.31 1.72-.906 3.999-1.268 2.279-.408 4.773-.543l1.505-.091v-2.355q0-2.989-1.247-4.302-1.204-1.313-3.57-1.313-2.15 0-3.783.905-1.634.86-3.01 2.265l-1.505-1.676q1.505-1.63 3.526-2.672t4.859-1.042q1.462 0 2.752.453 1.333.408 2.322 1.359.989.906 1.548 2.4.559 1.495.559 3.668v11.594q0 1.358.645 2.083.645.68 2.15.543v2.083q-2.28.227-3.612-.724-1.29-.996-1.591-2.944-1.161 1.857-3.053 2.899-1.85.996-4.085.996zm12.404-24.047h2.666l6.708 20.786 6.578-20.786h2.58l-7.826 23.685h-2.794Zm29.99 21.828q1.677 0 3.053-.68 1.42-.724 2.365-2.037.99-1.314 1.505-3.125.56-1.857.56-4.121 0-2.31-.56-4.166-.516-1.857-1.505-3.125-.989-1.314-2.365-1.993-1.376-.724-3.053-.724-1.72 0-3.096.724-1.376.68-2.365 1.993-.989 1.268-1.548 3.125-.515 1.856-.515 4.166 0 4.574 2.02 7.291 2.021 2.672 5.504 2.672zm-.043 2.219q-2.15 0-3.999-.86-1.806-.861-3.138-2.446-1.333-1.63-2.107-3.85-.774-2.264-.774-5.071t.774-5.027q.774-2.265 2.107-3.85 1.375-1.585 3.224-2.445t3.956-.86 3.913.86q1.85.86 3.182 2.49 1.376 1.586 2.15 3.85.774 2.22.774 4.982 0 2.807-.774 5.072-.774 2.264-2.15 3.849-1.333 1.585-3.182 2.445t-3.956.86zm21.606 0q-1.548 0-2.924-.498t-2.365-1.54q-.989-1.087-1.59-2.762-.56-1.721-.56-4.122v-15.125h2.451v15.261q0 3.352 1.42 4.937 1.461 1.54 4.084 1.54 1.29 0 2.451-.454 1.204-.452 2.064-1.358.903-.906 1.42-2.31.558-1.404.558-3.306v-14.31h2.451v23.685h-2.45v-4.03q-.86 1.901-2.624 3.17-1.72 1.222-4.386 1.222zm15.887-24.047h2.451v4.211q.817-1.856 2.322-3.17 1.505-1.358 3.698-1.358 1.978 0 3.397.906l-1.075 2.219q-.516-.317-1.075-.499-.56-.226-1.548-.226-.946 0-1.978.453-.989.407-1.849 1.449-.817.996-1.376 2.627-.516 1.63-.516 3.985v13.088h-2.45zm16.317-6.25q-.731 0-1.247-.543-.473-.544-.473-1.313 0-.77.473-1.268.516-.544 1.247-.544t1.204.544q.516.498.516 1.268t-.516 1.313q-.473.543-1.204.543zm-1.161 6.25h2.451v23.685h-2.451zm6.341 0h3.354v-6.476l2.451-.544v7.02h5.89v2.219h-5.89v15.94q0 1.722.774 2.718.774.95 2.279.95 1.075 0 1.763-.316.688-.317 1.204-.68l.989 1.857q-.645.498-1.591.951-.903.408-2.408.408-2.494 0-3.999-1.495-1.462-1.54-1.462-4.12v-16.213h-3.354zm24.186 1.857q-2.924 0-4.816 2.128-1.849 2.128-2.279 5.842h13.717q-.215-3.94-1.892-5.933-1.677-2.037-4.73-2.037zm.43 22.19q-2.236 0-4.085-.815-1.849-.86-3.225-2.446-1.333-1.585-2.107-3.849-.73-2.264-.73-5.072t.73-5.072 2.021-3.85q1.333-1.585 3.096-2.445 1.806-.86 3.87-.86 1.892 0 3.526.724 1.677.68 2.924 2.129 1.247 1.403 1.935 3.577.73 2.174.73 5.072v.86h-16.296q0 4.665 1.935 7.247 1.978 2.58 5.719 2.58 1.333 0 2.322-.316 1.032-.362 1.763-.951.774-.589 1.333-1.359.559-.815.989-1.72l2.02 1.177q-.515 1.087-1.29 2.083-.73.996-1.762 1.72-1.032.725-2.408 1.178-1.333.408-3.01.408z" stroke="#000" stroke-width="1.655" stroke-linejoin="round"/>
    <path d="M103.297 36.711 113.78 69.22l34.157-.075-27.677 20.017 10.626 32.462-27.59-20.137-27.59 20.137 10.626-32.462-27.678-20.017 34.158.075z" fill="none" stroke="#000" stroke-width="4.137" stroke-linecap="round" stroke-linejoin="round"/>
  </g>
</svg>
