<svg width="24" height="24" viewBox="0 0 24 24" xml:space="preserve" xmlns="http://www.w3.org/2000/svg" xmlns:svg="http://www.w3.org/2000/svg">
  <g transform="translate(1.954 -6.685)scale(.16136)">
    <path d="M33.576 168.972H46.8v-19.018zm13.224 2.167H31.099v-2.61l15.524 -22.07h2.698v22.513H53.7v2.167h-4.38v6.944H46.8zm21.56 5.087q4.29 0 6.59 -3.716q2.344 -3.715 2.344 -10.35q0 -3.184 -0.619 -5.749t-1.769 -4.379t-2.83 -2.786q-1.637 -1.017 -3.76 -1.017t-3.804 0.973t-2.875 2.786q-1.15 1.814 -1.769 4.423t-0.619 5.838q0 3.317 0.62 5.927q0.663 2.61 1.857 4.423q1.194 1.769 2.875 2.698q1.68 0.929 3.76 0.929zm0.044 2.211q-2.653 0 -4.82 -1.15q-2.168 -1.194 -3.76 -3.317q-1.548 -2.123 -2.433 -5.086q-0.84 -2.964 -0.84 -6.59q0 -3.671 0.84 -6.679t2.389 -5.13q1.548 -2.124 3.715 -3.273t4.821 -1.15q2.654 0 4.82 1.194q2.168 1.15 3.672 3.273q1.548 2.123 2.344 5.086q0.84 2.963 0.84 6.59t-0.84 6.634q-0.796 2.964 -2.3 5.13q-1.504 2.124 -3.67 3.318q-2.124 1.15 -4.778 1.15zm21.914 -20.92q1.947 0 3.096 -1.283q1.15 -1.327 1.15 -3.494q0 -2.079 -1.194 -3.45q-1.15 -1.37 -3.052 -1.37q-1.901 0 -3.051 1.326q-1.15 1.283 -1.15 3.361q0 2.168 1.15 3.539t3.051 1.37zm0 1.857q-1.326 0 -2.476 -0.486q-1.15 -0.53 -2.035 -1.415q-0.84 -0.885 -1.37 -2.123q-0.487 -1.239 -0.487 -2.654t0.486 -2.61q0.53 -1.238 1.371 -2.123q0.885 -0.884 2.035 -1.37q1.15 -0.531 2.476 -0.531t2.477 0.53q1.194 0.487 2.035 1.416q0.884 0.884 1.37 2.123q0.487 1.194 0.487 2.61q0 1.459 -0.486 2.697q-0.487 1.194 -1.371 2.079q-0.84 0.884 -2.035 1.37q-1.15 0.487 -2.477 0.487z" stroke="#000" stroke-width="1.659" stroke-linejoin="round"/>
    <g transform="translate(-132.317 -60.64)scale(1.47443)" stroke="#000">
      <path d="M141.274 75.656c2.13 2.508 2.364 6.755 2.364 10.595 0 7.644-5.225 13.84-11.671 13.84s-11.671-6.196-11.671-13.84c0-3.903.277-7.892 2.469-10.408z" fill="none" stroke-width="4.45" stroke-linecap="round" stroke-linejoin="round"/>
      <path d="m132.037 100.236-.14 19.997" fill="none" stroke-width="3.496" stroke-linecap="round" stroke-linejoin="round"/>
      <path d="m121.56 121.327 20.814-.137" fill="none" stroke-width="3.5" stroke-linecap="round" stroke-linejoin="round"/>
    </g>
  </g>
</svg>
