<svg width="24" height="24" viewBox="0 0 24 24" xml:space="preserve" xmlns="http://www.w3.org/2000/svg" xmlns:svg="http://www.w3.org/2000/svg">
  <g transform="translate(1.954 -6.685)scale(.16136)">
    <path d="M32.868 167.286h12.82v-19.418Zm12.82 2.213H30.467v-2.665l15.05-22.533h2.615v22.985h4.245v2.213h-4.245v7.09h-2.444zm20.901 5.193q4.16 0 6.389-3.793 2.272-3.794 2.272-10.567 0-3.252-.6-5.87-.6-2.62-1.715-4.472-1.115-1.851-2.744-2.845-1.586-1.038-3.645-1.038-2.058 0-3.687.993-1.63.994-2.787 2.845-1.115 1.852-1.715 4.516t-.6 5.961q0 3.387.6 6.051.643 2.664 1.8 4.516 1.158 1.806 2.788 2.755t3.644.948zm.043 2.258q-2.572 0-4.673-1.174-2.101-1.22-3.645-3.387-1.5-2.168-2.358-5.193-.815-3.026-.815-6.729 0-3.748.815-6.819.814-3.07 2.315-5.238t3.602-3.342 4.673-1.174 4.674 1.22q2.101 1.173 3.559 3.341 1.5 2.168 2.272 5.193.815 3.026.815 6.729t-.815 6.774q-.771 3.025-2.23 5.238-1.457 2.167-3.558 3.387-2.058 1.174-4.63 1.174zm21.245-21.36q1.886 0 3.001-1.31 1.115-1.354 1.115-3.567 0-2.122-1.158-3.522-1.115-1.4-2.958-1.4t-2.959 1.354q-1.115 1.31-1.115 3.432 0 2.213 1.115 3.613t2.959 1.4zm0 1.897q-1.287 0-2.402-.497-1.114-.542-1.972-1.445-.815-.903-1.33-2.168-.47-1.264-.47-2.71 0-1.444.47-2.664.515-1.264 1.33-2.167.858-.903 1.972-1.4 1.115-.542 2.402-.542 1.286 0 2.4.542 1.158.497 1.973 1.445.858.903 1.33 2.168.47 1.219.47 2.664 0 1.49-.47 2.755-.472 1.219-1.33 2.122-.815.903-1.972 1.4-1.115.497-2.401.497z" stroke="#000" stroke-width="1.65" stroke-linejoin="round"/>
    <g transform="translate(-137.345 -57.962)scale(1.51253)" stroke="#000">
      <path d="M141.274 75.656c2.13 2.508 2.364 6.755 2.364 10.595 0 7.644-5.225 13.84-11.671 13.84s-11.671-6.196-11.671-13.84c0-3.903.277-7.892 2.469-10.408z" fill="none" stroke-width="3.497" stroke-linecap="round" stroke-linejoin="round"/>
      <path d="m132.037 100.236-.14 19.997" fill="none" stroke-width="3.496" stroke-linecap="round" stroke-linejoin="round"/>
      <path d="m121.56 121.327 20.814-.137" fill="none" stroke-width="3.5" stroke-linecap="round" stroke-linejoin="round"/>
    </g>
  </g>
</svg>
