<svg width="24" height="24" viewBox="0 0 24 24" xml:space="preserve" xmlns="http://www.w3.org/2000/svg" xmlns:svg="http://www.w3.org/2000/svg" stroke="currentColor" fill="none">
  <g transform="translate(1.954 -6.685)scale(.16136)">
    <path d="M33.576 168.972H46.8v-19.018zm13.224 2.167H31.099v-2.61l15.524-22.07h2.698v22.513H53.7v2.167h-4.38v6.944H46.8zm21.56 5.087q4.29 0 6.59-3.716 2.344-3.715 2.344-10.35 0-3.184-.619-5.749t-1.769-4.379-2.83-2.786q-1.637-1.017-3.76-1.017t-3.804.973-2.875 2.786q-1.15 1.814-1.769 4.423t-.619 5.838q0 3.317.62 5.927.663 2.61 1.857 4.423 1.194 1.769 2.875 2.698 1.68.929 3.76.929zm.044 2.211q-2.653 0-4.82-1.15-2.168-1.194-3.76-3.317-1.548-2.123-2.433-5.086-.84-2.964-.84-6.59 0-3.671.84-6.679t2.389-5.13q1.548-2.124 3.715-3.273t4.821-1.15q2.654 0 4.82 1.194 2.168 1.15 3.672 3.273 1.548 2.123 2.344 5.086.84 2.963.84 6.59t-.84 6.634q-.796 2.964-2.3 5.13-1.504 2.124-3.67 3.318-2.124 1.15-4.778 1.15zm21.914-20.92q1.947 0 3.096-1.283 1.15-1.327 1.15-3.494 0-2.079-1.194-3.45-1.15-1.37-3.052-1.37-1.901 0-3.051 1.326-1.15 1.283-1.15 3.361 0 2.168 1.15 3.539t3.051 1.37zm0 1.857q-1.326 0-2.476-.486-1.15-.53-2.035-1.415-.84-.885-1.37-2.123-.487-1.239-.487-2.654t.486-2.61q.53-1.238 1.371-2.123.885-.884 2.035-1.37 1.15-.531 2.476-.531t2.477.53q1.194.487 2.035 1.416.884.884 1.37 2.123.487 1.194.487 2.61 0 1.459-.486 2.697-.487 1.194-1.371 2.079-.84.884-2.035 1.37-1.15.487-2.477.487z" transform="scale(.97442 1.02625)" stroke-width="1.659" stroke-linejoin="round"/>
    <g transform="translate(-132.317 -60.64)scale(1.47443)">
      <path d="M141.274 75.656c2.13 2.508 2.364 6.755 2.364 10.595 0 7.644-5.225 13.84-11.671 13.84s-11.671-6.196-11.671-13.84c0-3.903.277-7.892 2.469-10.408z" stroke-width="4.45" stroke-linecap="round" stroke-linejoin="round"/>
      <path d="m132.037 100.236-.14 19.997" stroke-width="3.496" stroke-linecap="round" stroke-linejoin="round"/>
      <path d="m121.56 121.327 20.814-.137" stroke-width="3.5" stroke-linecap="round" stroke-linejoin="round"/>
    </g>
  </g>
</svg>
