<?xml version="1.0" encoding="UTF-8" standalone="no"?><svg version="1.1" id="svg1" viewBox="0 0 200 200" xml:space="preserve" xmlns="http://www.w3.org/2000/svg" xmlns:svg="http://www.w3.org/2000/svg"><g id="g1"><path style="line-height:0;-inkscape-font-specification:Bosch" d="m 33.575668,168.97202 h 13.224381 v -19.01834 z m 13.224381,2.1672 H 31.098861 v -2.60949 l 15.524273,-22.07012 h 2.69795 v 22.51241 h 4.378642 v 2.1672 h -4.378642 v 6.94391 h -2.521035 z m 21.560161,5.0863 q 4.290184,0 6.590076,-3.71521 2.344121,-3.71521 2.344121,-10.34951 0,-3.18447 -0.619202,-5.74973 -0.619201,-2.56527 -1.769148,-4.37864 -1.149946,-1.81338 -2.830636,-2.78641 -1.636462,-1.01726 -3.75944,-1.01726 -2.122977,0 -3.803668,0.97303 -1.68069,0.97303 -2.874865,2.78641 -1.149946,1.81337 -1.769148,4.42287 -0.619202,2.60949 -0.619202,5.83819 0,3.31715 0.619202,5.92664 0.66343,2.60949 1.857605,4.42287 1.194175,1.76915 2.874866,2.69795 1.68069,0.9288 3.759439,0.9288 z m 0.04423,2.21144 q -2.653722,0 -4.820929,-1.14995 -2.167206,-1.19417 -3.759439,-3.31715 -1.548004,-2.12298 -2.432578,-5.0863 -0.840346,-2.96332 -0.840346,-6.59008 0,-3.67098 0.840346,-6.67853 0.840345,-3.00755 2.388349,-5.13053 1.548005,-2.12298 3.715211,-3.27292 2.167206,-1.14995 4.820928,-1.14995 2.653722,0 4.820928,1.19418 2.167207,1.14994 3.670982,3.27292 1.548005,2.12298 2.344121,5.0863 0.840346,2.96332 0.840346,6.59008 0,3.62675 -0.840346,6.6343 -0.796116,2.96332 -2.299892,5.13053 -1.503776,2.12298 -3.670982,3.31715 -2.122977,1.14995 -4.776699,1.14995 z m 21.91405,-20.92018 q 1.946063,0 3.096009,-1.28263 1.149947,-1.32686 1.149947,-3.49406 0,-2.07875 -1.194175,-3.44984 -1.149946,-1.37109 -3.051781,-1.37109 -1.901834,0 -3.05178,1.32686 -1.149946,1.28263 -1.149946,3.36138 0,2.16721 1.149946,3.5383 1.149946,1.37108 3.05178,1.37108 z m 0,1.85761 q -1.326861,0 -2.476807,-0.48652 -1.149946,-0.53074 -2.03452,-1.41531 -0.840345,-0.88458 -1.371089,-2.12298 -0.486516,-1.2384 -0.486516,-2.65372 0,-1.41532 0.486516,-2.6095 0.530744,-1.2384 1.371089,-2.12297 0.884574,-0.88458 2.03452,-1.37109 1.149946,-0.53075 2.476807,-0.53075 1.326861,0 2.476808,0.53075 1.194174,0.48651 2.03452,1.41531 0.884574,0.88458 1.371089,2.12298 0.486516,1.19418 0.486516,2.6095 0,1.45954 -0.486516,2.69795 -0.486515,1.19417 -1.371089,2.07874 -0.840346,0.88458 -2.03452,1.37109 -1.149947,0.48652 -2.476808,0.48652 z" id="text4" transform="scale(0.97441963,1.0262519)" aria-label="40°" font-size="44.2287px" font-family="Bosch" letter-spacing="-0.819534px" stroke="#000000" stroke-width="1.65857" stroke-linejoin="round"/><g id="g2" transform="matrix(1.4744273,0,0,1.4744273,-132.31667,-60.640602)" display="inline" stroke="#000000" stroke-opacity="1"><path id="path7" d="m 141.27424,75.656231 c 2.12951,2.507458 2.3637,6.754569 2.3637,10.594547 0,7.644187 -5.22536,13.841032 -11.67117,13.841032 -6.44581,0 -11.67118,-6.19684 -11.67118,-13.841032 0,-3.9029 0.27776,-7.891919 2.46903,-10.40808 z" fill="none" stroke="#000000" stroke-width="4.45046" stroke-linecap="round" stroke-linejoin="round" stroke-opacity="1"/><path d="m 132.03739,100.23613 -0.14126,19.9972" id="path8" fill="none" stroke="#000000" stroke-width="3.49569" stroke-linecap="round" stroke-linejoin="round" stroke-opacity="1"/><path d="m 121.55951,121.32667 20.81451,-0.13693" id="path9" fill="none" stroke="#000000" stroke-width="3.5" stroke-linecap="round" stroke-linejoin="round" stroke-opacity="1"/></g></g></svg>