<svg width="24" height="24" viewBox="0 0 24 24" xml:space="preserve" xmlns="http://www.w3.org/2000/svg" xmlns:svg="http://www.w3.org/2000/svg">
  <path d="M7.808 21.809q.069-.795.235-1.494.173-.7.429-1.304t.58-1.115.707-.933h-2.63v-.364h3.017v.422q-.45.481-.789 1.057t-.58 1.195q-.236.62-.374 1.268-.139.64-.18 1.268Zm4.631-.306q.671 0 1.031-.613.367-.612.367-1.705 0-.524-.097-.947t-.277-.721-.443-.46q-.255-.167-.588-.167t-.595.16-.45.46q-.18.298-.276.728t-.097.962q0 .546.097.976.104.43.29.73.187.29.45.444.263.153.588.153zm.007.364q-.415 0-.754-.19-.339-.196-.588-.546-.242-.35-.38-.838-.132-.488-.132-1.086 0-.604.132-1.1.131-.495.373-.845t.581-.54q.34-.189.754-.189.416 0 .755.197.339.19.574.54.242.349.366.837.132.488.132 1.086 0 .597-.132 1.093-.124.488-.36.845-.235.35-.574.546-.332.19-.747.19zm3.428-3.447q.305 0 .484-.211.18-.219.18-.576 0-.342-.186-.568-.18-.226-.478-.226-.297 0-.477.219-.18.211-.18.554 0 .357.18.582.18.226.477.226zm0 .306q-.207 0-.387-.08-.18-.087-.319-.233-.131-.146-.214-.35-.076-.204-.076-.437t.076-.43q.083-.204.214-.35.139-.145.319-.225.18-.088.387-.088t.388.088q.186.08.318.233.138.145.214.35.076.196.076.43 0 .24-.076.444-.076.197-.214.342-.132.146-.318.226-.18.08-.388.08z" stroke="#000" stroke-width=".266" stroke-linejoin="round"/>
  <g transform="translate(-2.166 -1.361)scale(.14465)">
    <g transform="translate(-13.169 56.548)">
      <path d="M78.82 35.851h-2.757a8.48 8.48 0 0 1-8.5-8.5v-40.178c0-9.937-2.213-8.5 8.5-8.5h62.255c10.125 0 8.5-1.657 8.5 8.5v25.802" fill="none" stroke="#000" stroke-width="3.468" stroke-linejoin="round"/>
      <path d="M146.987-4.75h18" fill="none" stroke="#000" stroke-width="3.618" stroke-linejoin="round"/>
      <path d="M96.67-20.816c0-5.918 4.798-10.715 10.716-10.715S118.1-26.734 118.1-20.816" fill="none" stroke="#000" stroke-width="3.57" stroke-linejoin="round"/>
      <path d="M66.43-4.75H49" fill="none" stroke="#010000" stroke-width="3.5" stroke-linejoin="round"/>
    </g>
    <g transform="matrix(1.00238 0 0 .9997 -13.38 56.188)">
      <path d="m89.004 36.211 83.992-.187" fill="none" stroke="#000" stroke-width="3.507" stroke-linejoin="round"/>
      <path d="m161.318 36.602-9.759 11.619H110.44l-9.35-11.813" fill="none" stroke="#000" stroke-width="3.588" stroke-linejoin="round"/>
      <path d="m154.004 45.7 83.992-.187" transform="matrix(.99762 0 0 1.0003 -64.634 -21.656)" fill="none" stroke="#000" stroke-width="3.507" stroke-linejoin="round"/>
      <path d="m226.318 46.09-9.759 11.62m-41.119 0-9.35-11.813" transform="matrix(.99762 0 0 1.0003 -64.634 -21.656)" fill="none" stroke="#000" stroke-width="3.588" stroke-linejoin="round"/>
    </g>
  </g>
</svg>
