<svg width="24" height="24" viewBox="0 0 24 24" xml:space="preserve" xmlns="http://www.w3.org/2000/svg" xmlns:svg="http://www.w3.org/2000/svg" stroke="currentColor">
  <g transform="translate(10.381 -1.134)scale(.13488)">
    <path d="M-14.116 170.315q.431-4.947 1.466-9.305 1.077-4.357 2.672-8.124 1.594-3.768 3.62-6.945t4.396-5.81H-18.34v-2.27H.45v2.633q-2.801 2.996-4.913 6.582t-3.62 7.444q-1.465 3.858-2.327 7.897-.862 3.995-1.12 7.898zm28.853-1.906q4.18 0 6.421-3.813 2.284-3.813 2.284-10.621 0-3.268-.603-5.9t-1.724-4.494-2.758-2.86q-1.595-1.044-3.663-1.044-2.07 0-3.707.999-1.637.998-2.801 2.86-1.12 1.86-1.724 4.538t-.603 5.992q0 3.404.603 6.082.646 2.678 1.81 4.539 1.164 1.816 2.801 2.769t3.664.953zm.043 2.27q-2.586 0-4.698-1.18-2.112-1.226-3.663-3.405-1.509-2.179-2.37-5.22-.82-3.04-.82-6.763 0-3.767.82-6.854.818-3.086 2.327-5.265t3.62-3.359q2.112-1.18 4.698-1.18 2.585 0 4.697 1.226 2.112 1.18 3.577 3.358 1.509 2.18 2.284 5.22.82 3.041.82 6.763t-.82 6.809q-.775 3.04-2.24 5.265-1.466 2.179-3.578 3.404-2.068 1.18-4.654 1.18zm21.353-21.47q1.897 0 3.017-1.316 1.12-1.362 1.12-3.586 0-2.133-1.163-3.54-1.12-1.408-2.974-1.408-1.853 0-2.973 1.362-1.121 1.316-1.121 3.45 0 2.224 1.12 3.63 1.121 1.408 2.974 1.408zm0 1.906q-1.293 0-2.413-.499-1.12-.545-1.983-1.452-.819-.908-1.336-2.18-.474-1.27-.474-2.722 0-1.453.474-2.678.517-1.271 1.336-2.18.862-.907 1.983-1.406 1.12-.545 2.413-.545t2.414.545q1.163.499 1.982 1.452.862.908 1.336 2.179.474 1.225.474 2.678 0 1.498-.474 2.769-.474 1.225-1.336 2.133-.819.908-1.982 1.407-1.12.5-2.414.5z" stroke-width="1.659" stroke-linejoin="round"/>
    <g transform="translate(-85.93)">
      <g transform="translate(-13.169 56.548)">
        <path d="M78.82 35.851h-2.757a8.48 8.48 0 0 1-8.5-8.5v-40.178c0-9.937-2.213-8.5 8.5-8.5h62.255c10.125 0 8.5-1.657 8.5 8.5v25.802" stroke="#000" stroke-width="3.468" stroke-linejoin="round"/>
        <path d="M146.987-4.75h18" stroke="#000" stroke-width="3.618" stroke-linejoin="round"/>
        <path d="M96.67-20.816c0-5.918 4.798-10.715 10.716-10.715S118.1-26.734 118.1-20.816" stroke="#000" stroke-width="3.57" stroke-linejoin="round"/>
        <path d="M66.43-4.75H49" stroke="#010000" stroke-width="3.5" stroke-linejoin="round"/>
      </g>
      <g transform="matrix(1.00238 0 0 .9997 -13.38 56.188)">
        <path d="m89.004 36.211 83.992-.187" stroke="#000" stroke-width="3.507" stroke-linejoin="round"/>
        <path d="m161.318 36.602-9.759 11.619H110.44l-9.35-11.813" stroke="#000" stroke-width="3.588" stroke-linejoin="round"/>
        <path d="m154.004 45.7 83.992-.187" transform="matrix(.99762 0 0 1.0003 -64.634 -21.656)" stroke="#000" stroke-width="3.507" stroke-linejoin="round"/>
        <path d="m226.318 46.09-9.759 11.62m-41.119 0-9.35-11.813" transform="matrix(.99762 0 0 1.0003 -64.634 -21.656)" stroke="#000" stroke-width="3.588" stroke-linejoin="round"/>
      </g>
    </g>
  </g>
</svg>
