<svg width="24" height="24" viewBox="0 0 24 24" xml:space="preserve" xmlns="http://www.w3.org/2000/svg" xmlns:svg="http://www.w3.org/2000/svg">
  <g transform="translate(-19.86 -1.565)scale(.30884)">
    <g transform="translate(12.06)">
      <path d="M102.756 35.177v9.553c0 2.66-2.14 4.8-4.8 4.8h-19.27a4.79 4.79 0 0 1-4.8-4.8v-23.4c0-2.66 2.14-4.8 4.8-4.8h11" fill="none" stroke="#000" stroke-width="1.74" stroke-linejoin="round"/>
      <path d="M78.106 24.836v5.282H91.72m-13.614 8.835v5.265h20.1v-5.265" fill="none" stroke="#000" stroke-width="1.719" stroke-linejoin="round"/>
      <path d="m99.156 12.054 1.975 6.914 7.553-3.428-5.287 5.926 4.3 2.789-5.23.639 1.627 7.32-4.415-5.984-3.66 3.66.755-5.17-5.81-.233 4.938-2.905-3.311-4.531 5.345 1.859z" fill="none" stroke="#000" stroke-width="1.02" stroke-linejoin="round"/>
    </g>
    <path d="M67.778 66.071h1.088l3.172 8.862 3.093-8.862h1.088v9.87h-.747v-8.793l-3.08 8.793h-.721l-3.172-8.793v8.793h-.72zm11.973 9.331q.406 0 .773-.138t.642-.372q.288-.235.459-.552.17-.318.196-.69v-1.326l-.38.014q-.707.041-1.297.138-.577.097-.996.304-.407.193-.63.51-.222.318-.222.801 0 .552.354.939.367.372 1.1.372zm-.092.65q-.459 0-.839-.139-.38-.138-.668-.386-.289-.263-.446-.622-.157-.358-.157-.8 0-.677.301-1.104.315-.442.839-.704.524-.276 1.219-.387.694-.124 1.455-.166l.458-.027v-.718q0-.911-.38-1.311-.367-.4-1.088-.4-.655 0-1.153.275-.498.263-.917.69l-.46-.51q.46-.497 1.076-.815t1.48-.317q.446 0 .84.138.406.124.707.414.302.276.472.732t.17 1.118v3.534q0 .414.197.635.197.207.655.165v.635q-.694.07-1.1-.22-.394-.304-.486-.898-.353.566-.93.884-.564.303-1.245.303zm7.188 0q-.629 0-1.18-.25-.55-.262-.956-.745t-.642-1.173-.236-1.546.223-1.546q.222-.69.616-1.173.406-.483.943-.746.55-.262 1.193-.262.957 0 1.547.456.59.441.943 1.104l-.59.4q-.183-.304-.367-.538-.17-.249-.393-.414-.223-.166-.498-.249t-.642-.083q-1.022 0-1.612.829-.59.814-.59 2.222 0 1.436.603 2.236t1.651.8q.433 0 .748-.11.314-.124.55-.317t.406-.442.315-.51l.59.386q-.145.29-.38.594-.223.303-.55.538-.315.235-.735.386t-.957.152zm3.965-10.505h.747v4.444q.262-.58.825-.98.564-.4 1.377-.4.471 0 .865.152.406.152.694.483.289.317.446.828.17.51.17 1.229v4.638h-.747v-4.693q0-1.933-1.599-1.933-.367 0-.734.138-.367.124-.655.387-.288.262-.472.676-.17.414-.17.966v4.459h-.747zm7.359 1.27q-.223 0-.38-.166-.145-.166-.145-.4t.145-.387q.157-.166.38-.166.222 0 .367.166.157.152.157.387 0 .234-.157.4-.145.166-.367.166zm-.354 1.904h.747v7.22h-.747zm2.719 0h.747v1.229q.275-.58.8-.952.537-.387 1.35-.387.471 0 .878.152.42.152.72.483.315.317.485.842.17.51.17 1.242v4.61h-.746v-4.65q0-1.022-.433-1.49-.432-.484-1.245-.484-.393 0-.76.138-.354.138-.63.414-.261.276-.432.704-.157.428-.157 1.008v4.362h-.747zm9.404.566q-.892 0-1.468.65-.564.648-.695 1.78h4.18q-.065-1.201-.576-1.808-.51-.622-1.441-.622zm.13 6.764q-.681 0-1.245-.248-.563-.263-.983-.746-.406-.483-.642-1.173-.223-.69-.223-1.546t.223-1.546.616-1.173q.407-.483.944-.746.55-.262 1.18-.262.576 0 1.074.22.511.208.892.65.38.428.59 1.09.222.663.222 1.546v.262h-4.967q0 1.422.59 2.209.602.787 1.743.787.406 0 .707-.097.315-.11.538-.29.236-.18.406-.414.17-.248.302-.524l.616.359q-.158.33-.394.635-.222.303-.537.524-.315.22-.734.359-.406.124-.917.124zm7.674 0q-.917 0-1.651-.373-.734-.386-1.259-1.049-.51-.676-.8-1.6-.274-.926-.274-2.016t.288-2.015q.288-.94.813-1.616t1.245-1.062q.734-.387 1.612-.387 1.271 0 2.11.635t1.324 2.043l-.669.235q-.354-1.077-.996-1.657t-1.756-.58q-.708 0-1.298.332-.576.317-1.009.897-.42.58-.655 1.394-.223.8-.223 1.767 0 .994.223 1.795.236.8.655 1.366t1.01.884q.59.303 1.323.303 1.114 0 1.809-.607.708-.621 1.048-1.795l.682.263q-.433 1.38-1.31 2.112-.866.731-2.242.731zm6.52-.649q.406 0 .773-.138t.643-.372q.288-.235.458-.552t.197-.69v-1.326l-.38.014q-.708.041-1.298.138-.576.097-.996.304-.406.193-.629.51-.223.318-.223.801 0 .552.354.939.367.372 1.101.372zm-.092.65q-.458 0-.838-.139-.38-.138-.669-.386-.288-.263-.445-.622-.158-.358-.158-.8 0-.677.302-1.104.314-.442.839-.704.524-.276 1.218-.387.695-.124 1.455-.166l.46-.027v-.718q0-.911-.381-1.311-.367-.4-1.088-.4-.655 0-1.153.275-.498.263-.918.69l-.458-.51q.458-.497 1.074-.815t1.481-.317q.446 0 .84.138.405.124.707.414.301.276.472.732t.17 1.118v3.534q0 .414.197.635.196.207.655.165v.635q-.695.07-1.1-.22-.394-.304-.486-.898-.354.566-.93.884-.564.303-1.246.303zm4.738-7.33h.747v1.283q.25-.566.708-.966.459-.414 1.127-.414.603 0 1.036.276l-.328.676q-.157-.096-.328-.152-.17-.069-.472-.069-.288 0-.603.138-.301.125-.563.442-.25.304-.42.8-.157.498-.157 1.215v3.99h-.747zm6.861.565q-.891 0-1.468.65-.564.648-.695 1.78h4.181q-.065-1.201-.576-1.808-.511-.622-1.442-.622zm.131 6.764q-.682 0-1.245-.248-.564-.263-.983-.746-.406-.483-.642-1.173-.223-.69-.223-1.546t.223-1.546.616-1.173q.406-.483.943-.746.55-.262 1.18-.262.577 0 1.075.22.51.208.891.65.38.428.59 1.09.223.663.223 1.546v.262h-4.968q0 1.422.59 2.209.603.787 1.743.787.406 0 .708-.097.314-.11.537-.29.236-.18.407-.414.17-.248.301-.524l.616.359q-.157.33-.393.635-.223.303-.538.524-.314.22-.734.359-.406.124-.917.124z" stroke="#000" stroke-width=".504" stroke-linejoin="round"/>
  </g>
</svg>
