<svg width="24" height="24" viewBox="0 0 24 24" xml:space="preserve" xmlns:xlink="http://www.w3.org/1999/xlink" xmlns="http://www.w3.org/2000/svg" xmlns:svg="http://www.w3.org/2000/svg">
  <g transform="translate(16.028 9.333)">
    <path d="m-12.604-3.55.634.56m15.882 0 .635-.56-4.621-3.052a2.17 2.17 0 0 0-2.276-.07l-1.679.967m8.576 2.154-.635.561A11.96 11.96 0 0 1-3.016-.026m-2.292-.026A11.95 11.95 0 0 1-11.97-2.99l-.634-.56 4.412-2.914a2.57 2.57 0 0 1 2.701-.083l1.462.842m-4.37 2.301h3.14m2.196 0h2.859" fill="none" stroke="#000" stroke-width=".746" stroke-linecap="round" stroke-linejoin="round"/>
    <path d="M-5.244 7.365v-11.23a1.098 1.098 0 0 1 2.196 0v6.789s.997-.872 1.504-.664c.534.218.639 1.608.639 1.608s.884-.845 1.353-.664c.562.218.663 1.685.663 1.685s.853-1.06 1.43-.995c.377.042.7.468.766.842.24 1.373.286 1.969 0 3.267-.27 1.227-.576 2.014-2.066 3.152-1.026.783-2.184 1.116-3.703 1.137-.875.012-1.829-.035-2.579-.485-1.52-.911-1.68-1.248-2.348-2.042-1.336-1.59-3.217-5.335-3.217-5.335s1.121-.464 1.685-.358c.44.084.811.419 1.123.74.655.675.695 1.885 1.48 2.4.303.198 1.074.153 1.074.153" fill="none" stroke="#000" stroke-width=".746" stroke-linecap="round" stroke-linejoin="round"/>
  </g>
</svg>
