<svg width="24" height="24" viewBox="0 0 24 24" xml:space="preserve" xmlns:xlink="http://www.w3.org/1999/xlink" xmlns="http://www.w3.org/2000/svg" xmlns:svg="http://www.w3.org/2000/svg" stroke="currentColor" fill="none">
  <g transform="translate(19.608 9.333)">
    <text xml:space="preserve" x="-12.397" y="13.158" transform="scale(.97442 1.02625)" fill="#000" stroke="#000" stroke-width=".227" stroke-linejoin="round"><tspan x="-12.397" y="13.158">50°</tspan></text>
    <g transform="translate(-21.827 -.39)scale(.13662)" stroke-width="4">
      <path d="m58.07-37.854 3.405 3.01m85.194 0 3.405-3.01-24.788-16.368a11.63 11.63 0 0 0-12.207-.374l-9.007 5.185m46.002 11.557-3.405 3.01a64.13 64.13 0 0 1-37.163 15.896m-12.298-.136a64.1 64.1 0 0 1-35.733-15.76l-3.405-3.01 23.668-15.628a13.8 13.8 0 0 1 14.49-.444l7.844 4.515M80.629-37.066h16.845m11.776 0h15.338" stroke-linecap="round" stroke-linejoin="round"/>
      <path d="M97.478 20.7v-60.247a5.89 5.89 0 0 1 11.778 0v36.42s5.352-4.675 8.074-3.56c2.862 1.173 3.423 8.627 3.423 8.627s4.745-4.534 7.258-3.56c3.019 1.17 3.56 9.038 3.56 9.038s4.573-5.69 7.669-5.34c2.022.227 3.758 2.513 4.108 4.518 1.285 7.367 1.534 10.56 0 17.528-1.45 6.58-3.09 10.803-11.079 16.904-5.506 4.205-11.72 5.988-19.87 6.102-4.69.065-9.806-.19-13.83-2.602-8.158-4.89-9.018-6.695-12.598-10.955-7.166-8.529-17.254-28.62-17.254-28.62s6.012-2.49 9.038-1.917c2.363.446 4.35 2.245 6.025 3.97 3.511 3.619 3.725 10.11 7.942 12.873 1.621 1.062 5.756.822 5.756.822" stroke-linecap="round" stroke-linejoin="round"/>
    </g>
  </g>
</svg>
