<svg width="24" height="24" viewBox="0 0 24 24" xml:space="preserve" xmlns:xlink="http://www.w3.org/1999/xlink" xmlns="http://www.w3.org/2000/svg" xmlns:svg="http://www.w3.org/2000/svg">
  <g transform="translate(19.608 9.333)">
    <path d="m-12.753-5.064.38.337m9.53 0 .38-.337-2.772-1.83a1.3 1.3 0 0 0-1.366-.042l-1.007.58m5.146 1.292-.381.337A7.17 7.17 0 0 1-7-2.95m-1.376-.015a7.17 7.17 0 0 1-3.997-1.763l-.38-.337 2.647-1.748a1.54 1.54 0 0 1 1.62-.05l.878.506m-2.622 1.38h1.884m1.317 0h1.716" fill="none" stroke="#000" stroke-width=".447" stroke-linecap="round" stroke-linejoin="round"/>
    <path d="M-8.337 1.486v-6.739a.659.659 0 0 1 1.317 0v4.074s.599-.523.903-.398c.32.13.383.965.383.965s.53-.507.812-.399C-4.584-.88-4.524 0-4.524 0s.512-.636.858-.597c.226.026.42.281.46.505.143.824.171 1.182 0 1.961-.163.736-.346 1.208-1.24 1.89-.616.471-1.31.67-2.222.683-.525.008-1.097-.021-1.547-.29-.913-.548-1.009-.75-1.41-1.226-.8-.954-1.93-3.201-1.93-3.201s.673-.279 1.012-.215c.264.05.486.251.674.444.392.405.416 1.131.888 1.44.181.119.644.092.644.092" fill="none" stroke="#000" stroke-width=".447" stroke-linecap="round" stroke-linejoin="round"/>
    <path d="M-11.036 12.534q-.346 0-.616-.102t-.47-.27q-.194-.175-.318-.4-.125-.227-.187-.467l.36-.102q.048.182.138.357.097.175.242.313.145.139.353.226.208.088.498.088.547 0 .851-.365.304-.364.304-1.013 0-.298-.083-.546-.076-.255-.22-.43-.146-.182-.36-.284-.208-.102-.464-.102-.401 0-.644.175-.235.175-.387.408h-.346l.221-2.755H-9.7v.38h-2.13l-.16 1.908q.139-.174.395-.32.263-.153.63-.153.318 0 .587.124.277.116.478.342.207.219.318.54.118.313.118.706 0 .408-.118.729-.118.32-.332.546-.208.226-.498.35-.284.117-.623.117zm4.016-.365q.671 0 1.031-.612.367-.612.367-1.705 0-.524-.097-.947t-.277-.721q-.18-.3-.443-.46-.256-.167-.588-.167t-.595.16-.45.46q-.18.298-.276.728t-.097.962q0 .546.097.976.104.43.29.729.187.291.45.444t.588.153zm.007.365q-.415 0-.754-.19-.34-.197-.588-.546-.242-.35-.38-.838-.132-.488-.132-1.086 0-.605.131-1.1.132-.496.374-.845.242-.35.581-.54.34-.19.754-.19.415 0 .754.198.34.19.575.539.242.35.366.838.132.488.132 1.085 0 .598-.132 1.093-.124.489-.36.846-.235.35-.574.546-.332.19-.747.19zm3.428-3.447q.304 0 .484-.211.18-.219.18-.576 0-.342-.187-.568-.18-.226-.477-.226-.298 0-.477.219-.18.21-.18.553 0 .357.18.583t.477.226zm0 .306q-.208 0-.387-.08-.18-.087-.319-.233-.131-.146-.214-.35-.076-.204-.076-.437t.076-.43q.083-.204.214-.35.139-.146.319-.226.18-.087.387-.087t.387.087q.187.08.319.234.138.145.214.35.076.196.076.43 0 .24-.076.444-.076.196-.214.342-.132.146-.319.226-.18.08-.387.08z" stroke="#000" stroke-width=".266" stroke-linejoin="round"/>
  </g>
</svg>
