<svg width="24" height="24" viewBox="0 0 24 24" xml:space="preserve" xmlns:xlink="http://www.w3.org/1999/xlink" xmlns="http://www.w3.org/2000/svg" xmlns:svg="http://www.w3.org/2000/svg">
  <g transform="translate(19.608 9.333)">
    <path d="M-9.03 8.1V-4.888a1.27 1.27 0 0 1 2.538 0v7.851s1.154-1.008 1.74-.767c.618.253.739 1.86.739 1.86s1.023-.978 1.564-.768c.651.252.768 1.948.768 1.948S-.695 4.01-.028 4.085c.436.05.81.542.885.974.278 1.588.331 2.277 0 3.779-.312 1.418-.666 2.329-2.388 3.644-1.187.906-2.526 1.29-4.283 1.315-1.011.014-2.114-.041-2.981-.56-1.76-1.055-1.945-1.444-2.716-2.362-1.545-1.839-3.72-6.17-3.72-6.17s1.296-.537 1.949-.413c.51.096.937.484 1.298.856.757.78.803 2.18 1.713 2.775.349.228 1.24.177 1.24.177" fill="none" stroke="#000" stroke-width="1.735" stroke-linecap="round" stroke-linejoin="round"/>
    <path d="m-17.525-4.524.734.65m18.366 0 .734-.65-5.344-3.528a2.51 2.51 0 0 0-2.631-.08l-1.942 1.117m9.917 2.491-.734.65A13.83 13.83 0 0 1-6.436-.449m-2.652-.03a13.8 13.8 0 0 1-7.703-3.397l-.734-.649 5.102-3.368a2.98 2.98 0 0 1 3.124-.096l1.691.973m-5.053 2.661h3.63m2.54 0h3.306" fill="none" stroke="#000" stroke-width="1.735" stroke-linecap="round" stroke-linejoin="round"/>
  </g>
</svg>
