<svg width="24" height="24" viewBox="0 0 24 24" xml:space="preserve" xmlns:xlink="http://www.w3.org/1999/xlink" xmlns="http://www.w3.org/2000/svg" xmlns:svg="http://www.w3.org/2000/svg">
  <g transform="translate(19.608 9.333)">
    <path d="m-13.893-5.562.465.412m11.639 0 .465-.412-3.386-2.236a1.59 1.59 0 0 0-1.668-.05l-1.23.707m6.284 1.58-.465.41a8.76 8.76 0 0 1-5.077 2.172m-1.68-.018a8.76 8.76 0 0 1-4.882-2.153l-.465-.412 3.233-2.135a1.89 1.89 0 0 1 1.98-.06l1.071.616m-3.202 1.687h2.3m1.61 0h2.095" stroke-width=".546" fill="none" stroke="#000" stroke-linecap="round" stroke-linejoin="round"/>
    <path d="M-8.51 2.438v-8.23a.805.805 0 0 1 1.61 0v4.975s.73-.639 1.103-.487c.39.16.467 1.179.467 1.179s.649-.62.992-.486c.412.16.486 1.234.486 1.234s.625-.777 1.048-.73c.276.032.513.344.561.618.176 1.007.21 1.443 0 2.395-.198.899-.422 1.476-1.513 2.31-.753.574-1.602.817-2.715.833-.64.009-1.34-.026-1.89-.356-1.114-.668-1.232-.914-1.72-1.496-.98-1.165-2.358-3.91-2.358-3.91s.821-.34 1.235-.262c.323.06.594.306.823.542.48.495.509 1.381 1.085 1.759.222.145.786.112.786.112" stroke-width=".546" fill="none" stroke="#000" stroke-linecap="round" stroke-linejoin="round"/>
    <path d="M-10.802 13.207q-0.302 0 -0.537 -0.085q-0.236 -0.084 -0.411 -0.223q-0.17 -0.145 -0.278 -0.333q-0.109 -0.187 -0.163 -0.386l0.314 -0.085q0.042 0.151 0.12 0.296q0.085 0.145 0.212 0.26t0.308 0.187t0.435 0.073q0.478 0 0.744 -0.302q0.266 -0.303 0.266 -0.84q0 -0.248 -0.073 -0.454q-0.066 -0.211 -0.193 -0.356q-0.127 -0.151 -0.315 -0.236q-0.18 -0.084 -0.404 -0.084q-0.35 0 -0.562 0.145q-0.206 0.145 -0.339 0.338h-0.302l0.193 -2.284h2.152v0.314h-1.861l-0.14 1.583q0.121 -0.145 0.345 -0.266q0.23 -0.126 0.55 -0.126q0.278 0 0.513 0.102q0.242 0.097 0.417 0.284q0.182 0.182 0.278 0.447q0.103 0.26 0.103 0.587q0 0.338 -0.103 0.604q-0.102 0.266 -0.29 0.453q-0.181 0.187 -0.435 0.29q-0.248 0.097 -0.544 0.097zm3.508 -0.302q0.586 0 0.9 -0.508q0.32 -0.508 0.32 -1.414q0 -0.435 -0.084 -0.785q-0.085 -0.35 -0.242 -0.599q-0.157 -0.247 -0.387 -0.38q-0.223 -0.14 -0.513 -0.14t-0.52 0.134q-0.23 0.133 -0.393 0.38q-0.157 0.248 -0.241 0.605q-0.085 0.356 -0.085 0.797q0 0.453 0.085 0.81q0.09 0.356 0.254 0.604q0.163 0.242 0.392 0.369q0.23 0.127 0.514 0.127zm0.006 0.302q-0.363 0 -0.659 -0.157q-0.296 -0.163 -0.513 -0.454q-0.212 -0.29 -0.333 -0.694q-0.114 -0.405 -0.114 -0.9q0 -0.502 0.114 -0.913q0.115 -0.411 0.327 -0.701q0.211 -0.29 0.507 -0.447t0.659 -0.157t0.659 0.163q0.296 0.157 0.501 0.447q0.212 0.29 0.32 0.695q0.115 0.405 0.115 0.9q0 0.496 -0.115 0.907q-0.108 0.404 -0.314 0.7q-0.205 0.29 -0.501 0.454q-0.29 0.157 -0.653 0.157zm2.994 -2.858q0.266 0 0.423 -0.176q0.157 -0.18 0.157 -0.477q0 -0.284 -0.163 -0.471q-0.157 -0.188 -0.417 -0.188t-0.417 0.182q-0.157 0.175 -0.157 0.459q0 0.296 0.157 0.483q0.157 0.188 0.417 0.188zm0 0.253q-0.181 0 -0.339 -0.066q-0.157 -0.073 -0.277 -0.193q-0.115 -0.121 -0.188 -0.29q-0.066 -0.17 -0.066 -0.363t0.066 -0.356q0.073 -0.17 0.188 -0.29q0.12 -0.121 0.277 -0.188q0.158 -0.072 0.339 -0.072t0.338 0.072q0.163 0.067 0.278 0.194q0.121 0.12 0.188 0.29q0.066 0.163 0.066 0.356q0 0.2 -0.066 0.369q-0.067 0.163 -0.188 0.284q-0.115 0.12 -0.278 0.187q-0.157 0.066 -0.338 0.066z" stroke="#000" stroke-width=".227" stroke-linejoin="round"/>
  </g>
</svg>
